ISO-10303-21;
HEADER;
/* Generated by software containing ST-Developer
 * from STEP Tools, Inc. (www.steptools.com) 
 */

FILE_DESCRIPTION(
/* description */ (''),
/* implementation_level */ '2;1');

FILE_NAME(
/* name */ '0935088c-e427-49d9-9eb0-af71bd5f1318.stp',
/* time_stamp */ '2026-08-04T13:16:03Z',
/* author */ (''),
/* organization */ (''),
/* preprocessor_version */ 'ST-DEVELOPER v20.2',
/* originating_system */ 'Autodesk Translation Framework v15.15.0.0',
/* authorisation */ '');

FILE_SCHEMA (('AUTOMOTIVE_DESIGN { 1 0 10303 214 3 1 1 }'));
ENDSEC;

DATA;
#10=MECHANICAL_DESIGN_GEOMETRIC_PRESENTATION_REPRESENTATION('',(#13),#1907);
#11=SHAPE_REPRESENTATION_RELATIONSHIP('SRR','None',#1914,#12);
#12=ADVANCED_BREP_SHAPE_REPRESENTATION('',(#14),#1906);
#13=STYLED_ITEM('',(#1923),#14);
#14=MANIFOLD_SOLID_BREP('Body1',#1055);
#15=TOROIDAL_SURFACE('',#1108,2.3,0.2);
#16=TOROIDAL_SURFACE('',#1115,2.3,0.2);
#17=TOROIDAL_SURFACE('',#1122,2.3,0.2);
#18=TOROIDAL_SURFACE('',#1129,2.3,0.2);
#19=TOROIDAL_SURFACE('',#1136,2.3,0.2);
#20=TOROIDAL_SURFACE('',#1143,2.3,0.2);
#21=TOROIDAL_SURFACE('',#1150,2.3,0.2);
#22=TOROIDAL_SURFACE('',#1157,2.3,0.2);
#23=FACE_BOUND('',#307,.T.);
#24=FACE_BOUND('',#308,.T.);
#25=FACE_BOUND('',#309,.T.);
#26=FACE_BOUND('',#310,.T.);
#27=FACE_BOUND('',#311,.T.);
#28=FACE_BOUND('',#312,.T.);
#29=FACE_BOUND('',#313,.T.);
#30=FACE_BOUND('',#314,.T.);
#31=FACE_BOUND('',#342,.T.);
#32=FACE_BOUND('',#346,.T.);
#33=FACE_BOUND('',#352,.T.);
#34=FACE_BOUND('',#375,.T.);
#35=FACE_BOUND('',#376,.T.);
#36=FACE_BOUND('',#377,.T.);
#37=FACE_BOUND('',#378,.T.);
#38=FACE_BOUND('',#379,.T.);
#39=FACE_BOUND('',#380,.T.);
#40=FACE_BOUND('',#381,.T.);
#41=FACE_BOUND('',#382,.T.);
#42=FACE_BOUND('',#383,.T.);
#43=FACE_BOUND('',#384,.T.);
#44=FACE_BOUND('',#385,.T.);
#45=FACE_BOUND('',#389,.T.);
#46=PLANE('',#1097);
#47=PLANE('',#1098);
#48=PLANE('',#1099);
#49=PLANE('',#1114);
#50=PLANE('',#1121);
#51=PLANE('',#1128);
#52=PLANE('',#1135);
#53=PLANE('',#1142);
#54=PLANE('',#1149);
#55=PLANE('',#1156);
#56=PLANE('',#1163);
#57=PLANE('',#1170);
#58=PLANE('',#1177);
#59=PLANE('',#1178);
#60=PLANE('',#1179);
#61=PLANE('',#1186);
#62=PLANE('',#1187);
#63=PLANE('',#1191);
#64=PLANE('',#1195);
#65=PLANE('',#1199);
#66=PLANE('',#1203);
#67=PLANE('',#1207);
#68=PLANE('',#1211);
#69=PLANE('',#1215);
#70=PLANE('',#1219);
#71=PLANE('',#1220);
#72=PLANE('',#1221);
#73=PLANE('',#1222);
#74=PLANE('',#1223);
#75=PLANE('',#1224);
#76=PLANE('',#1225);
#77=PLANE('',#1226);
#78=PLANE('',#1227);
#79=LINE('',#1614,#133);
#80=LINE('',#1615,#134);
#81=LINE('',#1627,#135);
#82=LINE('',#1628,#136);
#83=LINE('',#1640,#137);
#84=LINE('',#1641,#138);
#85=LINE('',#1643,#139);
#86=LINE('',#1644,#140);
#87=LINE('',#1656,#141);
#88=LINE('',#1657,#142);
#89=LINE('',#1659,#143);
#90=LINE('',#1660,#144);
#91=LINE('',#1662,#145);
#92=LINE('',#1663,#146);
#93=LINE('',#1665,#147);
#94=LINE('',#1666,#148);
#95=LINE('',#1668,#149);
#96=LINE('',#1670,#150);
#97=LINE('',#1697,#151);
#98=LINE('',#1708,#152);
#99=LINE('',#1719,#153);
#100=LINE('',#1730,#154);
#101=LINE('',#1741,#155);
#102=LINE('',#1752,#156);
#103=LINE('',#1763,#157);
#104=LINE('',#1774,#158);
#105=LINE('',#1780,#159);
#106=LINE('',#1786,#160);
#107=LINE('',#1793,#161);
#108=LINE('',#1799,#162);
#109=LINE('',#1808,#163);
#110=LINE('',#1814,#164);
#111=LINE('',#1822,#165);
#112=LINE('',#1829,#166);
#113=LINE('',#1836,#167);
#114=LINE('',#1843,#168);
#115=LINE('',#1850,#169);
#116=LINE('',#1857,#170);
#117=LINE('',#1864,#171);
#118=LINE('',#1871,#172);
#119=LINE('',#1877,#173);
#120=LINE('',#1879,#174);
#121=LINE('',#1881,#175);
#122=LINE('',#1882,#176);
#123=LINE('',#1885,#177);
#124=LINE('',#1887,#178);
#125=LINE('',#1888,#179);
#126=LINE('',#1891,#180);
#127=LINE('',#1893,#181);
#128=LINE('',#1894,#182);
#129=LINE('',#1896,#183);
#130=LINE('',#1897,#184);
#131=LINE('',#1900,#185);
#132=LINE('',#1902,#186);
#133=VECTOR('',#1242,10.);
#134=VECTOR('',#1243,10.);
#135=VECTOR('',#1256,10.);
#136=VECTOR('',#1257,10.);
#137=VECTOR('',#1270,10.);
#138=VECTOR('',#1271,10.);
#139=VECTOR('',#1274,10.);
#140=VECTOR('',#1275,10.);
#141=VECTOR('',#1288,10.);
#142=VECTOR('',#1289,10.);
#143=VECTOR('',#1292,10.);
#144=VECTOR('',#1293,10.);
#145=VECTOR('',#1296,10.);
#146=VECTOR('',#1297,10.);
#147=VECTOR('',#1300,10.);
#148=VECTOR('',#1301,10.);
#149=VECTOR('',#1304,10.);
#150=VECTOR('',#1307,10.);
#151=VECTOR('',#1338,2.5);
#152=VECTOR('',#1353,2.5);
#153=VECTOR('',#1368,2.5);
#154=VECTOR('',#1383,2.5);
#155=VECTOR('',#1398,2.5);
#156=VECTOR('',#1413,2.5);
#157=VECTOR('',#1428,2.5);
#158=VECTOR('',#1443,2.5);
#159=VECTOR('',#1450,2.15);
#160=VECTOR('',#1457,3.15);
#161=VECTOR('',#1466,2.15);
#162=VECTOR('',#1473,3.15);
#163=VECTOR('',#1486,2.15);
#164=VECTOR('',#1493,3.15);
#165=VECTOR('',#1504,2.5);
#166=VECTOR('',#1513,2.5);
#167=VECTOR('',#1522,2.5);
#168=VECTOR('',#1531,2.5);
#169=VECTOR('',#1540,2.5);
#170=VECTOR('',#1549,2.5);
#171=VECTOR('',#1558,2.5);
#172=VECTOR('',#1567,2.5);
#173=VECTOR('',#1574,10.);
#174=VECTOR('',#1575,10.);
#175=VECTOR('',#1576,10.);
#176=VECTOR('',#1577,10.);
#177=VECTOR('',#1580,10.);
#178=VECTOR('',#1581,10.);
#179=VECTOR('',#1582,10.);
#180=VECTOR('',#1585,10.);
#181=VECTOR('',#1586,10.);
#182=VECTOR('',#1587,10.);
#183=VECTOR('',#1590,10.);
#184=VECTOR('',#1591,10.);
#185=VECTOR('',#1596,10.);
#186=VECTOR('',#1599,10.);
#187=CYLINDRICAL_SURFACE('',#1073,0.2);
#188=CYLINDRICAL_SURFACE('',#1079,0.2);
#189=CYLINDRICAL_SURFACE('',#1085,0.2);
#190=CYLINDRICAL_SURFACE('',#1087,0.2);
#191=CYLINDRICAL_SURFACE('',#1092,0.2);
#192=CYLINDRICAL_SURFACE('',#1094,0.2);
#193=CYLINDRICAL_SURFACE('',#1095,0.2);
#194=CYLINDRICAL_SURFACE('',#1096,0.2);
#195=CYLINDRICAL_SURFACE('',#1113,2.5);
#196=CYLINDRICAL_SURFACE('',#1120,2.5);
#197=CYLINDRICAL_SURFACE('',#1127,2.5);
#198=CYLINDRICAL_SURFACE('',#1134,2.5);
#199=CYLINDRICAL_SURFACE('',#1141,2.5);
#200=CYLINDRICAL_SURFACE('',#1148,2.5);
#201=CYLINDRICAL_SURFACE('',#1155,2.5);
#202=CYLINDRICAL_SURFACE('',#1162,2.5);
#203=CYLINDRICAL_SURFACE('',#1164,2.15);
#204=CYLINDRICAL_SURFACE('',#1167,3.15);
#205=CYLINDRICAL_SURFACE('',#1171,2.15);
#206=CYLINDRICAL_SURFACE('',#1174,3.15);
#207=CYLINDRICAL_SURFACE('',#1180,2.15);
#208=CYLINDRICAL_SURFACE('',#1183,3.15);
#209=CYLINDRICAL_SURFACE('',#1188,1.01);
#210=CYLINDRICAL_SURFACE('',#1192,1.01);
#211=CYLINDRICAL_SURFACE('',#1196,1.01);
#212=CYLINDRICAL_SURFACE('',#1200,1.01);
#213=CYLINDRICAL_SURFACE('',#1204,1.01);
#214=CYLINDRICAL_SURFACE('',#1208,1.01);
#215=CYLINDRICAL_SURFACE('',#1212,1.01);
#216=CYLINDRICAL_SURFACE('',#1216,1.01);
#217=FACE_OUTER_BOUND('',#292,.T.);
#218=FACE_OUTER_BOUND('',#293,.T.);
#219=FACE_OUTER_BOUND('',#294,.T.);
#220=FACE_OUTER_BOUND('',#295,.T.);
#221=FACE_OUTER_BOUND('',#296,.T.);
#222=FACE_OUTER_BOUND('',#297,.T.);
#223=FACE_OUTER_BOUND('',#298,.T.);
#224=FACE_OUTER_BOUND('',#299,.T.);
#225=FACE_OUTER_BOUND('',#300,.T.);
#226=FACE_OUTER_BOUND('',#301,.T.);
#227=FACE_OUTER_BOUND('',#302,.T.);
#228=FACE_OUTER_BOUND('',#303,.T.);
#229=FACE_OUTER_BOUND('',#304,.T.);
#230=FACE_OUTER_BOUND('',#305,.T.);
#231=FACE_OUTER_BOUND('',#306,.T.);
#232=FACE_OUTER_BOUND('',#315,.T.);
#233=FACE_OUTER_BOUND('',#316,.T.);
#234=FACE_OUTER_BOUND('',#317,.T.);
#235=FACE_OUTER_BOUND('',#318,.T.);
#236=FACE_OUTER_BOUND('',#319,.T.);
#237=FACE_OUTER_BOUND('',#320,.T.);
#238=FACE_OUTER_BOUND('',#321,.T.);
#239=FACE_OUTER_BOUND('',#322,.T.);
#240=FACE_OUTER_BOUND('',#323,.T.);
#241=FACE_OUTER_BOUND('',#324,.T.);
#242=FACE_OUTER_BOUND('',#325,.T.);
#243=FACE_OUTER_BOUND('',#326,.T.);
#244=FACE_OUTER_BOUND('',#327,.T.);
#245=FACE_OUTER_BOUND('',#328,.T.);
#246=FACE_OUTER_BOUND('',#329,.T.);
#247=FACE_OUTER_BOUND('',#330,.T.);
#248=FACE_OUTER_BOUND('',#331,.T.);
#249=FACE_OUTER_BOUND('',#332,.T.);
#250=FACE_OUTER_BOUND('',#333,.T.);
#251=FACE_OUTER_BOUND('',#334,.T.);
#252=FACE_OUTER_BOUND('',#335,.T.);
#253=FACE_OUTER_BOUND('',#336,.T.);
#254=FACE_OUTER_BOUND('',#337,.T.);
#255=FACE_OUTER_BOUND('',#338,.T.);
#256=FACE_OUTER_BOUND('',#339,.T.);
#257=FACE_OUTER_BOUND('',#340,.T.);
#258=FACE_OUTER_BOUND('',#341,.T.);
#259=FACE_OUTER_BOUND('',#343,.T.);
#260=FACE_OUTER_BOUND('',#344,.T.);
#261=FACE_OUTER_BOUND('',#345,.T.);
#262=FACE_OUTER_BOUND('',#347,.T.);
#263=FACE_OUTER_BOUND('',#348,.T.);
#264=FACE_OUTER_BOUND('',#349,.T.);
#265=FACE_OUTER_BOUND('',#350,.T.);
#266=FACE_OUTER_BOUND('',#351,.T.);
#267=FACE_OUTER_BOUND('',#353,.T.);
#268=FACE_OUTER_BOUND('',#354,.T.);
#269=FACE_OUTER_BOUND('',#355,.T.);
#270=FACE_OUTER_BOUND('',#356,.T.);
#271=FACE_OUTER_BOUND('',#357,.T.);
#272=FACE_OUTER_BOUND('',#358,.T.);
#273=FACE_OUTER_BOUND('',#359,.T.);
#274=FACE_OUTER_BOUND('',#360,.T.);
#275=FACE_OUTER_BOUND('',#361,.T.);
#276=FACE_OUTER_BOUND('',#362,.T.);
#277=FACE_OUTER_BOUND('',#363,.T.);
#278=FACE_OUTER_BOUND('',#364,.T.);
#279=FACE_OUTER_BOUND('',#365,.T.);
#280=FACE_OUTER_BOUND('',#366,.T.);
#281=FACE_OUTER_BOUND('',#367,.T.);
#282=FACE_OUTER_BOUND('',#368,.T.);
#283=FACE_OUTER_BOUND('',#369,.T.);
#284=FACE_OUTER_BOUND('',#370,.T.);
#285=FACE_OUTER_BOUND('',#371,.T.);
#286=FACE_OUTER_BOUND('',#372,.T.);
#287=FACE_OUTER_BOUND('',#373,.T.);
#288=FACE_OUTER_BOUND('',#374,.T.);
#289=FACE_OUTER_BOUND('',#386,.T.);
#290=FACE_OUTER_BOUND('',#387,.T.);
#291=FACE_OUTER_BOUND('',#388,.T.);
#292=EDGE_LOOP('',(#700,#701,#702));
#293=EDGE_LOOP('',(#703,#704,#705,#706));
#294=EDGE_LOOP('',(#707,#708,#709));
#295=EDGE_LOOP('',(#710,#711,#712,#713));
#296=EDGE_LOOP('',(#714,#715,#716));
#297=EDGE_LOOP('',(#717,#718,#719,#720));
#298=EDGE_LOOP('',(#721,#722,#723,#724));
#299=EDGE_LOOP('',(#725,#726,#727));
#300=EDGE_LOOP('',(#728,#729,#730,#731));
#301=EDGE_LOOP('',(#732,#733,#734,#735));
#302=EDGE_LOOP('',(#736,#737,#738,#739));
#303=EDGE_LOOP('',(#740,#741,#742,#743));
#304=EDGE_LOOP('',(#744,#745,#746,#747));
#305=EDGE_LOOP('',(#748,#749,#750,#751));
#306=EDGE_LOOP('',(#752,#753,#754,#755));
#307=EDGE_LOOP('',(#756));
#308=EDGE_LOOP('',(#757));
#309=EDGE_LOOP('',(#758));
#310=EDGE_LOOP('',(#759));
#311=EDGE_LOOP('',(#760));
#312=EDGE_LOOP('',(#761));
#313=EDGE_LOOP('',(#762));
#314=EDGE_LOOP('',(#763));
#315=EDGE_LOOP('',(#764,#765,#766,#767,#768));
#316=EDGE_LOOP('',(#769,#770,#771,#772,#773));
#317=EDGE_LOOP('',(#774));
#318=EDGE_LOOP('',(#775,#776,#777,#778,#779));
#319=EDGE_LOOP('',(#780,#781,#782,#783,#784));
#320=EDGE_LOOP('',(#785));
#321=EDGE_LOOP('',(#786,#787,#788,#789,#790));
#322=EDGE_LOOP('',(#791,#792,#793,#794,#795));
#323=EDGE_LOOP('',(#796));
#324=EDGE_LOOP('',(#797,#798,#799,#800,#801));
#325=EDGE_LOOP('',(#802,#803,#804,#805,#806));
#326=EDGE_LOOP('',(#807));
#327=EDGE_LOOP('',(#808,#809,#810,#811,#812));
#328=EDGE_LOOP('',(#813,#814,#815,#816,#817));
#329=EDGE_LOOP('',(#818));
#330=EDGE_LOOP('',(#819,#820,#821,#822,#823));
#331=EDGE_LOOP('',(#824,#825,#826,#827,#828));
#332=EDGE_LOOP('',(#829));
#333=EDGE_LOOP('',(#830,#831,#832,#833,#834));
#334=EDGE_LOOP('',(#835,#836,#837,#838,#839));
#335=EDGE_LOOP('',(#840));
#336=EDGE_LOOP('',(#841,#842,#843,#844,#845));
#337=EDGE_LOOP('',(#846,#847,#848,#849,#850));
#338=EDGE_LOOP('',(#851));
#339=EDGE_LOOP('',(#852,#853,#854,#855));
#340=EDGE_LOOP('',(#856,#857,#858,#859));
#341=EDGE_LOOP('',(#860));
#342=EDGE_LOOP('',(#861));
#343=EDGE_LOOP('',(#862,#863,#864,#865));
#344=EDGE_LOOP('',(#866,#867,#868,#869));
#345=EDGE_LOOP('',(#870));
#346=EDGE_LOOP('',(#871));
#347=EDGE_LOOP('',(#872));
#348=EDGE_LOOP('',(#873));
#349=EDGE_LOOP('',(#874,#875,#876,#877));
#350=EDGE_LOOP('',(#878,#879,#880,#881));
#351=EDGE_LOOP('',(#882));
#352=EDGE_LOOP('',(#883));
#353=EDGE_LOOP('',(#884));
#354=EDGE_LOOP('',(#885,#886,#887,#888));
#355=EDGE_LOOP('',(#889));
#356=EDGE_LOOP('',(#890,#891,#892,#893));
#357=EDGE_LOOP('',(#894));
#358=EDGE_LOOP('',(#895,#896,#897,#898));
#359=EDGE_LOOP('',(#899));
#360=EDGE_LOOP('',(#900,#901,#902,#903));
#361=EDGE_LOOP('',(#904));
#362=EDGE_LOOP('',(#905,#906,#907,#908));
#363=EDGE_LOOP('',(#909));
#364=EDGE_LOOP('',(#910,#911,#912,#913));
#365=EDGE_LOOP('',(#914));
#366=EDGE_LOOP('',(#915,#916,#917,#918));
#367=EDGE_LOOP('',(#919));
#368=EDGE_LOOP('',(#920,#921,#922,#923));
#369=EDGE_LOOP('',(#924));
#370=EDGE_LOOP('',(#925,#926,#927,#928));
#371=EDGE_LOOP('',(#929,#930,#931,#932));
#372=EDGE_LOOP('',(#933,#934,#935,#936));
#373=EDGE_LOOP('',(#937,#938,#939,#940));
#374=EDGE_LOOP('',(#941,#942,#943,#944));
#375=EDGE_LOOP('',(#945));
#376=EDGE_LOOP('',(#946));
#377=EDGE_LOOP('',(#947));
#378=EDGE_LOOP('',(#948));
#379=EDGE_LOOP('',(#949));
#380=EDGE_LOOP('',(#950));
#381=EDGE_LOOP('',(#951));
#382=EDGE_LOOP('',(#952));
#383=EDGE_LOOP('',(#953));
#384=EDGE_LOOP('',(#954));
#385=EDGE_LOOP('',(#955));
#386=EDGE_LOOP('',(#956,#957,#958,#959));
#387=EDGE_LOOP('',(#960,#961,#962,#963));
#388=EDGE_LOOP('',(#964,#965,#966,#967,#968,#969,#970,#971));
#389=EDGE_LOOP('',(#972,#973,#974,#975));
#390=CIRCLE('',#1070,0.2);
#391=CIRCLE('',#1071,0.2);
#392=CIRCLE('',#1072,0.2);
#393=CIRCLE('',#1074,0.2);
#394=CIRCLE('',#1076,0.2);
#395=CIRCLE('',#1077,0.2);
#396=CIRCLE('',#1078,0.2);
#397=CIRCLE('',#1080,0.2);
#398=CIRCLE('',#1082,0.2);
#399=CIRCLE('',#1083,0.2);
#400=CIRCLE('',#1084,0.2);
#401=CIRCLE('',#1086,0.2);
#402=CIRCLE('',#1089,0.2);
#403=CIRCLE('',#1090,0.2);
#404=CIRCLE('',#1091,0.2);
#405=CIRCLE('',#1093,0.2);
#406=CIRCLE('',#1100,2.5);
#407=CIRCLE('',#1101,2.5);
#408=CIRCLE('',#1102,2.5);
#409=CIRCLE('',#1103,2.5);
#410=CIRCLE('',#1104,2.5);
#411=CIRCLE('',#1105,2.5);
#412=CIRCLE('',#1106,2.5);
#413=CIRCLE('',#1107,2.5);
#414=CIRCLE('',#1109,2.3);
#415=CIRCLE('',#1110,0.2);
#416=CIRCLE('',#1111,2.5);
#417=CIRCLE('',#1112,2.5);
#418=CIRCLE('',#1116,2.3);
#419=CIRCLE('',#1117,0.2);
#420=CIRCLE('',#1118,2.5);
#421=CIRCLE('',#1119,2.5);
#422=CIRCLE('',#1123,2.3);
#423=CIRCLE('',#1124,0.2);
#424=CIRCLE('',#1125,2.5);
#425=CIRCLE('',#1126,2.5);
#426=CIRCLE('',#1130,2.3);
#427=CIRCLE('',#1131,0.2);
#428=CIRCLE('',#1132,2.5);
#429=CIRCLE('',#1133,2.5);
#430=CIRCLE('',#1137,2.3);
#431=CIRCLE('',#1138,0.2);
#432=CIRCLE('',#1139,2.5);
#433=CIRCLE('',#1140,2.5);
#434=CIRCLE('',#1144,2.3);
#435=CIRCLE('',#1145,0.2);
#436=CIRCLE('',#1146,2.5);
#437=CIRCLE('',#1147,2.5);
#438=CIRCLE('',#1151,2.3);
#439=CIRCLE('',#1152,0.2);
#440=CIRCLE('',#1153,2.5);
#441=CIRCLE('',#1154,2.5);
#442=CIRCLE('',#1158,2.3);
#443=CIRCLE('',#1159,0.2);
#444=CIRCLE('',#1160,2.5);
#445=CIRCLE('',#1161,2.5);
#446=CIRCLE('',#1165,2.15);
#447=CIRCLE('',#1166,2.15);
#448=CIRCLE('',#1168,3.15);
#449=CIRCLE('',#1169,3.15);
#450=CIRCLE('',#1172,2.15);
#451=CIRCLE('',#1173,2.15);
#452=CIRCLE('',#1175,3.15);
#453=CIRCLE('',#1176,3.15);
#454=CIRCLE('',#1181,2.15);
#455=CIRCLE('',#1182,2.15);
#456=CIRCLE('',#1184,3.15);
#457=CIRCLE('',#1185,3.15);
#458=CIRCLE('',#1189,1.01);
#459=CIRCLE('',#1190,1.01);
#460=CIRCLE('',#1193,1.01);
#461=CIRCLE('',#1194,1.01);
#462=CIRCLE('',#1197,1.01);
#463=CIRCLE('',#1198,1.01);
#464=CIRCLE('',#1201,1.01);
#465=CIRCLE('',#1202,1.01);
#466=CIRCLE('',#1205,1.01);
#467=CIRCLE('',#1206,1.01);
#468=CIRCLE('',#1209,1.01);
#469=CIRCLE('',#1210,1.01);
#470=CIRCLE('',#1213,1.01);
#471=CIRCLE('',#1214,1.01);
#472=CIRCLE('',#1217,1.01);
#473=CIRCLE('',#1218,1.01);
#474=VERTEX_POINT('',#1604);
#475=VERTEX_POINT('',#1605);
#476=VERTEX_POINT('',#1607);
#477=VERTEX_POINT('',#1611);
#478=VERTEX_POINT('',#1612);
#479=VERTEX_POINT('',#1617);
#480=VERTEX_POINT('',#1618);
#481=VERTEX_POINT('',#1620);
#482=VERTEX_POINT('',#1624);
#483=VERTEX_POINT('',#1625);
#484=VERTEX_POINT('',#1630);
#485=VERTEX_POINT('',#1631);
#486=VERTEX_POINT('',#1633);
#487=VERTEX_POINT('',#1637);
#488=VERTEX_POINT('',#1638);
#489=VERTEX_POINT('',#1646);
#490=VERTEX_POINT('',#1647);
#491=VERTEX_POINT('',#1649);
#492=VERTEX_POINT('',#1653);
#493=VERTEX_POINT('',#1654);
#494=VERTEX_POINT('',#1672);
#495=VERTEX_POINT('',#1674);
#496=VERTEX_POINT('',#1676);
#497=VERTEX_POINT('',#1678);
#498=VERTEX_POINT('',#1680);
#499=VERTEX_POINT('',#1682);
#500=VERTEX_POINT('',#1684);
#501=VERTEX_POINT('',#1686);
#502=VERTEX_POINT('',#1689);
#503=VERTEX_POINT('',#1691);
#504=VERTEX_POINT('',#1693);
#505=VERTEX_POINT('',#1700);
#506=VERTEX_POINT('',#1702);
#507=VERTEX_POINT('',#1704);
#508=VERTEX_POINT('',#1711);
#509=VERTEX_POINT('',#1713);
#510=VERTEX_POINT('',#1715);
#511=VERTEX_POINT('',#1722);
#512=VERTEX_POINT('',#1724);
#513=VERTEX_POINT('',#1726);
#514=VERTEX_POINT('',#1733);
#515=VERTEX_POINT('',#1735);
#516=VERTEX_POINT('',#1737);
#517=VERTEX_POINT('',#1744);
#518=VERTEX_POINT('',#1746);
#519=VERTEX_POINT('',#1748);
#520=VERTEX_POINT('',#1755);
#521=VERTEX_POINT('',#1757);
#522=VERTEX_POINT('',#1759);
#523=VERTEX_POINT('',#1766);
#524=VERTEX_POINT('',#1768);
#525=VERTEX_POINT('',#1770);
#526=VERTEX_POINT('',#1777);
#527=VERTEX_POINT('',#1779);
#528=VERTEX_POINT('',#1783);
#529=VERTEX_POINT('',#1785);
#530=VERTEX_POINT('',#1790);
#531=VERTEX_POINT('',#1792);
#532=VERTEX_POINT('',#1796);
#533=VERTEX_POINT('',#1798);
#534=VERTEX_POINT('',#1805);
#535=VERTEX_POINT('',#1807);
#536=VERTEX_POINT('',#1811);
#537=VERTEX_POINT('',#1813);
#538=VERTEX_POINT('',#1819);
#539=VERTEX_POINT('',#1821);
#540=VERTEX_POINT('',#1826);
#541=VERTEX_POINT('',#1828);
#542=VERTEX_POINT('',#1833);
#543=VERTEX_POINT('',#1835);
#544=VERTEX_POINT('',#1840);
#545=VERTEX_POINT('',#1842);
#546=VERTEX_POINT('',#1847);
#547=VERTEX_POINT('',#1849);
#548=VERTEX_POINT('',#1854);
#549=VERTEX_POINT('',#1856);
#550=VERTEX_POINT('',#1861);
#551=VERTEX_POINT('',#1863);
#552=VERTEX_POINT('',#1868);
#553=VERTEX_POINT('',#1870);
#554=VERTEX_POINT('',#1875);
#555=VERTEX_POINT('',#1876);
#556=VERTEX_POINT('',#1878);
#557=VERTEX_POINT('',#1880);
#558=VERTEX_POINT('',#1884);
#559=VERTEX_POINT('',#1886);
#560=VERTEX_POINT('',#1890);
#561=VERTEX_POINT('',#1892);
#562=EDGE_CURVE('',#474,#475,#390,.F.);
#563=EDGE_CURVE('',#476,#474,#391,.F.);
#564=EDGE_CURVE('',#475,#476,#392,.F.);
#565=EDGE_CURVE('',#477,#478,#393,.T.);
#566=EDGE_CURVE('',#478,#476,#79,.T.);
#567=EDGE_CURVE('',#474,#477,#80,.T.);
#568=EDGE_CURVE('',#479,#480,#394,.F.);
#569=EDGE_CURVE('',#481,#479,#395,.F.);
#570=EDGE_CURVE('',#480,#481,#396,.F.);
#571=EDGE_CURVE('',#482,#483,#397,.T.);
#572=EDGE_CURVE('',#483,#481,#81,.T.);
#573=EDGE_CURVE('',#479,#482,#82,.T.);
#574=EDGE_CURVE('',#484,#485,#398,.F.);
#575=EDGE_CURVE('',#486,#484,#399,.F.);
#576=EDGE_CURVE('',#485,#486,#400,.F.);
#577=EDGE_CURVE('',#487,#488,#401,.T.);
#578=EDGE_CURVE('',#488,#486,#83,.T.);
#579=EDGE_CURVE('',#484,#487,#84,.T.);
#580=EDGE_CURVE('',#475,#485,#85,.T.);
#581=EDGE_CURVE('',#486,#474,#86,.T.);
#582=EDGE_CURVE('',#489,#490,#402,.F.);
#583=EDGE_CURVE('',#491,#489,#403,.F.);
#584=EDGE_CURVE('',#490,#491,#404,.F.);
#585=EDGE_CURVE('',#492,#493,#405,.T.);
#586=EDGE_CURVE('',#493,#491,#87,.T.);
#587=EDGE_CURVE('',#489,#492,#88,.T.);
#588=EDGE_CURVE('',#485,#490,#89,.T.);
#589=EDGE_CURVE('',#491,#484,#90,.T.);
#590=EDGE_CURVE('',#490,#480,#91,.T.);
#591=EDGE_CURVE('',#481,#489,#92,.T.);
#592=EDGE_CURVE('',#480,#475,#93,.T.);
#593=EDGE_CURVE('',#476,#479,#94,.T.);
#594=EDGE_CURVE('',#488,#477,#95,.T.);
#595=EDGE_CURVE('',#493,#487,#96,.T.);
#596=EDGE_CURVE('',#494,#494,#406,.T.);
#597=EDGE_CURVE('',#495,#495,#407,.T.);
#598=EDGE_CURVE('',#496,#496,#408,.T.);
#599=EDGE_CURVE('',#497,#497,#409,.T.);
#600=EDGE_CURVE('',#498,#498,#410,.T.);
#601=EDGE_CURVE('',#499,#499,#411,.T.);
#602=EDGE_CURVE('',#500,#500,#412,.T.);
#603=EDGE_CURVE('',#501,#501,#413,.T.);
#604=EDGE_CURVE('',#502,#502,#414,.T.);
#605=EDGE_CURVE('',#502,#503,#415,.T.);
#606=EDGE_CURVE('',#503,#504,#416,.T.);
#607=EDGE_CURVE('',#504,#503,#417,.T.);
#608=EDGE_CURVE('',#504,#495,#97,.T.);
#609=EDGE_CURVE('',#505,#505,#418,.T.);
#610=EDGE_CURVE('',#505,#506,#419,.T.);
#611=EDGE_CURVE('',#506,#507,#420,.T.);
#612=EDGE_CURVE('',#507,#506,#421,.T.);
#613=EDGE_CURVE('',#507,#497,#98,.T.);
#614=EDGE_CURVE('',#508,#508,#422,.T.);
#615=EDGE_CURVE('',#508,#509,#423,.T.);
#616=EDGE_CURVE('',#509,#510,#424,.T.);
#617=EDGE_CURVE('',#510,#509,#425,.T.);
#618=EDGE_CURVE('',#510,#499,#99,.T.);
#619=EDGE_CURVE('',#511,#511,#426,.T.);
#620=EDGE_CURVE('',#511,#512,#427,.T.);
#621=EDGE_CURVE('',#512,#513,#428,.T.);
#622=EDGE_CURVE('',#513,#512,#429,.T.);
#623=EDGE_CURVE('',#513,#501,#100,.T.);
#624=EDGE_CURVE('',#514,#514,#430,.T.);
#625=EDGE_CURVE('',#514,#515,#431,.T.);
#626=EDGE_CURVE('',#515,#516,#432,.T.);
#627=EDGE_CURVE('',#516,#515,#433,.T.);
#628=EDGE_CURVE('',#516,#500,#101,.T.);
#629=EDGE_CURVE('',#517,#517,#434,.T.);
#630=EDGE_CURVE('',#517,#518,#435,.T.);
#631=EDGE_CURVE('',#518,#519,#436,.T.);
#632=EDGE_CURVE('',#519,#518,#437,.T.);
#633=EDGE_CURVE('',#519,#498,#102,.T.);
#634=EDGE_CURVE('',#520,#520,#438,.T.);
#635=EDGE_CURVE('',#520,#521,#439,.T.);
#636=EDGE_CURVE('',#521,#522,#440,.T.);
#637=EDGE_CURVE('',#522,#521,#441,.T.);
#638=EDGE_CURVE('',#522,#496,#103,.T.);
#639=EDGE_CURVE('',#523,#523,#442,.T.);
#640=EDGE_CURVE('',#523,#524,#443,.T.);
#641=EDGE_CURVE('',#524,#525,#444,.T.);
#642=EDGE_CURVE('',#525,#524,#445,.T.);
#643=EDGE_CURVE('',#525,#494,#104,.T.);
#644=EDGE_CURVE('',#526,#526,#446,.T.);
#645=EDGE_CURVE('',#526,#527,#105,.T.);
#646=EDGE_CURVE('',#527,#527,#447,.T.);
#647=EDGE_CURVE('',#528,#528,#448,.T.);
#648=EDGE_CURVE('',#528,#529,#106,.T.);
#649=EDGE_CURVE('',#529,#529,#449,.T.);
#650=EDGE_CURVE('',#530,#530,#450,.T.);
#651=EDGE_CURVE('',#530,#531,#107,.T.);
#652=EDGE_CURVE('',#531,#531,#451,.T.);
#653=EDGE_CURVE('',#532,#532,#452,.T.);
#654=EDGE_CURVE('',#532,#533,#108,.T.);
#655=EDGE_CURVE('',#533,#533,#453,.T.);
#656=EDGE_CURVE('',#534,#534,#454,.T.);
#657=EDGE_CURVE('',#534,#535,#109,.T.);
#658=EDGE_CURVE('',#535,#535,#455,.T.);
#659=EDGE_CURVE('',#536,#536,#456,.T.);
#660=EDGE_CURVE('',#536,#537,#110,.T.);
#661=EDGE_CURVE('',#537,#537,#457,.T.);
#662=EDGE_CURVE('',#538,#538,#458,.T.);
#663=EDGE_CURVE('',#538,#539,#111,.T.);
#664=EDGE_CURVE('',#539,#539,#459,.F.);
#665=EDGE_CURVE('',#540,#540,#460,.T.);
#666=EDGE_CURVE('',#540,#541,#112,.T.);
#667=EDGE_CURVE('',#541,#541,#461,.F.);
#668=EDGE_CURVE('',#542,#542,#462,.T.);
#669=EDGE_CURVE('',#542,#543,#113,.T.);
#670=EDGE_CURVE('',#543,#543,#463,.F.);
#671=EDGE_CURVE('',#544,#544,#464,.T.);
#672=EDGE_CURVE('',#544,#545,#114,.T.);
#673=EDGE_CURVE('',#545,#545,#465,.F.);
#674=EDGE_CURVE('',#546,#546,#466,.T.);
#675=EDGE_CURVE('',#546,#547,#115,.T.);
#676=EDGE_CURVE('',#547,#547,#467,.F.);
#677=EDGE_CURVE('',#548,#548,#468,.T.);
#678=EDGE_CURVE('',#548,#549,#116,.T.);
#679=EDGE_CURVE('',#549,#549,#469,.F.);
#680=EDGE_CURVE('',#550,#550,#470,.T.);
#681=EDGE_CURVE('',#550,#551,#117,.T.);
#682=EDGE_CURVE('',#551,#551,#471,.F.);
#683=EDGE_CURVE('',#552,#552,#472,.T.);
#684=EDGE_CURVE('',#552,#553,#118,.T.);
#685=EDGE_CURVE('',#553,#553,#473,.F.);
#686=EDGE_CURVE('',#554,#555,#119,.T.);
#687=EDGE_CURVE('',#554,#556,#120,.F.);
#688=EDGE_CURVE('',#556,#557,#121,.F.);
#689=EDGE_CURVE('',#555,#557,#122,.T.);
#690=EDGE_CURVE('',#558,#554,#123,.T.);
#691=EDGE_CURVE('',#558,#559,#124,.F.);
#692=EDGE_CURVE('',#559,#556,#125,.F.);
#693=EDGE_CURVE('',#560,#558,#126,.T.);
#694=EDGE_CURVE('',#560,#561,#127,.F.);
#695=EDGE_CURVE('',#561,#559,#128,.F.);
#696=EDGE_CURVE('',#555,#560,#129,.T.);
#697=EDGE_CURVE('',#557,#561,#130,.F.);
#698=EDGE_CURVE('',#483,#492,#131,.T.);
#699=EDGE_CURVE('',#478,#482,#132,.T.);
#700=ORIENTED_EDGE('',*,*,#562,.F.);
#701=ORIENTED_EDGE('',*,*,#563,.F.);
#702=ORIENTED_EDGE('',*,*,#564,.F.);
#703=ORIENTED_EDGE('',*,*,#565,.T.);
#704=ORIENTED_EDGE('',*,*,#566,.T.);
#705=ORIENTED_EDGE('',*,*,#563,.T.);
#706=ORIENTED_EDGE('',*,*,#567,.T.);
#707=ORIENTED_EDGE('',*,*,#568,.F.);
#708=ORIENTED_EDGE('',*,*,#569,.F.);
#709=ORIENTED_EDGE('',*,*,#570,.F.);
#710=ORIENTED_EDGE('',*,*,#571,.T.);
#711=ORIENTED_EDGE('',*,*,#572,.T.);
#712=ORIENTED_EDGE('',*,*,#569,.T.);
#713=ORIENTED_EDGE('',*,*,#573,.T.);
#714=ORIENTED_EDGE('',*,*,#574,.F.);
#715=ORIENTED_EDGE('',*,*,#575,.F.);
#716=ORIENTED_EDGE('',*,*,#576,.F.);
#717=ORIENTED_EDGE('',*,*,#577,.T.);
#718=ORIENTED_EDGE('',*,*,#578,.T.);
#719=ORIENTED_EDGE('',*,*,#575,.T.);
#720=ORIENTED_EDGE('',*,*,#579,.T.);
#721=ORIENTED_EDGE('',*,*,#562,.T.);
#722=ORIENTED_EDGE('',*,*,#580,.T.);
#723=ORIENTED_EDGE('',*,*,#576,.T.);
#724=ORIENTED_EDGE('',*,*,#581,.T.);
#725=ORIENTED_EDGE('',*,*,#582,.F.);
#726=ORIENTED_EDGE('',*,*,#583,.F.);
#727=ORIENTED_EDGE('',*,*,#584,.F.);
#728=ORIENTED_EDGE('',*,*,#585,.T.);
#729=ORIENTED_EDGE('',*,*,#586,.T.);
#730=ORIENTED_EDGE('',*,*,#583,.T.);
#731=ORIENTED_EDGE('',*,*,#587,.T.);
#732=ORIENTED_EDGE('',*,*,#574,.T.);
#733=ORIENTED_EDGE('',*,*,#588,.T.);
#734=ORIENTED_EDGE('',*,*,#584,.T.);
#735=ORIENTED_EDGE('',*,*,#589,.T.);
#736=ORIENTED_EDGE('',*,*,#582,.T.);
#737=ORIENTED_EDGE('',*,*,#590,.T.);
#738=ORIENTED_EDGE('',*,*,#570,.T.);
#739=ORIENTED_EDGE('',*,*,#591,.T.);
#740=ORIENTED_EDGE('',*,*,#568,.T.);
#741=ORIENTED_EDGE('',*,*,#592,.T.);
#742=ORIENTED_EDGE('',*,*,#564,.T.);
#743=ORIENTED_EDGE('',*,*,#593,.T.);
#744=ORIENTED_EDGE('',*,*,#567,.F.);
#745=ORIENTED_EDGE('',*,*,#581,.F.);
#746=ORIENTED_EDGE('',*,*,#578,.F.);
#747=ORIENTED_EDGE('',*,*,#594,.T.);
#748=ORIENTED_EDGE('',*,*,#579,.F.);
#749=ORIENTED_EDGE('',*,*,#589,.F.);
#750=ORIENTED_EDGE('',*,*,#586,.F.);
#751=ORIENTED_EDGE('',*,*,#595,.T.);
#752=ORIENTED_EDGE('',*,*,#580,.F.);
#753=ORIENTED_EDGE('',*,*,#592,.F.);
#754=ORIENTED_EDGE('',*,*,#590,.F.);
#755=ORIENTED_EDGE('',*,*,#588,.F.);
#756=ORIENTED_EDGE('',*,*,#596,.T.);
#757=ORIENTED_EDGE('',*,*,#597,.T.);
#758=ORIENTED_EDGE('',*,*,#598,.T.);
#759=ORIENTED_EDGE('',*,*,#599,.T.);
#760=ORIENTED_EDGE('',*,*,#600,.T.);
#761=ORIENTED_EDGE('',*,*,#601,.T.);
#762=ORIENTED_EDGE('',*,*,#602,.T.);
#763=ORIENTED_EDGE('',*,*,#603,.T.);
#764=ORIENTED_EDGE('',*,*,#604,.T.);
#765=ORIENTED_EDGE('',*,*,#605,.T.);
#766=ORIENTED_EDGE('',*,*,#606,.T.);
#767=ORIENTED_EDGE('',*,*,#607,.T.);
#768=ORIENTED_EDGE('',*,*,#605,.F.);
#769=ORIENTED_EDGE('',*,*,#607,.F.);
#770=ORIENTED_EDGE('',*,*,#608,.T.);
#771=ORIENTED_EDGE('',*,*,#597,.F.);
#772=ORIENTED_EDGE('',*,*,#608,.F.);
#773=ORIENTED_EDGE('',*,*,#606,.F.);
#774=ORIENTED_EDGE('',*,*,#604,.F.);
#775=ORIENTED_EDGE('',*,*,#609,.T.);
#776=ORIENTED_EDGE('',*,*,#610,.T.);
#777=ORIENTED_EDGE('',*,*,#611,.T.);
#778=ORIENTED_EDGE('',*,*,#612,.T.);
#779=ORIENTED_EDGE('',*,*,#610,.F.);
#780=ORIENTED_EDGE('',*,*,#612,.F.);
#781=ORIENTED_EDGE('',*,*,#613,.T.);
#782=ORIENTED_EDGE('',*,*,#599,.F.);
#783=ORIENTED_EDGE('',*,*,#613,.F.);
#784=ORIENTED_EDGE('',*,*,#611,.F.);
#785=ORIENTED_EDGE('',*,*,#609,.F.);
#786=ORIENTED_EDGE('',*,*,#614,.T.);
#787=ORIENTED_EDGE('',*,*,#615,.T.);
#788=ORIENTED_EDGE('',*,*,#616,.T.);
#789=ORIENTED_EDGE('',*,*,#617,.T.);
#790=ORIENTED_EDGE('',*,*,#615,.F.);
#791=ORIENTED_EDGE('',*,*,#617,.F.);
#792=ORIENTED_EDGE('',*,*,#618,.T.);
#793=ORIENTED_EDGE('',*,*,#601,.F.);
#794=ORIENTED_EDGE('',*,*,#618,.F.);
#795=ORIENTED_EDGE('',*,*,#616,.F.);
#796=ORIENTED_EDGE('',*,*,#614,.F.);
#797=ORIENTED_EDGE('',*,*,#619,.T.);
#798=ORIENTED_EDGE('',*,*,#620,.T.);
#799=ORIENTED_EDGE('',*,*,#621,.T.);
#800=ORIENTED_EDGE('',*,*,#622,.T.);
#801=ORIENTED_EDGE('',*,*,#620,.F.);
#802=ORIENTED_EDGE('',*,*,#622,.F.);
#803=ORIENTED_EDGE('',*,*,#623,.T.);
#804=ORIENTED_EDGE('',*,*,#603,.F.);
#805=ORIENTED_EDGE('',*,*,#623,.F.);
#806=ORIENTED_EDGE('',*,*,#621,.F.);
#807=ORIENTED_EDGE('',*,*,#619,.F.);
#808=ORIENTED_EDGE('',*,*,#624,.T.);
#809=ORIENTED_EDGE('',*,*,#625,.T.);
#810=ORIENTED_EDGE('',*,*,#626,.T.);
#811=ORIENTED_EDGE('',*,*,#627,.T.);
#812=ORIENTED_EDGE('',*,*,#625,.F.);
#813=ORIENTED_EDGE('',*,*,#627,.F.);
#814=ORIENTED_EDGE('',*,*,#628,.T.);
#815=ORIENTED_EDGE('',*,*,#602,.F.);
#816=ORIENTED_EDGE('',*,*,#628,.F.);
#817=ORIENTED_EDGE('',*,*,#626,.F.);
#818=ORIENTED_EDGE('',*,*,#624,.F.);
#819=ORIENTED_EDGE('',*,*,#629,.T.);
#820=ORIENTED_EDGE('',*,*,#630,.T.);
#821=ORIENTED_EDGE('',*,*,#631,.T.);
#822=ORIENTED_EDGE('',*,*,#632,.T.);
#823=ORIENTED_EDGE('',*,*,#630,.F.);
#824=ORIENTED_EDGE('',*,*,#632,.F.);
#825=ORIENTED_EDGE('',*,*,#633,.T.);
#826=ORIENTED_EDGE('',*,*,#600,.F.);
#827=ORIENTED_EDGE('',*,*,#633,.F.);
#828=ORIENTED_EDGE('',*,*,#631,.F.);
#829=ORIENTED_EDGE('',*,*,#629,.F.);
#830=ORIENTED_EDGE('',*,*,#634,.T.);
#831=ORIENTED_EDGE('',*,*,#635,.T.);
#832=ORIENTED_EDGE('',*,*,#636,.T.);
#833=ORIENTED_EDGE('',*,*,#637,.T.);
#834=ORIENTED_EDGE('',*,*,#635,.F.);
#835=ORIENTED_EDGE('',*,*,#637,.F.);
#836=ORIENTED_EDGE('',*,*,#638,.T.);
#837=ORIENTED_EDGE('',*,*,#598,.F.);
#838=ORIENTED_EDGE('',*,*,#638,.F.);
#839=ORIENTED_EDGE('',*,*,#636,.F.);
#840=ORIENTED_EDGE('',*,*,#634,.F.);
#841=ORIENTED_EDGE('',*,*,#639,.T.);
#842=ORIENTED_EDGE('',*,*,#640,.T.);
#843=ORIENTED_EDGE('',*,*,#641,.T.);
#844=ORIENTED_EDGE('',*,*,#642,.T.);
#845=ORIENTED_EDGE('',*,*,#640,.F.);
#846=ORIENTED_EDGE('',*,*,#642,.F.);
#847=ORIENTED_EDGE('',*,*,#643,.T.);
#848=ORIENTED_EDGE('',*,*,#596,.F.);
#849=ORIENTED_EDGE('',*,*,#643,.F.);
#850=ORIENTED_EDGE('',*,*,#641,.F.);
#851=ORIENTED_EDGE('',*,*,#639,.F.);
#852=ORIENTED_EDGE('',*,*,#644,.F.);
#853=ORIENTED_EDGE('',*,*,#645,.T.);
#854=ORIENTED_EDGE('',*,*,#646,.F.);
#855=ORIENTED_EDGE('',*,*,#645,.F.);
#856=ORIENTED_EDGE('',*,*,#647,.F.);
#857=ORIENTED_EDGE('',*,*,#648,.T.);
#858=ORIENTED_EDGE('',*,*,#649,.F.);
#859=ORIENTED_EDGE('',*,*,#648,.F.);
#860=ORIENTED_EDGE('',*,*,#647,.T.);
#861=ORIENTED_EDGE('',*,*,#644,.T.);
#862=ORIENTED_EDGE('',*,*,#650,.F.);
#863=ORIENTED_EDGE('',*,*,#651,.T.);
#864=ORIENTED_EDGE('',*,*,#652,.F.);
#865=ORIENTED_EDGE('',*,*,#651,.F.);
#866=ORIENTED_EDGE('',*,*,#653,.F.);
#867=ORIENTED_EDGE('',*,*,#654,.T.);
#868=ORIENTED_EDGE('',*,*,#655,.F.);
#869=ORIENTED_EDGE('',*,*,#654,.F.);
#870=ORIENTED_EDGE('',*,*,#653,.T.);
#871=ORIENTED_EDGE('',*,*,#650,.T.);
#872=ORIENTED_EDGE('',*,*,#652,.T.);
#873=ORIENTED_EDGE('',*,*,#646,.T.);
#874=ORIENTED_EDGE('',*,*,#656,.F.);
#875=ORIENTED_EDGE('',*,*,#657,.T.);
#876=ORIENTED_EDGE('',*,*,#658,.F.);
#877=ORIENTED_EDGE('',*,*,#657,.F.);
#878=ORIENTED_EDGE('',*,*,#659,.F.);
#879=ORIENTED_EDGE('',*,*,#660,.T.);
#880=ORIENTED_EDGE('',*,*,#661,.F.);
#881=ORIENTED_EDGE('',*,*,#660,.F.);
#882=ORIENTED_EDGE('',*,*,#659,.T.);
#883=ORIENTED_EDGE('',*,*,#656,.T.);
#884=ORIENTED_EDGE('',*,*,#658,.T.);
#885=ORIENTED_EDGE('',*,*,#662,.T.);
#886=ORIENTED_EDGE('',*,*,#663,.T.);
#887=ORIENTED_EDGE('',*,*,#664,.T.);
#888=ORIENTED_EDGE('',*,*,#663,.F.);
#889=ORIENTED_EDGE('',*,*,#664,.F.);
#890=ORIENTED_EDGE('',*,*,#665,.T.);
#891=ORIENTED_EDGE('',*,*,#666,.T.);
#892=ORIENTED_EDGE('',*,*,#667,.T.);
#893=ORIENTED_EDGE('',*,*,#666,.F.);
#894=ORIENTED_EDGE('',*,*,#667,.F.);
#895=ORIENTED_EDGE('',*,*,#668,.T.);
#896=ORIENTED_EDGE('',*,*,#669,.T.);
#897=ORIENTED_EDGE('',*,*,#670,.T.);
#898=ORIENTED_EDGE('',*,*,#669,.F.);
#899=ORIENTED_EDGE('',*,*,#670,.F.);
#900=ORIENTED_EDGE('',*,*,#671,.T.);
#901=ORIENTED_EDGE('',*,*,#672,.T.);
#902=ORIENTED_EDGE('',*,*,#673,.T.);
#903=ORIENTED_EDGE('',*,*,#672,.F.);
#904=ORIENTED_EDGE('',*,*,#673,.F.);
#905=ORIENTED_EDGE('',*,*,#674,.T.);
#906=ORIENTED_EDGE('',*,*,#675,.T.);
#907=ORIENTED_EDGE('',*,*,#676,.T.);
#908=ORIENTED_EDGE('',*,*,#675,.F.);
#909=ORIENTED_EDGE('',*,*,#676,.F.);
#910=ORIENTED_EDGE('',*,*,#677,.T.);
#911=ORIENTED_EDGE('',*,*,#678,.T.);
#912=ORIENTED_EDGE('',*,*,#679,.T.);
#913=ORIENTED_EDGE('',*,*,#678,.F.);
#914=ORIENTED_EDGE('',*,*,#679,.F.);
#915=ORIENTED_EDGE('',*,*,#680,.T.);
#916=ORIENTED_EDGE('',*,*,#681,.T.);
#917=ORIENTED_EDGE('',*,*,#682,.T.);
#918=ORIENTED_EDGE('',*,*,#681,.F.);
#919=ORIENTED_EDGE('',*,*,#682,.F.);
#920=ORIENTED_EDGE('',*,*,#683,.T.);
#921=ORIENTED_EDGE('',*,*,#684,.T.);
#922=ORIENTED_EDGE('',*,*,#685,.T.);
#923=ORIENTED_EDGE('',*,*,#684,.F.);
#924=ORIENTED_EDGE('',*,*,#685,.F.);
#925=ORIENTED_EDGE('',*,*,#686,.F.);
#926=ORIENTED_EDGE('',*,*,#687,.T.);
#927=ORIENTED_EDGE('',*,*,#688,.T.);
#928=ORIENTED_EDGE('',*,*,#689,.F.);
#929=ORIENTED_EDGE('',*,*,#690,.F.);
#930=ORIENTED_EDGE('',*,*,#691,.T.);
#931=ORIENTED_EDGE('',*,*,#692,.T.);
#932=ORIENTED_EDGE('',*,*,#687,.F.);
#933=ORIENTED_EDGE('',*,*,#693,.F.);
#934=ORIENTED_EDGE('',*,*,#694,.T.);
#935=ORIENTED_EDGE('',*,*,#695,.T.);
#936=ORIENTED_EDGE('',*,*,#691,.F.);
#937=ORIENTED_EDGE('',*,*,#696,.F.);
#938=ORIENTED_EDGE('',*,*,#689,.T.);
#939=ORIENTED_EDGE('',*,*,#697,.T.);
#940=ORIENTED_EDGE('',*,*,#694,.F.);
#941=ORIENTED_EDGE('',*,*,#697,.F.);
#942=ORIENTED_EDGE('',*,*,#688,.F.);
#943=ORIENTED_EDGE('',*,*,#692,.F.);
#944=ORIENTED_EDGE('',*,*,#695,.F.);
#945=ORIENTED_EDGE('',*,*,#661,.T.);
#946=ORIENTED_EDGE('',*,*,#683,.F.);
#947=ORIENTED_EDGE('',*,*,#680,.F.);
#948=ORIENTED_EDGE('',*,*,#677,.F.);
#949=ORIENTED_EDGE('',*,*,#674,.F.);
#950=ORIENTED_EDGE('',*,*,#671,.F.);
#951=ORIENTED_EDGE('',*,*,#668,.F.);
#952=ORIENTED_EDGE('',*,*,#665,.F.);
#953=ORIENTED_EDGE('',*,*,#662,.F.);
#954=ORIENTED_EDGE('',*,*,#655,.T.);
#955=ORIENTED_EDGE('',*,*,#649,.T.);
#956=ORIENTED_EDGE('',*,*,#572,.F.);
#957=ORIENTED_EDGE('',*,*,#698,.T.);
#958=ORIENTED_EDGE('',*,*,#587,.F.);
#959=ORIENTED_EDGE('',*,*,#591,.F.);
#960=ORIENTED_EDGE('',*,*,#566,.F.);
#961=ORIENTED_EDGE('',*,*,#699,.T.);
#962=ORIENTED_EDGE('',*,*,#573,.F.);
#963=ORIENTED_EDGE('',*,*,#593,.F.);
#964=ORIENTED_EDGE('',*,*,#565,.F.);
#965=ORIENTED_EDGE('',*,*,#594,.F.);
#966=ORIENTED_EDGE('',*,*,#577,.F.);
#967=ORIENTED_EDGE('',*,*,#595,.F.);
#968=ORIENTED_EDGE('',*,*,#585,.F.);
#969=ORIENTED_EDGE('',*,*,#698,.F.);
#970=ORIENTED_EDGE('',*,*,#571,.F.);
#971=ORIENTED_EDGE('',*,*,#699,.F.);
#972=ORIENTED_EDGE('',*,*,#686,.T.);
#973=ORIENTED_EDGE('',*,*,#696,.T.);
#974=ORIENTED_EDGE('',*,*,#693,.T.);
#975=ORIENTED_EDGE('',*,*,#690,.T.);
#976=SPHERICAL_SURFACE('',#1069,0.2);
#977=SPHERICAL_SURFACE('',#1075,0.2);
#978=SPHERICAL_SURFACE('',#1081,0.2);
#979=SPHERICAL_SURFACE('',#1088,0.2);
#980=ADVANCED_FACE('',(#217),#976,.T.);
#981=ADVANCED_FACE('',(#218),#187,.T.);
#982=ADVANCED_FACE('',(#219),#977,.T.);
#983=ADVANCED_FACE('',(#220),#188,.T.);
#984=ADVANCED_FACE('',(#221),#978,.T.);
#985=ADVANCED_FACE('',(#222),#189,.T.);
#986=ADVANCED_FACE('',(#223),#190,.T.);
#987=ADVANCED_FACE('',(#224),#979,.T.);
#988=ADVANCED_FACE('',(#225),#191,.T.);
#989=ADVANCED_FACE('',(#226),#192,.T.);
#990=ADVANCED_FACE('',(#227),#193,.T.);
#991=ADVANCED_FACE('',(#228),#194,.T.);
#992=ADVANCED_FACE('',(#229),#46,.T.);
#993=ADVANCED_FACE('',(#230),#47,.T.);
#994=ADVANCED_FACE('',(#231,#23,#24,#25,#26,#27,#28,#29,#30),#48,.T.);
#995=ADVANCED_FACE('',(#232),#15,.T.);
#996=ADVANCED_FACE('',(#233),#195,.T.);
#997=ADVANCED_FACE('',(#234),#49,.T.);
#998=ADVANCED_FACE('',(#235),#16,.T.);
#999=ADVANCED_FACE('',(#236),#196,.T.);
#1000=ADVANCED_FACE('',(#237),#50,.T.);
#1001=ADVANCED_FACE('',(#238),#17,.T.);
#1002=ADVANCED_FACE('',(#239),#197,.T.);
#1003=ADVANCED_FACE('',(#240),#51,.T.);
#1004=ADVANCED_FACE('',(#241),#18,.T.);
#1005=ADVANCED_FACE('',(#242),#198,.T.);
#1006=ADVANCED_FACE('',(#243),#52,.T.);
#1007=ADVANCED_FACE('',(#244),#19,.T.);
#1008=ADVANCED_FACE('',(#245),#199,.T.);
#1009=ADVANCED_FACE('',(#246),#53,.T.);
#1010=ADVANCED_FACE('',(#247),#20,.T.);
#1011=ADVANCED_FACE('',(#248),#200,.T.);
#1012=ADVANCED_FACE('',(#249),#54,.T.);
#1013=ADVANCED_FACE('',(#250),#21,.T.);
#1014=ADVANCED_FACE('',(#251),#201,.T.);
#1015=ADVANCED_FACE('',(#252),#55,.T.);
#1016=ADVANCED_FACE('',(#253),#22,.T.);
#1017=ADVANCED_FACE('',(#254),#202,.T.);
#1018=ADVANCED_FACE('',(#255),#56,.T.);
#1019=ADVANCED_FACE('',(#256),#203,.F.);
#1020=ADVANCED_FACE('',(#257),#204,.T.);
#1021=ADVANCED_FACE('',(#258,#31),#57,.T.);
#1022=ADVANCED_FACE('',(#259),#205,.F.);
#1023=ADVANCED_FACE('',(#260),#206,.T.);
#1024=ADVANCED_FACE('',(#261,#32),#58,.T.);
#1025=ADVANCED_FACE('',(#262),#59,.F.);
#1026=ADVANCED_FACE('',(#263),#60,.F.);
#1027=ADVANCED_FACE('',(#264),#207,.F.);
#1028=ADVANCED_FACE('',(#265),#208,.T.);
#1029=ADVANCED_FACE('',(#266,#33),#61,.T.);
#1030=ADVANCED_FACE('',(#267),#62,.F.);
#1031=ADVANCED_FACE('',(#268),#209,.F.);
#1032=ADVANCED_FACE('',(#269),#63,.F.);
#1033=ADVANCED_FACE('',(#270),#210,.F.);
#1034=ADVANCED_FACE('',(#271),#64,.F.);
#1035=ADVANCED_FACE('',(#272),#211,.F.);
#1036=ADVANCED_FACE('',(#273),#65,.F.);
#1037=ADVANCED_FACE('',(#274),#212,.F.);
#1038=ADVANCED_FACE('',(#275),#66,.F.);
#1039=ADVANCED_FACE('',(#276),#213,.F.);
#1040=ADVANCED_FACE('',(#277),#67,.F.);
#1041=ADVANCED_FACE('',(#278),#214,.F.);
#1042=ADVANCED_FACE('',(#279),#68,.F.);
#1043=ADVANCED_FACE('',(#280),#215,.F.);
#1044=ADVANCED_FACE('',(#281),#69,.F.);
#1045=ADVANCED_FACE('',(#282),#216,.F.);
#1046=ADVANCED_FACE('',(#283),#70,.F.);
#1047=ADVANCED_FACE('',(#284),#71,.F.);
#1048=ADVANCED_FACE('',(#285),#72,.F.);
#1049=ADVANCED_FACE('',(#286),#73,.F.);
#1050=ADVANCED_FACE('',(#287),#74,.F.);
#1051=ADVANCED_FACE('',(#288,#34,#35,#36,#37,#38,#39,#40,#41,#42,#43,#44),
#75,.F.);
#1052=ADVANCED_FACE('',(#289),#76,.T.);
#1053=ADVANCED_FACE('',(#290),#77,.T.);
#1054=ADVANCED_FACE('',(#291,#45),#78,.F.);
#1055=CLOSED_SHELL('',(#980,#981,#982,#983,#984,#985,#986,#987,#988,#989,
#990,#991,#992,#993,#994,#995,#996,#997,#998,#999,#1000,#1001,#1002,#1003,
#1004,#1005,#1006,#1007,#1008,#1009,#1010,#1011,#1012,#1013,#1014,#1015,
#1016,#1017,#1018,#1019,#1020,#1021,#1022,#1023,#1024,#1025,#1026,#1027,
#1028,#1029,#1030,#1031,#1032,#1033,#1034,#1035,#1036,#1037,#1038,#1039,
#1040,#1041,#1042,#1043,#1044,#1045,#1046,#1047,#1048,#1049,#1050,#1051,
#1052,#1053,#1054));
#1056=DERIVED_UNIT_ELEMENT(#1058,1.);
#1057=DERIVED_UNIT_ELEMENT(#1909,-3.);
#1058=(
MASS_UNIT()
NAMED_UNIT(*)
SI_UNIT(.KILO.,.GRAM.)
);
#1059=DERIVED_UNIT((#1056,#1057));
#1060=MEASURE_REPRESENTATION_ITEM('density measure',
POSITIVE_RATIO_MEASURE(7850.),#1059);
#1061=PROPERTY_DEFINITION_REPRESENTATION(#1066,#1063);
#1062=PROPERTY_DEFINITION_REPRESENTATION(#1067,#1064);
#1063=REPRESENTATION('material name',(#1065),#1906);
#1064=REPRESENTATION('density',(#1060),#1906);
#1065=DESCRIPTIVE_REPRESENTATION_ITEM('Steel','Steel');
#1066=PROPERTY_DEFINITION('material property','material name',#1916);
#1067=PROPERTY_DEFINITION('material property','density of part',#1916);
#1068=AXIS2_PLACEMENT_3D('',#1602,#1228,#1229);
#1069=AXIS2_PLACEMENT_3D('',#1603,#1230,#1231);
#1070=AXIS2_PLACEMENT_3D('',#1606,#1232,#1233);
#1071=AXIS2_PLACEMENT_3D('',#1608,#1234,#1235);
#1072=AXIS2_PLACEMENT_3D('',#1609,#1236,#1237);
#1073=AXIS2_PLACEMENT_3D('',#1610,#1238,#1239);
#1074=AXIS2_PLACEMENT_3D('',#1613,#1240,#1241);
#1075=AXIS2_PLACEMENT_3D('',#1616,#1244,#1245);
#1076=AXIS2_PLACEMENT_3D('',#1619,#1246,#1247);
#1077=AXIS2_PLACEMENT_3D('',#1621,#1248,#1249);
#1078=AXIS2_PLACEMENT_3D('',#1622,#1250,#1251);
#1079=AXIS2_PLACEMENT_3D('',#1623,#1252,#1253);
#1080=AXIS2_PLACEMENT_3D('',#1626,#1254,#1255);
#1081=AXIS2_PLACEMENT_3D('',#1629,#1258,#1259);
#1082=AXIS2_PLACEMENT_3D('',#1632,#1260,#1261);
#1083=AXIS2_PLACEMENT_3D('',#1634,#1262,#1263);
#1084=AXIS2_PLACEMENT_3D('',#1635,#1264,#1265);
#1085=AXIS2_PLACEMENT_3D('',#1636,#1266,#1267);
#1086=AXIS2_PLACEMENT_3D('',#1639,#1268,#1269);
#1087=AXIS2_PLACEMENT_3D('',#1642,#1272,#1273);
#1088=AXIS2_PLACEMENT_3D('',#1645,#1276,#1277);
#1089=AXIS2_PLACEMENT_3D('',#1648,#1278,#1279);
#1090=AXIS2_PLACEMENT_3D('',#1650,#1280,#1281);
#1091=AXIS2_PLACEMENT_3D('',#1651,#1282,#1283);
#1092=AXIS2_PLACEMENT_3D('',#1652,#1284,#1285);
#1093=AXIS2_PLACEMENT_3D('',#1655,#1286,#1287);
#1094=AXIS2_PLACEMENT_3D('',#1658,#1290,#1291);
#1095=AXIS2_PLACEMENT_3D('',#1661,#1294,#1295);
#1096=AXIS2_PLACEMENT_3D('',#1664,#1298,#1299);
#1097=AXIS2_PLACEMENT_3D('',#1667,#1302,#1303);
#1098=AXIS2_PLACEMENT_3D('',#1669,#1305,#1306);
#1099=AXIS2_PLACEMENT_3D('',#1671,#1308,#1309);
#1100=AXIS2_PLACEMENT_3D('',#1673,#1310,#1311);
#1101=AXIS2_PLACEMENT_3D('',#1675,#1312,#1313);
#1102=AXIS2_PLACEMENT_3D('',#1677,#1314,#1315);
#1103=AXIS2_PLACEMENT_3D('',#1679,#1316,#1317);
#1104=AXIS2_PLACEMENT_3D('',#1681,#1318,#1319);
#1105=AXIS2_PLACEMENT_3D('',#1683,#1320,#1321);
#1106=AXIS2_PLACEMENT_3D('',#1685,#1322,#1323);
#1107=AXIS2_PLACEMENT_3D('',#1687,#1324,#1325);
#1108=AXIS2_PLACEMENT_3D('',#1688,#1326,#1327);
#1109=AXIS2_PLACEMENT_3D('',#1690,#1328,#1329);
#1110=AXIS2_PLACEMENT_3D('',#1692,#1330,#1331);
#1111=AXIS2_PLACEMENT_3D('',#1694,#1332,#1333);
#1112=AXIS2_PLACEMENT_3D('',#1695,#1334,#1335);
#1113=AXIS2_PLACEMENT_3D('',#1696,#1336,#1337);
#1114=AXIS2_PLACEMENT_3D('',#1698,#1339,#1340);
#1115=AXIS2_PLACEMENT_3D('',#1699,#1341,#1342);
#1116=AXIS2_PLACEMENT_3D('',#1701,#1343,#1344);
#1117=AXIS2_PLACEMENT_3D('',#1703,#1345,#1346);
#1118=AXIS2_PLACEMENT_3D('',#1705,#1347,#1348);
#1119=AXIS2_PLACEMENT_3D('',#1706,#1349,#1350);
#1120=AXIS2_PLACEMENT_3D('',#1707,#1351,#1352);
#1121=AXIS2_PLACEMENT_3D('',#1709,#1354,#1355);
#1122=AXIS2_PLACEMENT_3D('',#1710,#1356,#1357);
#1123=AXIS2_PLACEMENT_3D('',#1712,#1358,#1359);
#1124=AXIS2_PLACEMENT_3D('',#1714,#1360,#1361);
#1125=AXIS2_PLACEMENT_3D('',#1716,#1362,#1363);
#1126=AXIS2_PLACEMENT_3D('',#1717,#1364,#1365);
#1127=AXIS2_PLACEMENT_3D('',#1718,#1366,#1367);
#1128=AXIS2_PLACEMENT_3D('',#1720,#1369,#1370);
#1129=AXIS2_PLACEMENT_3D('',#1721,#1371,#1372);
#1130=AXIS2_PLACEMENT_3D('',#1723,#1373,#1374);
#1131=AXIS2_PLACEMENT_3D('',#1725,#1375,#1376);
#1132=AXIS2_PLACEMENT_3D('',#1727,#1377,#1378);
#1133=AXIS2_PLACEMENT_3D('',#1728,#1379,#1380);
#1134=AXIS2_PLACEMENT_3D('',#1729,#1381,#1382);
#1135=AXIS2_PLACEMENT_3D('',#1731,#1384,#1385);
#1136=AXIS2_PLACEMENT_3D('',#1732,#1386,#1387);
#1137=AXIS2_PLACEMENT_3D('',#1734,#1388,#1389);
#1138=AXIS2_PLACEMENT_3D('',#1736,#1390,#1391);
#1139=AXIS2_PLACEMENT_3D('',#1738,#1392,#1393);
#1140=AXIS2_PLACEMENT_3D('',#1739,#1394,#1395);
#1141=AXIS2_PLACEMENT_3D('',#1740,#1396,#1397);
#1142=AXIS2_PLACEMENT_3D('',#1742,#1399,#1400);
#1143=AXIS2_PLACEMENT_3D('',#1743,#1401,#1402);
#1144=AXIS2_PLACEMENT_3D('',#1745,#1403,#1404);
#1145=AXIS2_PLACEMENT_3D('',#1747,#1405,#1406);
#1146=AXIS2_PLACEMENT_3D('',#1749,#1407,#1408);
#1147=AXIS2_PLACEMENT_3D('',#1750,#1409,#1410);
#1148=AXIS2_PLACEMENT_3D('',#1751,#1411,#1412);
#1149=AXIS2_PLACEMENT_3D('',#1753,#1414,#1415);
#1150=AXIS2_PLACEMENT_3D('',#1754,#1416,#1417);
#1151=AXIS2_PLACEMENT_3D('',#1756,#1418,#1419);
#1152=AXIS2_PLACEMENT_3D('',#1758,#1420,#1421);
#1153=AXIS2_PLACEMENT_3D('',#1760,#1422,#1423);
#1154=AXIS2_PLACEMENT_3D('',#1761,#1424,#1425);
#1155=AXIS2_PLACEMENT_3D('',#1762,#1426,#1427);
#1156=AXIS2_PLACEMENT_3D('',#1764,#1429,#1430);
#1157=AXIS2_PLACEMENT_3D('',#1765,#1431,#1432);
#1158=AXIS2_PLACEMENT_3D('',#1767,#1433,#1434);
#1159=AXIS2_PLACEMENT_3D('',#1769,#1435,#1436);
#1160=AXIS2_PLACEMENT_3D('',#1771,#1437,#1438);
#1161=AXIS2_PLACEMENT_3D('',#1772,#1439,#1440);
#1162=AXIS2_PLACEMENT_3D('',#1773,#1441,#1442);
#1163=AXIS2_PLACEMENT_3D('',#1775,#1444,#1445);
#1164=AXIS2_PLACEMENT_3D('',#1776,#1446,#1447);
#1165=AXIS2_PLACEMENT_3D('',#1778,#1448,#1449);
#1166=AXIS2_PLACEMENT_3D('',#1781,#1451,#1452);
#1167=AXIS2_PLACEMENT_3D('',#1782,#1453,#1454);
#1168=AXIS2_PLACEMENT_3D('',#1784,#1455,#1456);
#1169=AXIS2_PLACEMENT_3D('',#1787,#1458,#1459);
#1170=AXIS2_PLACEMENT_3D('',#1788,#1460,#1461);
#1171=AXIS2_PLACEMENT_3D('',#1789,#1462,#1463);
#1172=AXIS2_PLACEMENT_3D('',#1791,#1464,#1465);
#1173=AXIS2_PLACEMENT_3D('',#1794,#1467,#1468);
#1174=AXIS2_PLACEMENT_3D('',#1795,#1469,#1470);
#1175=AXIS2_PLACEMENT_3D('',#1797,#1471,#1472);
#1176=AXIS2_PLACEMENT_3D('',#1800,#1474,#1475);
#1177=AXIS2_PLACEMENT_3D('',#1801,#1476,#1477);
#1178=AXIS2_PLACEMENT_3D('',#1802,#1478,#1479);
#1179=AXIS2_PLACEMENT_3D('',#1803,#1480,#1481);
#1180=AXIS2_PLACEMENT_3D('',#1804,#1482,#1483);
#1181=AXIS2_PLACEMENT_3D('',#1806,#1484,#1485);
#1182=AXIS2_PLACEMENT_3D('',#1809,#1487,#1488);
#1183=AXIS2_PLACEMENT_3D('',#1810,#1489,#1490);
#1184=AXIS2_PLACEMENT_3D('',#1812,#1491,#1492);
#1185=AXIS2_PLACEMENT_3D('',#1815,#1494,#1495);
#1186=AXIS2_PLACEMENT_3D('',#1816,#1496,#1497);
#1187=AXIS2_PLACEMENT_3D('',#1817,#1498,#1499);
#1188=AXIS2_PLACEMENT_3D('',#1818,#1500,#1501);
#1189=AXIS2_PLACEMENT_3D('',#1820,#1502,#1503);
#1190=AXIS2_PLACEMENT_3D('',#1823,#1505,#1506);
#1191=AXIS2_PLACEMENT_3D('',#1824,#1507,#1508);
#1192=AXIS2_PLACEMENT_3D('',#1825,#1509,#1510);
#1193=AXIS2_PLACEMENT_3D('',#1827,#1511,#1512);
#1194=AXIS2_PLACEMENT_3D('',#1830,#1514,#1515);
#1195=AXIS2_PLACEMENT_3D('',#1831,#1516,#1517);
#1196=AXIS2_PLACEMENT_3D('',#1832,#1518,#1519);
#1197=AXIS2_PLACEMENT_3D('',#1834,#1520,#1521);
#1198=AXIS2_PLACEMENT_3D('',#1837,#1523,#1524);
#1199=AXIS2_PLACEMENT_3D('',#1838,#1525,#1526);
#1200=AXIS2_PLACEMENT_3D('',#1839,#1527,#1528);
#1201=AXIS2_PLACEMENT_3D('',#1841,#1529,#1530);
#1202=AXIS2_PLACEMENT_3D('',#1844,#1532,#1533);
#1203=AXIS2_PLACEMENT_3D('',#1845,#1534,#1535);
#1204=AXIS2_PLACEMENT_3D('',#1846,#1536,#1537);
#1205=AXIS2_PLACEMENT_3D('',#1848,#1538,#1539);
#1206=AXIS2_PLACEMENT_3D('',#1851,#1541,#1542);
#1207=AXIS2_PLACEMENT_3D('',#1852,#1543,#1544);
#1208=AXIS2_PLACEMENT_3D('',#1853,#1545,#1546);
#1209=AXIS2_PLACEMENT_3D('',#1855,#1547,#1548);
#1210=AXIS2_PLACEMENT_3D('',#1858,#1550,#1551);
#1211=AXIS2_PLACEMENT_3D('',#1859,#1552,#1553);
#1212=AXIS2_PLACEMENT_3D('',#1860,#1554,#1555);
#1213=AXIS2_PLACEMENT_3D('',#1862,#1556,#1557);
#1214=AXIS2_PLACEMENT_3D('',#1865,#1559,#1560);
#1215=AXIS2_PLACEMENT_3D('',#1866,#1561,#1562);
#1216=AXIS2_PLACEMENT_3D('',#1867,#1563,#1564);
#1217=AXIS2_PLACEMENT_3D('',#1869,#1565,#1566);
#1218=AXIS2_PLACEMENT_3D('',#1872,#1568,#1569);
#1219=AXIS2_PLACEMENT_3D('',#1873,#1570,#1571);
#1220=AXIS2_PLACEMENT_3D('',#1874,#1572,#1573);
#1221=AXIS2_PLACEMENT_3D('',#1883,#1578,#1579);
#1222=AXIS2_PLACEMENT_3D('',#1889,#1583,#1584);
#1223=AXIS2_PLACEMENT_3D('',#1895,#1588,#1589);
#1224=AXIS2_PLACEMENT_3D('',#1898,#1592,#1593);
#1225=AXIS2_PLACEMENT_3D('',#1899,#1594,#1595);
#1226=AXIS2_PLACEMENT_3D('',#1901,#1597,#1598);
#1227=AXIS2_PLACEMENT_3D('',#1903,#1600,#1601);
#1228=DIRECTION('axis',(0.,0.,1.));
#1229=DIRECTION('refdir',(1.,0.,0.));
#1230=DIRECTION('center_axis',(-0.408248290463862,-0.816496580927726,0.408248290463863));
#1231=DIRECTION('ref_axis',(-0.577350269189626,0.577350269189624,0.577350269189628));
#1232=DIRECTION('center_axis',(0.,0.,1.));
#1233=DIRECTION('ref_axis',(-1.,0.,0.));
#1234=DIRECTION('center_axis',(0.,1.,0.));
#1235=DIRECTION('ref_axis',(0.,0.,1.));
#1236=DIRECTION('center_axis',(-1.,0.,0.));
#1237=DIRECTION('ref_axis',(0.,1.,0.));
#1238=DIRECTION('center_axis',(0.,1.,0.));
#1239=DIRECTION('ref_axis',(-0.707106781186547,0.,0.707106781186548));
#1240=DIRECTION('center_axis',(0.,1.,0.));
#1241=DIRECTION('ref_axis',(-0.707106781186547,0.,0.707106781186548));
#1242=DIRECTION('',(0.,1.,0.));
#1243=DIRECTION('',(0.,-1.,0.));
#1244=DIRECTION('center_axis',(-0.816496580927722,0.40824829046387,0.408248290463865));
#1245=DIRECTION('ref_axis',(0.577350269189625,0.577350269189625,0.577350269189628));
#1246=DIRECTION('center_axis',(1.,0.,0.));
#1247=DIRECTION('ref_axis',(0.,0.,1.));
#1248=DIRECTION('center_axis',(0.,1.,0.));
#1249=DIRECTION('ref_axis',(1.,0.,0.));
#1250=DIRECTION('center_axis',(0.,0.,1.));
#1251=DIRECTION('ref_axis',(0.,1.,0.));
#1252=DIRECTION('center_axis',(0.,1.,0.));
#1253=DIRECTION('ref_axis',(0.70710678118654,0.,0.707106781186555));
#1254=DIRECTION('center_axis',(0.,1.,0.));
#1255=DIRECTION('ref_axis',(0.70710678118654,0.,0.707106781186555));
#1256=DIRECTION('',(0.,1.,0.));
#1257=DIRECTION('',(0.,-1.,0.));
#1258=DIRECTION('center_axis',(-0.408248290463863,-0.816496580927728,-0.408248290463859));
#1259=DIRECTION('ref_axis',(-0.577350269189628,0.577350269189625,-0.577350269189625));
#1260=DIRECTION('center_axis',(-1.,0.,0.));
#1261=DIRECTION('ref_axis',(0.,0.,-1.));
#1262=DIRECTION('center_axis',(0.,1.,0.));
#1263=DIRECTION('ref_axis',(-1.,0.,0.));
#1264=DIRECTION('center_axis',(0.,0.,-1.));
#1265=DIRECTION('ref_axis',(0.,1.,0.));
#1266=DIRECTION('center_axis',(0.,1.,0.));
#1267=DIRECTION('ref_axis',(-0.707106781186548,0.,-0.707106781186548));
#1268=DIRECTION('center_axis',(0.,1.,0.));
#1269=DIRECTION('ref_axis',(-0.707106781186548,0.,-0.707106781186548));
#1270=DIRECTION('',(0.,1.,0.));
#1271=DIRECTION('',(0.,-1.,0.));
#1272=DIRECTION('center_axis',(0.,0.,1.));
#1273=DIRECTION('ref_axis',(-0.707106781186548,0.707106781186548,0.));
#1274=DIRECTION('',(0.,0.,-1.));
#1275=DIRECTION('',(0.,0.,1.));
#1276=DIRECTION('center_axis',(0.40824829046386,-0.816496580927729,-0.40824829046386));
#1277=DIRECTION('ref_axis',(0.577350269189626,0.577350269189626,-0.577350269189626));
#1278=DIRECTION('center_axis',(0.,0.,-1.));
#1279=DIRECTION('ref_axis',(1.,0.,0.));
#1280=DIRECTION('center_axis',(0.,1.,0.));
#1281=DIRECTION('ref_axis',(0.,0.,-1.));
#1282=DIRECTION('center_axis',(1.,0.,0.));
#1283=DIRECTION('ref_axis',(0.,1.,0.));
#1284=DIRECTION('center_axis',(0.,1.,0.));
#1285=DIRECTION('ref_axis',(0.70710678118654,0.,-0.707106781186555));
#1286=DIRECTION('center_axis',(0.,1.,0.));
#1287=DIRECTION('ref_axis',(0.70710678118654,0.,-0.707106781186555));
#1288=DIRECTION('',(0.,1.,0.));
#1289=DIRECTION('',(0.,-1.,0.));
#1290=DIRECTION('center_axis',(-1.,0.,0.));
#1291=DIRECTION('ref_axis',(0.,0.707106781186548,-0.707106781186548));
#1292=DIRECTION('',(1.,0.,0.));
#1293=DIRECTION('',(-1.,0.,0.));
#1294=DIRECTION('center_axis',(0.,0.,-1.));
#1295=DIRECTION('ref_axis',(0.70710678118654,0.707106781186555,0.));
#1296=DIRECTION('',(0.,0.,1.));
#1297=DIRECTION('',(0.,0.,-1.));
#1298=DIRECTION('center_axis',(1.,0.,0.));
#1299=DIRECTION('ref_axis',(0.,0.707106781186548,0.707106781186548));
#1300=DIRECTION('',(-1.,0.,0.));
#1301=DIRECTION('',(1.,0.,0.));
#1302=DIRECTION('center_axis',(-1.,0.,0.));
#1303=DIRECTION('ref_axis',(0.,0.,1.));
#1304=DIRECTION('',(0.,0.,1.));
#1305=DIRECTION('center_axis',(0.,0.,-1.));
#1306=DIRECTION('ref_axis',(-1.,0.,0.));
#1307=DIRECTION('',(-1.,0.,0.));
#1308=DIRECTION('center_axis',(0.,1.,0.));
#1309=DIRECTION('ref_axis',(0.,0.,1.));
#1310=DIRECTION('center_axis',(0.,-1.,0.));
#1311=DIRECTION('ref_axis',(-1.,0.,0.));
#1312=DIRECTION('center_axis',(0.,-1.,0.));
#1313=DIRECTION('ref_axis',(-1.,0.,0.));
#1314=DIRECTION('center_axis',(0.,-1.,0.));
#1315=DIRECTION('ref_axis',(-1.,0.,0.));
#1316=DIRECTION('center_axis',(0.,-1.,0.));
#1317=DIRECTION('ref_axis',(-1.,0.,0.));
#1318=DIRECTION('center_axis',(0.,-1.,0.));
#1319=DIRECTION('ref_axis',(-1.,0.,0.));
#1320=DIRECTION('center_axis',(0.,-1.,0.));
#1321=DIRECTION('ref_axis',(-1.,0.,0.));
#1322=DIRECTION('center_axis',(0.,-1.,0.));
#1323=DIRECTION('ref_axis',(-1.,0.,0.));
#1324=DIRECTION('center_axis',(0.,-1.,0.));
#1325=DIRECTION('ref_axis',(-1.,0.,0.));
#1326=DIRECTION('center_axis',(0.,1.,0.));
#1327=DIRECTION('ref_axis',(0.,0.,1.));
#1328=DIRECTION('center_axis',(0.,-1.,0.));
#1329=DIRECTION('ref_axis',(-1.,0.,0.));
#1330=DIRECTION('center_axis',(-1.,0.,0.));
#1331=DIRECTION('ref_axis',(0.,0.,-1.));
#1332=DIRECTION('center_axis',(0.,1.,0.));
#1333=DIRECTION('ref_axis',(-1.,0.,0.));
#1334=DIRECTION('center_axis',(0.,1.,0.));
#1335=DIRECTION('ref_axis',(-1.,0.,0.));
#1336=DIRECTION('center_axis',(0.,1.,0.));
#1337=DIRECTION('ref_axis',(-1.,0.,0.));
#1338=DIRECTION('',(0.,-1.,0.));
#1339=DIRECTION('center_axis',(0.,1.,0.));
#1340=DIRECTION('ref_axis',(-1.,0.,0.));
#1341=DIRECTION('center_axis',(0.,1.,0.));
#1342=DIRECTION('ref_axis',(0.,0.,1.));
#1343=DIRECTION('center_axis',(0.,-1.,0.));
#1344=DIRECTION('ref_axis',(-1.,0.,0.));
#1345=DIRECTION('center_axis',(-1.,0.,0.));
#1346=DIRECTION('ref_axis',(0.,0.,-1.));
#1347=DIRECTION('center_axis',(0.,1.,0.));
#1348=DIRECTION('ref_axis',(-1.,0.,0.));
#1349=DIRECTION('center_axis',(0.,1.,0.));
#1350=DIRECTION('ref_axis',(-1.,0.,0.));
#1351=DIRECTION('center_axis',(0.,1.,0.));
#1352=DIRECTION('ref_axis',(-1.,0.,0.));
#1353=DIRECTION('',(0.,-1.,0.));
#1354=DIRECTION('center_axis',(0.,1.,0.));
#1355=DIRECTION('ref_axis',(-1.,0.,0.));
#1356=DIRECTION('center_axis',(0.,1.,0.));
#1357=DIRECTION('ref_axis',(0.,0.,1.));
#1358=DIRECTION('center_axis',(0.,-1.,0.));
#1359=DIRECTION('ref_axis',(-1.,0.,0.));
#1360=DIRECTION('center_axis',(-1.,0.,0.));
#1361=DIRECTION('ref_axis',(0.,0.,-1.));
#1362=DIRECTION('center_axis',(0.,1.,0.));
#1363=DIRECTION('ref_axis',(-1.,0.,0.));
#1364=DIRECTION('center_axis',(0.,1.,0.));
#1365=DIRECTION('ref_axis',(-1.,0.,0.));
#1366=DIRECTION('center_axis',(0.,1.,0.));
#1367=DIRECTION('ref_axis',(-1.,0.,0.));
#1368=DIRECTION('',(0.,-1.,0.));
#1369=DIRECTION('center_axis',(0.,1.,0.));
#1370=DIRECTION('ref_axis',(-1.,0.,0.));
#1371=DIRECTION('center_axis',(0.,1.,0.));
#1372=DIRECTION('ref_axis',(0.,0.,1.));
#1373=DIRECTION('center_axis',(0.,-1.,0.));
#1374=DIRECTION('ref_axis',(-1.,0.,0.));
#1375=DIRECTION('center_axis',(-1.,0.,2.22044604925031E-16));
#1376=DIRECTION('ref_axis',(-2.22044604925031E-16,0.,-1.));
#1377=DIRECTION('center_axis',(0.,1.,0.));
#1378=DIRECTION('ref_axis',(-1.,0.,0.));
#1379=DIRECTION('center_axis',(0.,1.,0.));
#1380=DIRECTION('ref_axis',(-1.,0.,0.));
#1381=DIRECTION('center_axis',(0.,1.,0.));
#1382=DIRECTION('ref_axis',(-1.,0.,0.));
#1383=DIRECTION('',(0.,-1.,0.));
#1384=DIRECTION('center_axis',(0.,1.,0.));
#1385=DIRECTION('ref_axis',(-1.,0.,0.));
#1386=DIRECTION('center_axis',(0.,1.,0.));
#1387=DIRECTION('ref_axis',(0.,0.,1.));
#1388=DIRECTION('center_axis',(0.,-1.,0.));
#1389=DIRECTION('ref_axis',(-1.,0.,0.));
#1390=DIRECTION('center_axis',(-1.,0.,2.22044604925031E-16));
#1391=DIRECTION('ref_axis',(-2.22044604925031E-16,0.,-1.));
#1392=DIRECTION('center_axis',(0.,1.,0.));
#1393=DIRECTION('ref_axis',(-1.,0.,0.));
#1394=DIRECTION('center_axis',(0.,1.,0.));
#1395=DIRECTION('ref_axis',(-1.,0.,0.));
#1396=DIRECTION('center_axis',(0.,1.,0.));
#1397=DIRECTION('ref_axis',(-1.,0.,0.));
#1398=DIRECTION('',(0.,-1.,0.));
#1399=DIRECTION('center_axis',(0.,1.,0.));
#1400=DIRECTION('ref_axis',(-1.,0.,0.));
#1401=DIRECTION('center_axis',(0.,1.,0.));
#1402=DIRECTION('ref_axis',(0.,0.,1.));
#1403=DIRECTION('center_axis',(0.,-1.,0.));
#1404=DIRECTION('ref_axis',(-1.,0.,0.));
#1405=DIRECTION('center_axis',(-1.,0.,0.));
#1406=DIRECTION('ref_axis',(0.,0.,-1.));
#1407=DIRECTION('center_axis',(0.,1.,0.));
#1408=DIRECTION('ref_axis',(-1.,0.,0.));
#1409=DIRECTION('center_axis',(0.,1.,0.));
#1410=DIRECTION('ref_axis',(-1.,0.,0.));
#1411=DIRECTION('center_axis',(0.,1.,0.));
#1412=DIRECTION('ref_axis',(-1.,0.,0.));
#1413=DIRECTION('',(0.,-1.,0.));
#1414=DIRECTION('center_axis',(0.,1.,0.));
#1415=DIRECTION('ref_axis',(-1.,0.,0.));
#1416=DIRECTION('center_axis',(0.,1.,0.));
#1417=DIRECTION('ref_axis',(0.,0.,1.));
#1418=DIRECTION('center_axis',(0.,-1.,0.));
#1419=DIRECTION('ref_axis',(-1.,0.,0.));
#1420=DIRECTION('center_axis',(-1.,0.,0.));
#1421=DIRECTION('ref_axis',(0.,0.,-1.));
#1422=DIRECTION('center_axis',(0.,1.,0.));
#1423=DIRECTION('ref_axis',(-1.,0.,0.));
#1424=DIRECTION('center_axis',(0.,1.,0.));
#1425=DIRECTION('ref_axis',(-1.,0.,0.));
#1426=DIRECTION('center_axis',(0.,1.,0.));
#1427=DIRECTION('ref_axis',(-1.,0.,0.));
#1428=DIRECTION('',(0.,-1.,0.));
#1429=DIRECTION('center_axis',(0.,1.,0.));
#1430=DIRECTION('ref_axis',(-1.,0.,0.));
#1431=DIRECTION('center_axis',(0.,1.,0.));
#1432=DIRECTION('ref_axis',(0.,0.,1.));
#1433=DIRECTION('center_axis',(0.,-1.,0.));
#1434=DIRECTION('ref_axis',(-1.,0.,0.));
#1435=DIRECTION('center_axis',(-1.,0.,0.));
#1436=DIRECTION('ref_axis',(0.,0.,-1.));
#1437=DIRECTION('center_axis',(0.,1.,0.));
#1438=DIRECTION('ref_axis',(-1.,0.,0.));
#1439=DIRECTION('center_axis',(0.,1.,0.));
#1440=DIRECTION('ref_axis',(-1.,0.,0.));
#1441=DIRECTION('center_axis',(0.,1.,0.));
#1442=DIRECTION('ref_axis',(-1.,0.,0.));
#1443=DIRECTION('',(0.,-1.,0.));
#1444=DIRECTION('center_axis',(0.,1.,0.));
#1445=DIRECTION('ref_axis',(-1.,0.,0.));
#1446=DIRECTION('center_axis',(0.,-1.,0.));
#1447=DIRECTION('ref_axis',(1.,0.,0.));
#1448=DIRECTION('center_axis',(0.,1.,0.));
#1449=DIRECTION('ref_axis',(1.,0.,0.));
#1450=DIRECTION('',(0.,1.,0.));
#1451=DIRECTION('center_axis',(0.,-1.,0.));
#1452=DIRECTION('ref_axis',(1.,0.,0.));
#1453=DIRECTION('center_axis',(0.,-1.,0.));
#1454=DIRECTION('ref_axis',(1.,0.,0.));
#1455=DIRECTION('center_axis',(0.,-1.,0.));
#1456=DIRECTION('ref_axis',(1.,0.,0.));
#1457=DIRECTION('',(0.,1.,0.));
#1458=DIRECTION('center_axis',(0.,1.,0.));
#1459=DIRECTION('ref_axis',(1.,0.,0.));
#1460=DIRECTION('center_axis',(0.,-1.,0.));
#1461=DIRECTION('ref_axis',(1.,0.,0.));
#1462=DIRECTION('center_axis',(0.,-1.,0.));
#1463=DIRECTION('ref_axis',(1.,0.,0.));
#1464=DIRECTION('center_axis',(0.,1.,0.));
#1465=DIRECTION('ref_axis',(1.,0.,0.));
#1466=DIRECTION('',(0.,1.,0.));
#1467=DIRECTION('center_axis',(0.,-1.,0.));
#1468=DIRECTION('ref_axis',(1.,0.,0.));
#1469=DIRECTION('center_axis',(0.,-1.,0.));
#1470=DIRECTION('ref_axis',(1.,0.,0.));
#1471=DIRECTION('center_axis',(0.,-1.,0.));
#1472=DIRECTION('ref_axis',(1.,0.,0.));
#1473=DIRECTION('',(0.,1.,0.));
#1474=DIRECTION('center_axis',(0.,1.,0.));
#1475=DIRECTION('ref_axis',(1.,0.,0.));
#1476=DIRECTION('center_axis',(0.,-1.,0.));
#1477=DIRECTION('ref_axis',(1.,0.,0.));
#1478=DIRECTION('center_axis',(0.,1.,0.));
#1479=DIRECTION('ref_axis',(0.,0.,1.));
#1480=DIRECTION('center_axis',(0.,1.,0.));
#1481=DIRECTION('ref_axis',(0.,0.,1.));
#1482=DIRECTION('center_axis',(0.,-1.,0.));
#1483=DIRECTION('ref_axis',(1.,0.,0.));
#1484=DIRECTION('center_axis',(0.,1.,0.));
#1485=DIRECTION('ref_axis',(1.,0.,0.));
#1486=DIRECTION('',(0.,1.,0.));
#1487=DIRECTION('center_axis',(0.,-1.,0.));
#1488=DIRECTION('ref_axis',(1.,0.,0.));
#1489=DIRECTION('center_axis',(0.,-1.,0.));
#1490=DIRECTION('ref_axis',(1.,0.,0.));
#1491=DIRECTION('center_axis',(0.,-1.,0.));
#1492=DIRECTION('ref_axis',(1.,0.,0.));
#1493=DIRECTION('',(0.,1.,0.));
#1494=DIRECTION('center_axis',(0.,1.,0.));
#1495=DIRECTION('ref_axis',(1.,0.,0.));
#1496=DIRECTION('center_axis',(0.,-1.,0.));
#1497=DIRECTION('ref_axis',(1.,0.,0.));
#1498=DIRECTION('center_axis',(0.,1.,0.));
#1499=DIRECTION('ref_axis',(0.,0.,1.));
#1500=DIRECTION('center_axis',(0.,1.,0.));
#1501=DIRECTION('ref_axis',(-1.,0.,0.));
#1502=DIRECTION('center_axis',(0.,-1.,0.));
#1503=DIRECTION('ref_axis',(-1.,0.,0.));
#1504=DIRECTION('',(0.,1.,0.));
#1505=DIRECTION('center_axis',(0.,-1.,0.));
#1506=DIRECTION('ref_axis',(-1.,0.,0.));
#1507=DIRECTION('center_axis',(0.,1.,0.));
#1508=DIRECTION('ref_axis',(-1.,0.,0.));
#1509=DIRECTION('center_axis',(0.,1.,0.));
#1510=DIRECTION('ref_axis',(-1.,0.,0.));
#1511=DIRECTION('center_axis',(0.,-1.,0.));
#1512=DIRECTION('ref_axis',(-1.,0.,0.));
#1513=DIRECTION('',(0.,1.,0.));
#1514=DIRECTION('center_axis',(0.,-1.,0.));
#1515=DIRECTION('ref_axis',(-1.,0.,0.));
#1516=DIRECTION('center_axis',(0.,1.,0.));
#1517=DIRECTION('ref_axis',(-1.,0.,0.));
#1518=DIRECTION('center_axis',(0.,1.,0.));
#1519=DIRECTION('ref_axis',(-1.,0.,0.));
#1520=DIRECTION('center_axis',(0.,-1.,0.));
#1521=DIRECTION('ref_axis',(-1.,0.,0.));
#1522=DIRECTION('',(0.,1.,0.));
#1523=DIRECTION('center_axis',(0.,-1.,0.));
#1524=DIRECTION('ref_axis',(-1.,0.,0.));
#1525=DIRECTION('center_axis',(0.,1.,0.));
#1526=DIRECTION('ref_axis',(-1.,0.,0.));
#1527=DIRECTION('center_axis',(0.,1.,0.));
#1528=DIRECTION('ref_axis',(-1.,0.,0.));
#1529=DIRECTION('center_axis',(0.,-1.,0.));
#1530=DIRECTION('ref_axis',(-1.,0.,0.));
#1531=DIRECTION('',(0.,1.,0.));
#1532=DIRECTION('center_axis',(0.,-1.,0.));
#1533=DIRECTION('ref_axis',(-1.,0.,0.));
#1534=DIRECTION('center_axis',(0.,1.,0.));
#1535=DIRECTION('ref_axis',(-1.,0.,0.));
#1536=DIRECTION('center_axis',(0.,1.,0.));
#1537=DIRECTION('ref_axis',(-1.,0.,0.));
#1538=DIRECTION('center_axis',(0.,-1.,0.));
#1539=DIRECTION('ref_axis',(-1.,0.,0.));
#1540=DIRECTION('',(0.,1.,0.));
#1541=DIRECTION('center_axis',(0.,-1.,0.));
#1542=DIRECTION('ref_axis',(-1.,0.,0.));
#1543=DIRECTION('center_axis',(0.,1.,0.));
#1544=DIRECTION('ref_axis',(-1.,0.,0.));
#1545=DIRECTION('center_axis',(0.,1.,0.));
#1546=DIRECTION('ref_axis',(-1.,0.,0.));
#1547=DIRECTION('center_axis',(0.,-1.,0.));
#1548=DIRECTION('ref_axis',(-1.,0.,0.));
#1549=DIRECTION('',(0.,1.,0.));
#1550=DIRECTION('center_axis',(0.,-1.,0.));
#1551=DIRECTION('ref_axis',(-1.,0.,0.));
#1552=DIRECTION('center_axis',(0.,1.,0.));
#1553=DIRECTION('ref_axis',(-1.,0.,0.));
#1554=DIRECTION('center_axis',(0.,1.,0.));
#1555=DIRECTION('ref_axis',(-1.,0.,0.));
#1556=DIRECTION('center_axis',(0.,-1.,0.));
#1557=DIRECTION('ref_axis',(-1.,0.,0.));
#1558=DIRECTION('',(0.,1.,0.));
#1559=DIRECTION('center_axis',(0.,-1.,0.));
#1560=DIRECTION('ref_axis',(-1.,0.,0.));
#1561=DIRECTION('center_axis',(0.,1.,0.));
#1562=DIRECTION('ref_axis',(-1.,0.,0.));
#1563=DIRECTION('center_axis',(0.,1.,0.));
#1564=DIRECTION('ref_axis',(-1.,0.,0.));
#1565=DIRECTION('center_axis',(0.,-1.,0.));
#1566=DIRECTION('ref_axis',(-1.,0.,0.));
#1567=DIRECTION('',(0.,1.,0.));
#1568=DIRECTION('center_axis',(0.,-1.,0.));
#1569=DIRECTION('ref_axis',(-1.,0.,0.));
#1570=DIRECTION('center_axis',(0.,1.,0.));
#1571=DIRECTION('ref_axis',(-1.,0.,0.));
#1572=DIRECTION('center_axis',(0.,0.,-1.));
#1573=DIRECTION('ref_axis',(-1.,0.,0.));
#1574=DIRECTION('',(-1.,0.,0.));
#1575=DIRECTION('',(0.,-1.,0.));
#1576=DIRECTION('',(1.,0.,0.));
#1577=DIRECTION('',(0.,1.,0.));
#1578=DIRECTION('center_axis',(1.,0.,0.));
#1579=DIRECTION('ref_axis',(0.,0.,-1.));
#1580=DIRECTION('',(0.,0.,-1.));
#1581=DIRECTION('',(0.,-1.,0.));
#1582=DIRECTION('',(0.,0.,1.));
#1583=DIRECTION('center_axis',(0.,0.,1.));
#1584=DIRECTION('ref_axis',(1.,0.,0.));
#1585=DIRECTION('',(1.,0.,0.));
#1586=DIRECTION('',(0.,-1.,0.));
#1587=DIRECTION('',(-1.,0.,0.));
#1588=DIRECTION('center_axis',(-1.,0.,0.));
#1589=DIRECTION('ref_axis',(0.,0.,1.));
#1590=DIRECTION('',(0.,0.,1.));
#1591=DIRECTION('',(0.,0.,-1.));
#1592=DIRECTION('center_axis',(0.,1.,0.));
#1593=DIRECTION('ref_axis',(0.,0.,1.));
#1594=DIRECTION('center_axis',(1.,0.,0.));
#1595=DIRECTION('ref_axis',(0.,0.,-1.));
#1596=DIRECTION('',(0.,0.,-1.));
#1597=DIRECTION('center_axis',(0.,0.,1.));
#1598=DIRECTION('ref_axis',(1.,0.,0.));
#1599=DIRECTION('',(1.,0.,0.));
#1600=DIRECTION('center_axis',(0.,1.,0.));
#1601=DIRECTION('ref_axis',(1.,0.,0.));
#1602=CARTESIAN_POINT('',(0.,0.,0.));
#1603=CARTESIAN_POINT('Origin',(0.2,9.4,-0.2));
#1604=CARTESIAN_POINT('',(0.,9.4,-0.2));
#1605=CARTESIAN_POINT('',(0.2,9.6,-0.2));
#1606=CARTESIAN_POINT('Origin',(0.2,9.4,-0.2));
#1607=CARTESIAN_POINT('',(0.2,9.4,0.));
#1608=CARTESIAN_POINT('Origin',(0.2,9.4,-0.2));
#1609=CARTESIAN_POINT('Origin',(0.2,9.4,-0.2));
#1610=CARTESIAN_POINT('Origin',(0.2,0.,-0.2));
#1611=CARTESIAN_POINT('',(0.,0.,-0.2));
#1612=CARTESIAN_POINT('',(0.2,0.,0.));
#1613=CARTESIAN_POINT('Origin',(0.2,0.,-0.2));
#1614=CARTESIAN_POINT('',(0.2,0.,0.));
#1615=CARTESIAN_POINT('',(0.,0.,-0.2));
#1616=CARTESIAN_POINT('Origin',(31.6,9.4,-0.2));
#1617=CARTESIAN_POINT('',(31.6,9.4,0.));
#1618=CARTESIAN_POINT('',(31.6,9.6,-0.2));
#1619=CARTESIAN_POINT('Origin',(31.6,9.4,-0.2));
#1620=CARTESIAN_POINT('',(31.8,9.4,-0.2));
#1621=CARTESIAN_POINT('Origin',(31.6,9.4,-0.2));
#1622=CARTESIAN_POINT('Origin',(31.6,9.4,-0.2));
#1623=CARTESIAN_POINT('Origin',(31.6,0.,-0.2));
#1624=CARTESIAN_POINT('',(31.6,0.,0.));
#1625=CARTESIAN_POINT('',(31.8,0.,-0.2));
#1626=CARTESIAN_POINT('Origin',(31.6,0.,-0.2));
#1627=CARTESIAN_POINT('',(31.8,0.,-0.2));
#1628=CARTESIAN_POINT('',(31.6,0.,0.));
#1629=CARTESIAN_POINT('Origin',(0.2,9.4,-15.6));
#1630=CARTESIAN_POINT('',(0.2,9.4,-15.8));
#1631=CARTESIAN_POINT('',(0.2,9.6,-15.6));
#1632=CARTESIAN_POINT('Origin',(0.2,9.4,-15.6));
#1633=CARTESIAN_POINT('',(0.,9.4,-15.6));
#1634=CARTESIAN_POINT('Origin',(0.2,9.4,-15.6));
#1635=CARTESIAN_POINT('Origin',(0.2,9.4,-15.6));
#1636=CARTESIAN_POINT('Origin',(0.2,0.,-15.6));
#1637=CARTESIAN_POINT('',(0.2,0.,-15.8));
#1638=CARTESIAN_POINT('',(0.,0.,-15.6));
#1639=CARTESIAN_POINT('Origin',(0.2,0.,-15.6));
#1640=CARTESIAN_POINT('',(0.,0.,-15.6));
#1641=CARTESIAN_POINT('',(0.2,0.,-15.8));
#1642=CARTESIAN_POINT('Origin',(0.2,9.4,-11.85));
#1643=CARTESIAN_POINT('',(0.2,9.6,-11.85));
#1644=CARTESIAN_POINT('',(0.,9.4,-11.85));
#1645=CARTESIAN_POINT('Origin',(31.6,9.4,-15.6));
#1646=CARTESIAN_POINT('',(31.8,9.4,-15.6));
#1647=CARTESIAN_POINT('',(31.6,9.6,-15.6));
#1648=CARTESIAN_POINT('Origin',(31.6,9.4,-15.6));
#1649=CARTESIAN_POINT('',(31.6,9.4,-15.8));
#1650=CARTESIAN_POINT('Origin',(31.6,9.4,-15.6));
#1651=CARTESIAN_POINT('Origin',(31.6,9.4,-15.6));
#1652=CARTESIAN_POINT('Origin',(31.6,0.,-15.6));
#1653=CARTESIAN_POINT('',(31.8,0.,-15.6));
#1654=CARTESIAN_POINT('',(31.6,0.,-15.8));
#1655=CARTESIAN_POINT('Origin',(31.6,0.,-15.6));
#1656=CARTESIAN_POINT('',(31.6,0.,-15.8));
#1657=CARTESIAN_POINT('',(31.8,0.,-15.6));
#1658=CARTESIAN_POINT('Origin',(23.85,9.4,-15.6));
#1659=CARTESIAN_POINT('',(23.85,9.6,-15.6));
#1660=CARTESIAN_POINT('',(23.85,9.4,-15.8));
#1661=CARTESIAN_POINT('Origin',(31.6,9.4,-3.95));
#1662=CARTESIAN_POINT('',(31.6,9.6,-3.95));
#1663=CARTESIAN_POINT('',(31.8,9.4,-3.95));
#1664=CARTESIAN_POINT('Origin',(7.95,9.4,-0.2));
#1665=CARTESIAN_POINT('',(7.95,9.6,-0.2));
#1666=CARTESIAN_POINT('',(7.95,9.4,0.));
#1667=CARTESIAN_POINT('Origin',(0.,0.,-15.8));
#1668=CARTESIAN_POINT('',(0.,0.,-15.8));
#1669=CARTESIAN_POINT('Origin',(31.8,0.,-15.8));
#1670=CARTESIAN_POINT('',(31.8,0.,-15.8));
#1671=CARTESIAN_POINT('Origin',(15.9,9.6,-7.9));
#1672=CARTESIAN_POINT('',(30.4,9.6,-3.9));
#1673=CARTESIAN_POINT('Origin',(27.9,9.6,-3.9));
#1674=CARTESIAN_POINT('',(30.4,9.6,-11.9));
#1675=CARTESIAN_POINT('Origin',(27.9,9.6,-11.9));
#1676=CARTESIAN_POINT('',(22.4,9.6,-3.9));
#1677=CARTESIAN_POINT('Origin',(19.9,9.6,-3.9));
#1678=CARTESIAN_POINT('',(22.4,9.6,-11.9));
#1679=CARTESIAN_POINT('Origin',(19.9,9.6,-11.9));
#1680=CARTESIAN_POINT('',(14.4,9.6,-3.9));
#1681=CARTESIAN_POINT('Origin',(11.9,9.6,-3.9));
#1682=CARTESIAN_POINT('',(14.4,9.6,-11.9));
#1683=CARTESIAN_POINT('Origin',(11.9,9.6,-11.9));
#1684=CARTESIAN_POINT('',(6.4,9.6,-3.9));
#1685=CARTESIAN_POINT('Origin',(3.9,9.6,-3.9));
#1686=CARTESIAN_POINT('',(6.4,9.6,-11.9));
#1687=CARTESIAN_POINT('Origin',(3.9,9.6,-11.9));
#1688=CARTESIAN_POINT('Origin',(27.9,11.1,-11.9));
#1689=CARTESIAN_POINT('',(27.9,11.3,-14.2));
#1690=CARTESIAN_POINT('Origin',(27.9,11.3,-11.9));
#1691=CARTESIAN_POINT('',(27.9,11.1,-14.4));
#1692=CARTESIAN_POINT('Origin',(27.9,11.1,-14.2));
#1693=CARTESIAN_POINT('',(30.4,11.1,-11.9));
#1694=CARTESIAN_POINT('Origin',(27.9,11.1,-11.9));
#1695=CARTESIAN_POINT('Origin',(27.9,11.1,-11.9));
#1696=CARTESIAN_POINT('Origin',(27.9,9.6,-11.9));
#1697=CARTESIAN_POINT('',(30.4,9.6,-11.9));
#1698=CARTESIAN_POINT('Origin',(27.9,11.3,-11.9));
#1699=CARTESIAN_POINT('Origin',(19.9,11.1,-11.9));
#1700=CARTESIAN_POINT('',(19.9,11.3,-14.2));
#1701=CARTESIAN_POINT('Origin',(19.9,11.3,-11.9));
#1702=CARTESIAN_POINT('',(19.9,11.1,-14.4));
#1703=CARTESIAN_POINT('Origin',(19.9,11.1,-14.2));
#1704=CARTESIAN_POINT('',(22.4,11.1,-11.9));
#1705=CARTESIAN_POINT('Origin',(19.9,11.1,-11.9));
#1706=CARTESIAN_POINT('Origin',(19.9,11.1,-11.9));
#1707=CARTESIAN_POINT('Origin',(19.9,9.6,-11.9));
#1708=CARTESIAN_POINT('',(22.4,9.6,-11.9));
#1709=CARTESIAN_POINT('Origin',(19.9,11.3,-11.9));
#1710=CARTESIAN_POINT('Origin',(11.9,11.1,-11.9));
#1711=CARTESIAN_POINT('',(11.9,11.3,-14.2));
#1712=CARTESIAN_POINT('Origin',(11.9,11.3,-11.9));
#1713=CARTESIAN_POINT('',(11.9,11.1,-14.4));
#1714=CARTESIAN_POINT('Origin',(11.9,11.1,-14.2));
#1715=CARTESIAN_POINT('',(14.4,11.1,-11.9));
#1716=CARTESIAN_POINT('Origin',(11.9,11.1,-11.9));
#1717=CARTESIAN_POINT('Origin',(11.9,11.1,-11.9));
#1718=CARTESIAN_POINT('Origin',(11.9,9.6,-11.9));
#1719=CARTESIAN_POINT('',(14.4,9.6,-11.9));
#1720=CARTESIAN_POINT('Origin',(11.9,11.3,-11.9));
#1721=CARTESIAN_POINT('Origin',(3.9,11.1,-11.9));
#1722=CARTESIAN_POINT('',(3.9,11.3,-14.2));
#1723=CARTESIAN_POINT('Origin',(3.9,11.3,-11.9));
#1724=CARTESIAN_POINT('',(3.9,11.1,-14.4));
#1725=CARTESIAN_POINT('Origin',(3.9,11.1,-14.2));
#1726=CARTESIAN_POINT('',(6.4,11.1,-11.9));
#1727=CARTESIAN_POINT('Origin',(3.9,11.1,-11.9));
#1728=CARTESIAN_POINT('Origin',(3.9,11.1,-11.9));
#1729=CARTESIAN_POINT('Origin',(3.9,9.6,-11.9));
#1730=CARTESIAN_POINT('',(6.4,9.6,-11.9));
#1731=CARTESIAN_POINT('Origin',(3.9,11.3,-11.9));
#1732=CARTESIAN_POINT('Origin',(3.9,11.1,-3.9));
#1733=CARTESIAN_POINT('',(3.9,11.3,-6.2));
#1734=CARTESIAN_POINT('Origin',(3.9,11.3,-3.9));
#1735=CARTESIAN_POINT('',(3.9,11.1,-6.4));
#1736=CARTESIAN_POINT('Origin',(3.9,11.1,-6.2));
#1737=CARTESIAN_POINT('',(6.4,11.1,-3.9));
#1738=CARTESIAN_POINT('Origin',(3.9,11.1,-3.9));
#1739=CARTESIAN_POINT('Origin',(3.9,11.1,-3.9));
#1740=CARTESIAN_POINT('Origin',(3.9,9.6,-3.9));
#1741=CARTESIAN_POINT('',(6.4,9.6,-3.9));
#1742=CARTESIAN_POINT('Origin',(3.9,11.3,-3.9));
#1743=CARTESIAN_POINT('Origin',(11.9,11.1,-3.9));
#1744=CARTESIAN_POINT('',(11.9,11.3,-6.2));
#1745=CARTESIAN_POINT('Origin',(11.9,11.3,-3.9));
#1746=CARTESIAN_POINT('',(11.9,11.1,-6.4));
#1747=CARTESIAN_POINT('Origin',(11.9,11.1,-6.2));
#1748=CARTESIAN_POINT('',(14.4,11.1,-3.9));
#1749=CARTESIAN_POINT('Origin',(11.9,11.1,-3.9));
#1750=CARTESIAN_POINT('Origin',(11.9,11.1,-3.9));
#1751=CARTESIAN_POINT('Origin',(11.9,9.6,-3.9));
#1752=CARTESIAN_POINT('',(14.4,9.6,-3.9));
#1753=CARTESIAN_POINT('Origin',(11.9,11.3,-3.9));
#1754=CARTESIAN_POINT('Origin',(19.9,11.1,-3.9));
#1755=CARTESIAN_POINT('',(19.9,11.3,-6.2));
#1756=CARTESIAN_POINT('Origin',(19.9,11.3,-3.9));
#1757=CARTESIAN_POINT('',(19.9,11.1,-6.4));
#1758=CARTESIAN_POINT('Origin',(19.9,11.1,-6.2));
#1759=CARTESIAN_POINT('',(22.4,11.1,-3.9));
#1760=CARTESIAN_POINT('Origin',(19.9,11.1,-3.9));
#1761=CARTESIAN_POINT('Origin',(19.9,11.1,-3.9));
#1762=CARTESIAN_POINT('Origin',(19.9,9.6,-3.9));
#1763=CARTESIAN_POINT('',(22.4,9.6,-3.9));
#1764=CARTESIAN_POINT('Origin',(19.9,11.3,-3.9));
#1765=CARTESIAN_POINT('Origin',(27.9,11.1,-3.9));
#1766=CARTESIAN_POINT('',(27.9,11.3,-6.2));
#1767=CARTESIAN_POINT('Origin',(27.9,11.3,-3.9));
#1768=CARTESIAN_POINT('',(27.9,11.1,-6.4));
#1769=CARTESIAN_POINT('Origin',(27.9,11.1,-6.2));
#1770=CARTESIAN_POINT('',(30.4,11.1,-3.9));
#1771=CARTESIAN_POINT('Origin',(27.9,11.1,-3.9));
#1772=CARTESIAN_POINT('Origin',(27.9,11.1,-3.9));
#1773=CARTESIAN_POINT('Origin',(27.9,9.6,-3.9));
#1774=CARTESIAN_POINT('',(30.4,9.6,-3.9));
#1775=CARTESIAN_POINT('Origin',(27.9,11.3,-3.9));
#1776=CARTESIAN_POINT('Origin',(7.9,8.11,-7.9));
#1777=CARTESIAN_POINT('',(5.75000000000001,0.0099999999999989,-7.9));
#1778=CARTESIAN_POINT('Origin',(7.9,0.0099999999999989,-7.9));
#1779=CARTESIAN_POINT('',(5.75000000000001,8.11,-7.9));
#1780=CARTESIAN_POINT('',(5.75000000000001,8.11,-7.9));
#1781=CARTESIAN_POINT('Origin',(7.9,8.11,-7.9));
#1782=CARTESIAN_POINT('Origin',(7.9,8.11,-7.9));
#1783=CARTESIAN_POINT('',(4.75000000000001,0.0099999999999989,-7.9));
#1784=CARTESIAN_POINT('Origin',(7.9,0.0099999999999989,-7.9));
#1785=CARTESIAN_POINT('',(4.75000000000001,8.11,-7.9));
#1786=CARTESIAN_POINT('',(4.75000000000001,8.11,-7.9));
#1787=CARTESIAN_POINT('Origin',(7.9,8.11,-7.9));
#1788=CARTESIAN_POINT('Origin',(7.9,0.0099999999999989,-7.9));
#1789=CARTESIAN_POINT('Origin',(15.9,8.11,-7.9));
#1790=CARTESIAN_POINT('',(13.75,0.0099999999999989,-7.9));
#1791=CARTESIAN_POINT('Origin',(15.9,0.0099999999999989,-7.9));
#1792=CARTESIAN_POINT('',(13.75,8.11,-7.9));
#1793=CARTESIAN_POINT('',(13.75,8.11,-7.9));
#1794=CARTESIAN_POINT('Origin',(15.9,8.11,-7.9));
#1795=CARTESIAN_POINT('Origin',(15.9,8.11,-7.9));
#1796=CARTESIAN_POINT('',(12.75,0.0099999999999989,-7.9));
#1797=CARTESIAN_POINT('Origin',(15.9,0.0099999999999989,-7.9));
#1798=CARTESIAN_POINT('',(12.75,8.11,-7.9));
#1799=CARTESIAN_POINT('',(12.75,8.11,-7.9));
#1800=CARTESIAN_POINT('Origin',(15.9,8.11,-7.9));
#1801=CARTESIAN_POINT('Origin',(15.9,0.0099999999999989,-7.9));
#1802=CARTESIAN_POINT('Origin',(15.9,8.11,-7.9));
#1803=CARTESIAN_POINT('Origin',(15.9,8.11,-7.9));
#1804=CARTESIAN_POINT('Origin',(23.9,8.11,-7.9));
#1805=CARTESIAN_POINT('',(21.75,0.0099999999999989,-7.9));
#1806=CARTESIAN_POINT('Origin',(23.9,0.0099999999999989,-7.9));
#1807=CARTESIAN_POINT('',(21.75,8.11,-7.9));
#1808=CARTESIAN_POINT('',(21.75,8.11,-7.9));
#1809=CARTESIAN_POINT('Origin',(23.9,8.11,-7.9));
#1810=CARTESIAN_POINT('Origin',(23.9,8.11,-7.9));
#1811=CARTESIAN_POINT('',(20.75,0.0099999999999989,-7.9));
#1812=CARTESIAN_POINT('Origin',(23.9,0.0099999999999989,-7.9));
#1813=CARTESIAN_POINT('',(20.75,8.11,-7.9));
#1814=CARTESIAN_POINT('',(20.75,8.11,-7.9));
#1815=CARTESIAN_POINT('Origin',(23.9,8.11,-7.9));
#1816=CARTESIAN_POINT('Origin',(23.9,0.0099999999999989,-7.9));
#1817=CARTESIAN_POINT('Origin',(15.9,8.11,-7.9));
#1818=CARTESIAN_POINT('Origin',(27.9,9.6,-3.9));
#1819=CARTESIAN_POINT('',(28.91,8.11,-3.9));
#1820=CARTESIAN_POINT('Origin',(27.9,8.11,-3.9));
#1821=CARTESIAN_POINT('',(28.91,9.81,-3.9));
#1822=CARTESIAN_POINT('',(28.91,9.6,-3.9));
#1823=CARTESIAN_POINT('Origin',(27.9,9.81,-3.9));
#1824=CARTESIAN_POINT('Origin',(27.9,9.81,-3.9));
#1825=CARTESIAN_POINT('Origin',(27.9,9.6,-11.9));
#1826=CARTESIAN_POINT('',(28.91,8.11,-11.9));
#1827=CARTESIAN_POINT('Origin',(27.9,8.11,-11.9));
#1828=CARTESIAN_POINT('',(28.91,9.81,-11.9));
#1829=CARTESIAN_POINT('',(28.91,9.6,-11.9));
#1830=CARTESIAN_POINT('Origin',(27.9,9.81,-11.9));
#1831=CARTESIAN_POINT('Origin',(27.9,9.81,-11.9));
#1832=CARTESIAN_POINT('Origin',(19.9,9.6,-3.9));
#1833=CARTESIAN_POINT('',(20.91,8.11,-3.9));
#1834=CARTESIAN_POINT('Origin',(19.9,8.11,-3.9));
#1835=CARTESIAN_POINT('',(20.91,9.81,-3.9));
#1836=CARTESIAN_POINT('',(20.91,9.6,-3.9));
#1837=CARTESIAN_POINT('Origin',(19.9,9.81,-3.9));
#1838=CARTESIAN_POINT('Origin',(19.9,9.81,-3.9));
#1839=CARTESIAN_POINT('Origin',(19.9,9.6,-11.9));
#1840=CARTESIAN_POINT('',(20.91,8.11,-11.9));
#1841=CARTESIAN_POINT('Origin',(19.9,8.11,-11.9));
#1842=CARTESIAN_POINT('',(20.91,9.81,-11.9));
#1843=CARTESIAN_POINT('',(20.91,9.6,-11.9));
#1844=CARTESIAN_POINT('Origin',(19.9,9.81,-11.9));
#1845=CARTESIAN_POINT('Origin',(19.9,9.81,-11.9));
#1846=CARTESIAN_POINT('Origin',(11.9,9.6,-3.9));
#1847=CARTESIAN_POINT('',(12.91,8.11,-3.9));
#1848=CARTESIAN_POINT('Origin',(11.9,8.11,-3.9));
#1849=CARTESIAN_POINT('',(12.91,9.81,-3.9));
#1850=CARTESIAN_POINT('',(12.91,9.6,-3.9));
#1851=CARTESIAN_POINT('Origin',(11.9,9.81,-3.9));
#1852=CARTESIAN_POINT('Origin',(11.9,9.81,-3.9));
#1853=CARTESIAN_POINT('Origin',(11.9,9.6,-11.9));
#1854=CARTESIAN_POINT('',(12.91,8.11,-11.9));
#1855=CARTESIAN_POINT('Origin',(11.9,8.11,-11.9));
#1856=CARTESIAN_POINT('',(12.91,9.81,-11.9));
#1857=CARTESIAN_POINT('',(12.91,9.6,-11.9));
#1858=CARTESIAN_POINT('Origin',(11.9,9.81,-11.9));
#1859=CARTESIAN_POINT('Origin',(11.9,9.81,-11.9));
#1860=CARTESIAN_POINT('Origin',(3.9,9.6,-3.9));
#1861=CARTESIAN_POINT('',(4.91,8.11,-3.9));
#1862=CARTESIAN_POINT('Origin',(3.9,8.11,-3.9));
#1863=CARTESIAN_POINT('',(4.91,9.81,-3.9));
#1864=CARTESIAN_POINT('',(4.91,9.6,-3.9));
#1865=CARTESIAN_POINT('Origin',(3.9,9.81,-3.9));
#1866=CARTESIAN_POINT('Origin',(3.9,9.81,-3.9));
#1867=CARTESIAN_POINT('Origin',(3.9,9.6,-11.9));
#1868=CARTESIAN_POINT('',(4.91,8.11,-11.9));
#1869=CARTESIAN_POINT('Origin',(3.9,8.11,-11.9));
#1870=CARTESIAN_POINT('',(4.91,9.81,-11.9));
#1871=CARTESIAN_POINT('',(4.91,9.6,-11.9));
#1872=CARTESIAN_POINT('Origin',(3.9,9.81,-11.9));
#1873=CARTESIAN_POINT('Origin',(3.9,9.81,-11.9));
#1874=CARTESIAN_POINT('Origin',(31.8,0.,-14.31));
#1875=CARTESIAN_POINT('',(30.31,0.,-14.31));
#1876=CARTESIAN_POINT('',(1.49,0.,-14.31));
#1877=CARTESIAN_POINT('',(23.85,0.,-14.31));
#1878=CARTESIAN_POINT('',(30.31,8.11,-14.31));
#1879=CARTESIAN_POINT('',(30.31,0.,-14.31));
#1880=CARTESIAN_POINT('',(1.49,8.11,-14.31));
#1881=CARTESIAN_POINT('',(23.85,8.11,-14.31));
#1882=CARTESIAN_POINT('',(1.49,0.,-14.31));
#1883=CARTESIAN_POINT('Origin',(30.31,0.,0.));
#1884=CARTESIAN_POINT('',(30.31,0.,-1.49));
#1885=CARTESIAN_POINT('',(30.31,0.,-3.95));
#1886=CARTESIAN_POINT('',(30.31,8.11,-1.49));
#1887=CARTESIAN_POINT('',(30.31,0.,-1.49));
#1888=CARTESIAN_POINT('',(30.31,8.11,-3.95));
#1889=CARTESIAN_POINT('Origin',(0.,0.,-1.49));
#1890=CARTESIAN_POINT('',(1.49,0.,-1.49));
#1891=CARTESIAN_POINT('',(7.95,0.,-1.49));
#1892=CARTESIAN_POINT('',(1.49,8.11,-1.49));
#1893=CARTESIAN_POINT('',(1.49,0.,-1.49));
#1894=CARTESIAN_POINT('',(7.95,8.11,-1.49));
#1895=CARTESIAN_POINT('Origin',(1.49,0.,-15.8));
#1896=CARTESIAN_POINT('',(1.49,0.,-11.85));
#1897=CARTESIAN_POINT('',(1.49,8.11,-11.85));
#1898=CARTESIAN_POINT('Origin',(15.9,8.11,-7.9));
#1899=CARTESIAN_POINT('Origin',(31.8,0.,0.));
#1900=CARTESIAN_POINT('',(31.8,0.,0.));
#1901=CARTESIAN_POINT('Origin',(0.,0.,0.));
#1902=CARTESIAN_POINT('',(0.,0.,0.));
#1903=CARTESIAN_POINT('Origin',(15.9,0.,-7.9));
#1904=UNCERTAINTY_MEASURE_WITH_UNIT(LENGTH_MEASURE(0.01),#1908,
'DISTANCE_ACCURACY_VALUE',
'Maximum model space distance between geometric entities at asserted c
onnectivities');
#1905=UNCERTAINTY_MEASURE_WITH_UNIT(LENGTH_MEASURE(0.01),#1908,
'DISTANCE_ACCURACY_VALUE',
'Maximum model space distance between geometric entities at asserted c
onnectivities');
#1906=(
GEOMETRIC_REPRESENTATION_CONTEXT(3)
GLOBAL_UNCERTAINTY_ASSIGNED_CONTEXT((#1904))
GLOBAL_UNIT_ASSIGNED_CONTEXT((#1908,#1910,#1911))
REPRESENTATION_CONTEXT('','3D')
);
#1907=(
GEOMETRIC_REPRESENTATION_CONTEXT(3)
GLOBAL_UNCERTAINTY_ASSIGNED_CONTEXT((#1905))
GLOBAL_UNIT_ASSIGNED_CONTEXT((#1908,#1910,#1911))
REPRESENTATION_CONTEXT('','3D')
);
#1908=(
LENGTH_UNIT()
NAMED_UNIT(*)
SI_UNIT(.MILLI.,.METRE.)
);
#1909=(
LENGTH_UNIT()
NAMED_UNIT(*)
SI_UNIT($,.METRE.)
);
#1910=(
NAMED_UNIT(*)
PLANE_ANGLE_UNIT()
SI_UNIT($,.RADIAN.)
);
#1911=(
NAMED_UNIT(*)
SI_UNIT($,.STERADIAN.)
SOLID_ANGLE_UNIT()
);
#1912=SHAPE_DEFINITION_REPRESENTATION(#1913,#1914);
#1913=PRODUCT_DEFINITION_SHAPE('',$,#1916);
#1914=SHAPE_REPRESENTATION('',(#1068),#1906);
#1915=PRODUCT_DEFINITION_CONTEXT('part definition',#1920,'design');
#1916=PRODUCT_DEFINITION('2026-06-28-22-18-40-194','2X4 TOY v2',#1917,#1915);
#1917=PRODUCT_DEFINITION_FORMATION('',$,#1922);
#1918=PRODUCT_RELATED_PRODUCT_CATEGORY('2X4 TOY v2','2X4 TOY v2',(#1922));
#1919=APPLICATION_PROTOCOL_DEFINITION('international standard',
'automotive_design',2009,#1920);
#1920=APPLICATION_CONTEXT(
'Core Data for Automotive Mechanical Design Process');
#1921=PRODUCT_CONTEXT('part definition',#1920,'mechanical');
#1922=PRODUCT('2026-06-28-22-18-40-194','2X4 TOY v2',$,(#1921));
#1923=PRESENTATION_STYLE_ASSIGNMENT((#1924));
#1924=SURFACE_STYLE_USAGE(.BOTH.,#1925);
#1925=SURFACE_SIDE_STYLE('',(#1926));
#1926=SURFACE_STYLE_FILL_AREA(#1927);
#1927=FILL_AREA_STYLE('Steel - Satin',(#1928));
#1928=FILL_AREA_STYLE_COLOUR('Steel - Satin',#1929);
#1929=COLOUR_RGB('Steel - Satin',0.627450980392157,0.627450980392157,0.627450980392157);
ENDSEC;
END-ISO-10303-21;
