ISO-10303-21;
HEADER;
/* Generated by software containing ST-Developer
 * from STEP Tools, Inc. (www.steptools.com) 
 */

FILE_DESCRIPTION(
/* description */ (''),
/* implementation_level */ '2;1');

FILE_NAME(
/* name */ 'd49e9594-5d0c-4e0d-9012-44960a1fb2a5.stp',
/* time_stamp */ '2026-08-04T13:34:28Z',
/* author */ (''),
/* organization */ (''),
/* preprocessor_version */ 'ST-DEVELOPER v20.2',
/* originating_system */ 'Autodesk Translation Framework v15.15.0.0',
/* authorisation */ '');

FILE_SCHEMA (('AUTOMOTIVE_DESIGN { 1 0 10303 214 3 1 1 }'));
ENDSEC;

DATA;
#10=MECHANICAL_DESIGN_GEOMETRIC_PRESENTATION_REPRESENTATION('',(#13),#720);
#11=SHAPE_REPRESENTATION_RELATIONSHIP('SRR','None',#727,#12);
#12=ADVANCED_BREP_SHAPE_REPRESENTATION('',(#14),#719);
#13=STYLED_ITEM('',(#737),#14);
#14=MANIFOLD_SOLID_BREP('Body2',#150);
#15=PLANE('',#183);
#16=CONICAL_SURFACE('',#179,14.,0.785398163397448);
#17=LINE('',#553,#20);
#18=LINE('',#711,#21);
#19=LINE('',#715,#22);
#20=VECTOR('',#212,10.0000001490116);
#21=VECTOR('',#221,14.);
#22=VECTOR('',#226,15.);
#23=CYLINDRICAL_SURFACE('',#174,10.0000001490116);
#24=CYLINDRICAL_SURFACE('',#181,15.);
#25=TOROIDAL_SURFACE('',#170,8.00000011920929,2.00000002980232);
#26=(
BOUNDED_CURVE()
B_SPLINE_CURVE(5,(#372,#373,#374,#375,#376,#377,#378,#379,#380,#381,#382,
#383,#384,#385,#386),.UNSPECIFIED.,.F.,.F.)
B_SPLINE_CURVE_WITH_KNOTS((6,1,1,1,1,1,1,1,1,1,6),(0.,0.1,0.2,0.3,0.4,0.5,
0.6,0.7,0.8,0.9,1.),.UNSPECIFIED.)
CURVE()
GEOMETRIC_REPRESENTATION_ITEM()
RATIONAL_B_SPLINE_CURVE((1.,1.,1.,1.,1.,1.,1.,1.,1.,1.,1.,1.,1.,1.,1.))
REPRESENTATION_ITEM('')
);
#27=(
BOUNDED_CURVE()
B_SPLINE_CURVE(5,(#524,#525,#526,#527,#528,#529,#530,#531,#532,#533,#534,
#535,#536,#537,#538),.UNSPECIFIED.,.F.,.F.)
B_SPLINE_CURVE_WITH_KNOTS((6,1,1,1,1,1,1,1,1,1,6),(0.,0.1,0.2,0.3,0.4,0.5,
0.6,0.7,0.8,0.9,0.999999998793796),.UNSPECIFIED.)
CURVE()
GEOMETRIC_REPRESENTATION_ITEM()
RATIONAL_B_SPLINE_CURVE((1.,1.,1.,1.,1.,1.,1.,1.,1.,1.,1.,1.,1.,1.,1.))
REPRESENTATION_ITEM('')
);
#28=(
BOUNDED_CURVE()
B_SPLINE_CURVE(5,(#690,#691,#692,#693,#694,#695,#696,#697,#698,#699,#700,
#701,#702,#703,#704),.UNSPECIFIED.,.F.,.F.)
B_SPLINE_CURVE_WITH_KNOTS((6,1,1,1,1,1,1,1,1,1,6),(0.,0.1,0.2,0.3,0.4,0.5,
0.6,0.7,0.8,0.9,1.),.UNSPECIFIED.)
CURVE()
GEOMETRIC_REPRESENTATION_ITEM()
RATIONAL_B_SPLINE_CURVE((1.,1.,1.,1.,1.,1.,1.,1.,1.,1.,1.,1.,1.,1.,1.))
REPRESENTATION_ITEM('')
);
#29=(
BOUNDED_SURFACE()
B_SPLINE_SURFACE(5,2,((#236,#237,#238,#239,#240,#241,#242,#243,#244),(#245,
#246,#247,#248,#249,#250,#251,#252,#253),(#254,#255,#256,#257,#258,#259,
#260,#261,#262),(#263,#264,#265,#266,#267,#268,#269,#270,#271),(#272,#273,
#274,#275,#276,#277,#278,#279,#280),(#281,#282,#283,#284,#285,#286,#287,
#288,#289),(#290,#291,#292,#293,#294,#295,#296,#297,#298),(#299,#300,#301,
#302,#303,#304,#305,#306,#307),(#308,#309,#310,#311,#312,#313,#314,#315,
#316),(#317,#318,#319,#320,#321,#322,#323,#324,#325),(#326,#327,#328,#329,
#330,#331,#332,#333,#334),(#335,#336,#337,#338,#339,#340,#341,#342,#343),
(#344,#345,#346,#347,#348,#349,#350,#351,#352),(#353,#354,#355,#356,#357,
#358,#359,#360,#361),(#362,#363,#364,#365,#366,#367,#368,#369,#370)),
 .UNSPECIFIED.,.F.,.T.,.F.)
B_SPLINE_SURFACE_WITH_KNOTS((6,1,1,1,1,1,1,1,1,1,6),(3,2,2,2,3),(-1.,-0.9,
-0.8,-0.7,-0.6,-0.5,-0.4,-0.3,-0.2,-0.1,0.),(0.,1.5707963267949,3.14159265358979,
4.71238898038469,6.28318530717959),.UNSPECIFIED.)
GEOMETRIC_REPRESENTATION_ITEM()
RATIONAL_B_SPLINE_SURFACE(((1.,0.707106781186548,1.,0.707106781186548,1.,
0.707106781186548,1.,0.707106781186548,1.),(1.,0.707106781186548,1.,0.707106781186548,
1.,0.707106781186548,1.,0.707106781186548,1.),(1.,0.707106781186548,1.,
0.707106781186548,1.,0.707106781186548,1.,0.707106781186548,1.),(1.,0.707106781186548,
1.,0.707106781186548,1.,0.707106781186548,1.,0.707106781186548,1.),(1.,
0.707106781186548,1.,0.707106781186548,1.,0.707106781186548,1.,0.707106781186548,
1.),(1.,0.707106781186548,1.,0.707106781186548,1.,0.707106781186548,1.,
0.707106781186548,1.),(1.,0.707106781186548,1.,0.707106781186548,1.,0.707106781186548,
1.,0.707106781186548,1.),(1.,0.707106781186548,1.,0.707106781186548,1.,
0.707106781186548,1.,0.707106781186548,1.),(1.,0.707106781186548,1.,0.707106781186548,
1.,0.707106781186548,1.,0.707106781186548,1.),(1.,0.707106781186548,1.,
0.707106781186548,1.,0.707106781186548,1.,0.707106781186548,1.),(1.,0.707106781186548,
1.,0.707106781186548,1.,0.707106781186548,1.,0.707106781186548,1.),(1.,
0.707106781186548,1.,0.707106781186548,1.,0.707106781186548,1.,0.707106781186548,
1.),(1.,0.707106781186548,1.,0.707106781186548,1.,0.707106781186548,1.,
0.707106781186548,1.),(1.,0.707106781186548,1.,0.707106781186548,1.,0.707106781186548,
1.,0.707106781186548,1.),(1.,0.707106781186548,1.,0.707106781186548,1.,
0.707106781186548,1.,0.707106781186548,1.)))
REPRESENTATION_ITEM('')
SURFACE()
);
#30=(
BOUNDED_SURFACE()
B_SPLINE_SURFACE(5,2,((#388,#389,#390,#391,#392,#393,#394,#395,#396),(#397,
#398,#399,#400,#401,#402,#403,#404,#405),(#406,#407,#408,#409,#410,#411,
#412,#413,#414),(#415,#416,#417,#418,#419,#420,#421,#422,#423),(#424,#425,
#426,#427,#428,#429,#430,#431,#432),(#433,#434,#435,#436,#437,#438,#439,
#440,#441),(#442,#443,#444,#445,#446,#447,#448,#449,#450),(#451,#452,#453,
#454,#455,#456,#457,#458,#459),(#460,#461,#462,#463,#464,#465,#466,#467,
#468),(#469,#470,#471,#472,#473,#474,#475,#476,#477),(#478,#479,#480,#481,
#482,#483,#484,#485,#486),(#487,#488,#489,#490,#491,#492,#493,#494,#495),
(#496,#497,#498,#499,#500,#501,#502,#503,#504),(#505,#506,#507,#508,#509,
#510,#511,#512,#513),(#514,#515,#516,#517,#518,#519,#520,#521,#522)),
 .UNSPECIFIED.,.F.,.T.,.F.)
B_SPLINE_SURFACE_WITH_KNOTS((6,1,1,1,1,1,1,1,1,1,6),(3,2,2,2,3),(-1.,-0.9,
-0.8,-0.7,-0.6,-0.5,-0.4,-0.3,-0.2,-0.1,0.),(0.,1.5707963267949,3.14159265358979,
4.71238898038469,6.28318530717959),.UNSPECIFIED.)
GEOMETRIC_REPRESENTATION_ITEM()
RATIONAL_B_SPLINE_SURFACE(((1.,0.707106781186548,1.,0.707106781186548,1.,
0.707106781186548,1.,0.707106781186548,1.),(1.,0.707106781186548,1.,0.707106781186548,
1.,0.707106781186548,1.,0.707106781186548,1.),(1.,0.707106781186548,1.,
0.707106781186548,1.,0.707106781186548,1.,0.707106781186548,1.),(1.,0.707106781186548,
1.,0.707106781186548,1.,0.707106781186548,1.,0.707106781186548,1.),(1.,
0.707106781186548,1.,0.707106781186548,1.,0.707106781186548,1.,0.707106781186548,
1.),(1.,0.707106781186548,1.,0.707106781186548,1.,0.707106781186548,1.,
0.707106781186548,1.),(1.,0.707106781186548,1.,0.707106781186548,1.,0.707106781186548,
1.,0.707106781186548,1.),(1.,0.707106781186548,1.,0.707106781186548,1.,
0.707106781186548,1.,0.707106781186548,1.),(1.,0.707106781186548,1.,0.707106781186548,
1.,0.707106781186548,1.,0.707106781186548,1.),(1.,0.707106781186548,1.,
0.707106781186548,1.,0.707106781186548,1.,0.707106781186548,1.),(1.,0.707106781186548,
1.,0.707106781186548,1.,0.707106781186548,1.,0.707106781186548,1.),(1.,
0.707106781186548,1.,0.707106781186548,1.,0.707106781186548,1.,0.707106781186548,
1.),(1.,0.707106781186548,1.,0.707106781186548,1.,0.707106781186548,1.,
0.707106781186548,1.),(1.,0.707106781186548,1.,0.707106781186548,1.,0.707106781186548,
1.,0.707106781186548,1.),(1.,0.707106781186548,1.,0.707106781186548,1.,
0.707106781186548,1.,0.707106781186548,1.)))
REPRESENTATION_ITEM('')
SURFACE()
);
#31=(
BOUNDED_SURFACE()
B_SPLINE_SURFACE(5,2,((#554,#555,#556,#557,#558,#559,#560,#561,#562),(#563,
#564,#565,#566,#567,#568,#569,#570,#571),(#572,#573,#574,#575,#576,#577,
#578,#579,#580),(#581,#582,#583,#584,#585,#586,#587,#588,#589),(#590,#591,
#592,#593,#594,#595,#596,#597,#598),(#599,#600,#601,#602,#603,#604,#605,
#606,#607),(#608,#609,#610,#611,#612,#613,#614,#615,#616),(#617,#618,#619,
#620,#621,#622,#623,#624,#625),(#626,#627,#628,#629,#630,#631,#632,#633,
#634),(#635,#636,#637,#638,#639,#640,#641,#642,#643),(#644,#645,#646,#647,
#648,#649,#650,#651,#652),(#653,#654,#655,#656,#657,#658,#659,#660,#661),
(#662,#663,#664,#665,#666,#667,#668,#669,#670),(#671,#672,#673,#674,#675,
#676,#677,#678,#679),(#680,#681,#682,#683,#684,#685,#686,#687,#688)),
 .UNSPECIFIED.,.F.,.T.,.F.)
B_SPLINE_SURFACE_WITH_KNOTS((6,1,1,1,1,1,1,1,1,1,6),(3,2,2,2,3),(-1.,-0.9,
-0.8,-0.7,-0.6,-0.5,-0.4,-0.3,-0.2,-0.1,0.),(0.,1.5707963267949,3.14159265358979,
4.71238898038469,6.28318530717959),.UNSPECIFIED.)
GEOMETRIC_REPRESENTATION_ITEM()
RATIONAL_B_SPLINE_SURFACE(((1.,0.707106781186548,1.,0.707106781186548,1.,
0.707106781186548,1.,0.707106781186548,1.),(1.,0.707106781186548,1.,0.707106781186548,
1.,0.707106781186548,1.,0.707106781186548,1.),(1.,0.707106781186548,1.,
0.707106781186548,1.,0.707106781186548,1.,0.707106781186548,1.),(1.,0.707106781186548,
1.,0.707106781186548,1.,0.707106781186548,1.,0.707106781186548,1.),(1.,
0.707106781186548,1.,0.707106781186548,1.,0.707106781186548,1.,0.707106781186548,
1.),(1.,0.707106781186548,1.,0.707106781186548,1.,0.707106781186548,1.,
0.707106781186548,1.),(1.,0.707106781186548,1.,0.707106781186548,1.,0.707106781186548,
1.,0.707106781186548,1.),(1.,0.707106781186548,1.,0.707106781186548,1.,
0.707106781186548,1.,0.707106781186548,1.),(1.,0.707106781186548,1.,0.707106781186548,
1.,0.707106781186548,1.,0.707106781186548,1.),(1.,0.707106781186548,1.,
0.707106781186548,1.,0.707106781186548,1.,0.707106781186548,1.),(1.,0.707106781186548,
1.,0.707106781186548,1.,0.707106781186548,1.,0.707106781186548,1.),(1.,
0.707106781186548,1.,0.707106781186548,1.,0.707106781186548,1.,0.707106781186548,
1.),(1.,0.707106781186548,1.,0.707106781186548,1.,0.707106781186548,1.,
0.707106781186548,1.),(1.,0.707106781186548,1.,0.707106781186548,1.,0.707106781186548,
1.,0.707106781186548,1.),(1.,0.707106781186548,1.,0.707106781186548,1.,
0.707106781186548,1.,0.707106781186548,1.)))
REPRESENTATION_ITEM('')
SURFACE()
);
#32=FACE_BOUND('',#43,.T.);
#33=FACE_OUTER_BOUND('',#42,.T.);
#34=FACE_OUTER_BOUND('',#44,.T.);
#35=FACE_OUTER_BOUND('',#45,.T.);
#36=FACE_OUTER_BOUND('',#46,.T.);
#37=FACE_OUTER_BOUND('',#47,.T.);
#38=FACE_OUTER_BOUND('',#48,.T.);
#39=FACE_OUTER_BOUND('',#49,.T.);
#40=FACE_OUTER_BOUND('',#50,.T.);
#41=FACE_OUTER_BOUND('',#51,.T.);
#42=EDGE_LOOP('',(#100,#101));
#43=EDGE_LOOP('',(#102));
#44=EDGE_LOOP('',(#103,#104,#105,#106));
#45=EDGE_LOOP('',(#107,#108,#109,#110,#111));
#46=EDGE_LOOP('',(#112,#113,#114,#115,#116,#117));
#47=EDGE_LOOP('',(#118,#119,#120,#121,#122,#123));
#48=EDGE_LOOP('',(#124,#125,#126,#127,#128,#129));
#49=EDGE_LOOP('',(#130,#131,#132,#133,#134));
#50=EDGE_LOOP('',(#135,#136,#137,#138));
#51=EDGE_LOOP('',(#139));
#52=CIRCLE('',#165,9.);
#53=CIRCLE('',#166,6.00000008940697);
#54=CIRCLE('',#167,6.00000008940697);
#55=CIRCLE('',#168,8.0000001143955);
#56=CIRCLE('',#169,8.0000001143955);
#57=CIRCLE('',#171,10.0000001490116);
#58=CIRCLE('',#172,10.0000001490116);
#59=CIRCLE('',#173,2.00000002980232);
#60=CIRCLE('',#175,10.0000001490116);
#61=CIRCLE('',#176,10.0000001490116);
#62=CIRCLE('',#177,13.);
#63=CIRCLE('',#178,13.);
#64=CIRCLE('',#180,15.);
#65=CIRCLE('',#182,15.);
#66=VERTEX_POINT('',#231);
#67=VERTEX_POINT('',#232);
#68=VERTEX_POINT('',#234);
#69=VERTEX_POINT('',#371);
#70=VERTEX_POINT('',#523);
#71=VERTEX_POINT('',#539);
#72=VERTEX_POINT('',#543);
#73=VERTEX_POINT('',#544);
#74=VERTEX_POINT('',#549);
#75=VERTEX_POINT('',#550);
#76=VERTEX_POINT('',#689);
#77=VERTEX_POINT('',#705);
#78=VERTEX_POINT('',#709);
#79=VERTEX_POINT('',#713);
#80=EDGE_CURVE('',#66,#67,#52,.T.);
#81=EDGE_CURVE('',#68,#68,#53,.T.);
#82=EDGE_CURVE('',#68,#69,#26,.T.);
#83=EDGE_CURVE('',#69,#69,#54,.T.);
#84=EDGE_CURVE('',#69,#70,#27,.T.);
#85=EDGE_CURVE('',#71,#70,#55,.T.);
#86=EDGE_CURVE('',#70,#71,#56,.T.);
#87=EDGE_CURVE('',#72,#73,#57,.T.);
#88=EDGE_CURVE('',#73,#72,#58,.T.);
#89=EDGE_CURVE('',#73,#71,#59,.T.);
#90=EDGE_CURVE('',#74,#75,#60,.T.);
#91=EDGE_CURVE('',#75,#74,#61,.T.);
#92=EDGE_CURVE('',#75,#72,#17,.T.);
#93=EDGE_CURVE('',#74,#76,#28,.T.);
#94=EDGE_CURVE('',#77,#76,#62,.T.);
#95=EDGE_CURVE('',#76,#77,#63,.T.);
#96=EDGE_CURVE('',#78,#78,#64,.T.);
#97=EDGE_CURVE('',#78,#77,#18,.T.);
#98=EDGE_CURVE('',#79,#79,#65,.T.);
#99=EDGE_CURVE('',#79,#78,#19,.T.);
#100=ORIENTED_EDGE('',*,*,#80,.T.);
#101=ORIENTED_EDGE('',*,*,#80,.F.);
#102=ORIENTED_EDGE('',*,*,#81,.F.);
#103=ORIENTED_EDGE('',*,*,#82,.F.);
#104=ORIENTED_EDGE('',*,*,#81,.T.);
#105=ORIENTED_EDGE('',*,*,#82,.T.);
#106=ORIENTED_EDGE('',*,*,#83,.F.);
#107=ORIENTED_EDGE('',*,*,#84,.F.);
#108=ORIENTED_EDGE('',*,*,#83,.T.);
#109=ORIENTED_EDGE('',*,*,#84,.T.);
#110=ORIENTED_EDGE('',*,*,#85,.F.);
#111=ORIENTED_EDGE('',*,*,#86,.F.);
#112=ORIENTED_EDGE('',*,*,#87,.F.);
#113=ORIENTED_EDGE('',*,*,#88,.F.);
#114=ORIENTED_EDGE('',*,*,#89,.T.);
#115=ORIENTED_EDGE('',*,*,#85,.T.);
#116=ORIENTED_EDGE('',*,*,#86,.T.);
#117=ORIENTED_EDGE('',*,*,#89,.F.);
#118=ORIENTED_EDGE('',*,*,#90,.F.);
#119=ORIENTED_EDGE('',*,*,#91,.F.);
#120=ORIENTED_EDGE('',*,*,#92,.T.);
#121=ORIENTED_EDGE('',*,*,#87,.T.);
#122=ORIENTED_EDGE('',*,*,#88,.T.);
#123=ORIENTED_EDGE('',*,*,#92,.F.);
#124=ORIENTED_EDGE('',*,*,#93,.F.);
#125=ORIENTED_EDGE('',*,*,#90,.T.);
#126=ORIENTED_EDGE('',*,*,#91,.T.);
#127=ORIENTED_EDGE('',*,*,#93,.T.);
#128=ORIENTED_EDGE('',*,*,#94,.F.);
#129=ORIENTED_EDGE('',*,*,#95,.F.);
#130=ORIENTED_EDGE('',*,*,#96,.F.);
#131=ORIENTED_EDGE('',*,*,#97,.T.);
#132=ORIENTED_EDGE('',*,*,#94,.T.);
#133=ORIENTED_EDGE('',*,*,#95,.T.);
#134=ORIENTED_EDGE('',*,*,#97,.F.);
#135=ORIENTED_EDGE('',*,*,#98,.F.);
#136=ORIENTED_EDGE('',*,*,#99,.T.);
#137=ORIENTED_EDGE('',*,*,#96,.T.);
#138=ORIENTED_EDGE('',*,*,#99,.F.);
#139=ORIENTED_EDGE('',*,*,#98,.T.);
#140=SPHERICAL_SURFACE('',#164,9.);
#141=ADVANCED_FACE('',(#33,#32),#140,.T.);
#142=ADVANCED_FACE('',(#34),#29,.T.);
#143=ADVANCED_FACE('',(#35),#30,.T.);
#144=ADVANCED_FACE('',(#36),#25,.T.);
#145=ADVANCED_FACE('',(#37),#23,.T.);
#146=ADVANCED_FACE('',(#38),#31,.T.);
#147=ADVANCED_FACE('',(#39),#16,.T.);
#148=ADVANCED_FACE('',(#40),#24,.T.);
#149=ADVANCED_FACE('',(#41),#15,.T.);
#150=CLOSED_SHELL('',(#141,#142,#143,#144,#145,#146,#147,#148,#149));
#151=DERIVED_UNIT_ELEMENT(#153,1.);
#152=DERIVED_UNIT_ELEMENT(#722,-3.);
#153=(
MASS_UNIT()
NAMED_UNIT(*)
SI_UNIT(.KILO.,.GRAM.)
);
#154=DERIVED_UNIT((#151,#152));
#155=MEASURE_REPRESENTATION_ITEM('density measure',
POSITIVE_RATIO_MEASURE(7850.),#154);
#156=PROPERTY_DEFINITION_REPRESENTATION(#161,#158);
#157=PROPERTY_DEFINITION_REPRESENTATION(#162,#159);
#158=REPRESENTATION('material name',(#160),#719);
#159=REPRESENTATION('density',(#155),#719);
#160=DESCRIPTIVE_REPRESENTATION_ITEM('Steel','Steel');
#161=PROPERTY_DEFINITION('material property','material name',#729);
#162=PROPERTY_DEFINITION('material property','density of part',#729);
#163=AXIS2_PLACEMENT_3D('',#229,#184,#185);
#164=AXIS2_PLACEMENT_3D('',#230,#186,#187);
#165=AXIS2_PLACEMENT_3D('',#233,#188,#189);
#166=AXIS2_PLACEMENT_3D('',#235,#190,#191);
#167=AXIS2_PLACEMENT_3D('',#387,#192,#193);
#168=AXIS2_PLACEMENT_3D('',#540,#194,#195);
#169=AXIS2_PLACEMENT_3D('',#541,#196,#197);
#170=AXIS2_PLACEMENT_3D('',#542,#198,#199);
#171=AXIS2_PLACEMENT_3D('',#545,#200,#201);
#172=AXIS2_PLACEMENT_3D('',#546,#202,#203);
#173=AXIS2_PLACEMENT_3D('',#547,#204,#205);
#174=AXIS2_PLACEMENT_3D('',#548,#206,#207);
#175=AXIS2_PLACEMENT_3D('',#551,#208,#209);
#176=AXIS2_PLACEMENT_3D('',#552,#210,#211);
#177=AXIS2_PLACEMENT_3D('',#706,#213,#214);
#178=AXIS2_PLACEMENT_3D('',#707,#215,#216);
#179=AXIS2_PLACEMENT_3D('',#708,#217,#218);
#180=AXIS2_PLACEMENT_3D('',#710,#219,#220);
#181=AXIS2_PLACEMENT_3D('',#712,#222,#223);
#182=AXIS2_PLACEMENT_3D('',#714,#224,#225);
#183=AXIS2_PLACEMENT_3D('',#716,#227,#228);
#184=DIRECTION('axis',(0.,0.,1.));
#185=DIRECTION('refdir',(1.,0.,0.));
#186=DIRECTION('center_axis',(4.93432455388958E-17,0.,1.));
#187=DIRECTION('ref_axis',(1.,0.,0.));
#188=DIRECTION('center_axis',(0.,-1.,0.));
#189=DIRECTION('ref_axis',(-1.,0.,0.));
#190=DIRECTION('center_axis',(-2.77555756156289E-17,-1.,0.));
#191=DIRECTION('ref_axis',(1.,-2.77555756156289E-17,0.));
#192=DIRECTION('center_axis',(-2.77555756156289E-17,-1.,0.));
#193=DIRECTION('ref_axis',(1.,-2.77555756156289E-17,0.));
#194=DIRECTION('center_axis',(-2.77555756156289E-17,-1.,0.));
#195=DIRECTION('ref_axis',(1.,-2.77555756156289E-17,0.));
#196=DIRECTION('center_axis',(-2.77555756156289E-17,-1.,0.));
#197=DIRECTION('ref_axis',(1.,-2.77555756156289E-17,0.));
#198=DIRECTION('center_axis',(-2.77555756156289E-17,-1.,0.));
#199=DIRECTION('ref_axis',(0.,0.,-1.));
#200=DIRECTION('center_axis',(-2.77555756156289E-17,-1.,0.));
#201=DIRECTION('ref_axis',(1.,-2.77555756156289E-17,0.));
#202=DIRECTION('center_axis',(-2.77555756156289E-17,-1.,0.));
#203=DIRECTION('ref_axis',(1.,-2.77555756156289E-17,0.));
#204=DIRECTION('center_axis',(-1.,2.77555756156289E-17,-1.24900088409174E-16));
#205=DIRECTION('ref_axis',(-1.24900088409174E-16,0.,1.));
#206=DIRECTION('center_axis',(-2.77555756156289E-17,-1.,0.));
#207=DIRECTION('ref_axis',(1.,0.,0.));
#208=DIRECTION('center_axis',(-2.77555756156289E-17,-1.,0.));
#209=DIRECTION('ref_axis',(1.,-2.77555756156289E-17,0.));
#210=DIRECTION('center_axis',(-2.77555756156289E-17,-1.,0.));
#211=DIRECTION('ref_axis',(1.,-2.77555756156289E-17,0.));
#212=DIRECTION('',(2.77555756156289E-17,1.,0.));
#213=DIRECTION('center_axis',(-2.77555756156289E-17,-1.,0.));
#214=DIRECTION('ref_axis',(1.,-2.77555756156289E-17,0.));
#215=DIRECTION('center_axis',(-2.77555756156289E-17,-1.,0.));
#216=DIRECTION('ref_axis',(1.,-2.77555756156289E-17,0.));
#217=DIRECTION('center_axis',(-2.77555756156289E-17,-1.,0.));
#218=DIRECTION('ref_axis',(1.,0.,0.));
#219=DIRECTION('center_axis',(-2.77555756156289E-17,-1.,0.));
#220=DIRECTION('ref_axis',(1.,-2.77555756156289E-17,0.));
#221=DIRECTION('',(0.707106781186547,0.707106781186548,8.65956056235493E-17));
#222=DIRECTION('center_axis',(-2.77555756156289E-17,-1.,0.));
#223=DIRECTION('ref_axis',(1.,0.,0.));
#224=DIRECTION('center_axis',(-2.77555756156289E-17,-1.,0.));
#225=DIRECTION('ref_axis',(1.,-2.77555756156289E-17,0.));
#226=DIRECTION('',(2.77555756156289E-17,1.,0.));
#227=DIRECTION('center_axis',(-2.77555756156289E-17,-1.,0.));
#228=DIRECTION('ref_axis',(0.,0.,-1.));
#229=CARTESIAN_POINT('',(0.,0.,0.));
#230=CARTESIAN_POINT('Origin',(1.17716716749541,51.3897736076181,2.71035496039843));
#231=CARTESIAN_POINT('',(1.17716716749541,51.3897736076181,11.7103549603984));
#232=CARTESIAN_POINT('',(1.17716716749541,51.3897736076181,-6.28964503960157));
#233=CARTESIAN_POINT('Origin',(1.17716716749541,51.3897736076181,2.71035496039843));
#234=CARTESIAN_POINT('',(7.17716725690238,44.6815697550867,2.71035496039843));
#235=CARTESIAN_POINT('Origin',(1.17716716749541,44.6815697550867,2.71035496039843));
#236=CARTESIAN_POINT('Ctrl Pts',(7.17716725690238,41.4215697550867,2.71035496039843));
#237=CARTESIAN_POINT('Ctrl Pts',(7.17716725690238,41.4215697550867,8.7103550498054));
#238=CARTESIAN_POINT('Ctrl Pts',(1.17716716749541,41.4215697550867,8.7103550498054));
#239=CARTESIAN_POINT('Ctrl Pts',(-4.82283292191155,41.4215697550867,8.7103550498054));
#240=CARTESIAN_POINT('Ctrl Pts',(-4.82283292191156,41.4215697550867,2.71035496039843));
#241=CARTESIAN_POINT('Ctrl Pts',(-4.82283292191155,41.4215697550867,-3.28964512900853));
#242=CARTESIAN_POINT('Ctrl Pts',(1.17716716749541,41.4215697550867,-3.28964512900853));
#243=CARTESIAN_POINT('Ctrl Pts',(7.17716725690238,41.4215697550867,-3.28964512900853));
#244=CARTESIAN_POINT('Ctrl Pts',(7.17716725690238,41.4215697550867,2.71035496039843));
#245=CARTESIAN_POINT('Ctrl Pts',(7.21509105471918,41.4867697550854,2.71035496039843));
#246=CARTESIAN_POINT('Ctrl Pts',(7.21509105471918,41.4867697550854,8.7482788476222));
#247=CARTESIAN_POINT('Ctrl Pts',(1.17716716749541,41.4867697550854,8.7482788476222));
#248=CARTESIAN_POINT('Ctrl Pts',(-4.86075671972836,41.4867697550854,8.7482788476222));
#249=CARTESIAN_POINT('Ctrl Pts',(-4.86075671972836,41.4867697550854,2.71035496039843));
#250=CARTESIAN_POINT('Ctrl Pts',(-4.86075671972836,41.4867697550854,-3.32756892682534));
#251=CARTESIAN_POINT('Ctrl Pts',(1.17716716749541,41.4867697550854,-3.32756892682534));
#252=CARTESIAN_POINT('Ctrl Pts',(7.21509105471918,41.4867697550854,-3.32756892682534));
#253=CARTESIAN_POINT('Ctrl Pts',(7.21509105471918,41.4867697550854,2.71035496039843));
#254=CARTESIAN_POINT('Ctrl Pts',(7.28762678316123,41.617169755083,2.71035496039843));
#255=CARTESIAN_POINT('Ctrl Pts',(7.28762678316123,41.617169755083,8.82081457606425));
#256=CARTESIAN_POINT('Ctrl Pts',(1.17716716749541,41.617169755083,8.82081457606425));
#257=CARTESIAN_POINT('Ctrl Pts',(-4.93329244817041,41.6171697550831,8.82081457606425));
#258=CARTESIAN_POINT('Ctrl Pts',(-4.93329244817041,41.6171697550831,2.71035496039843));
#259=CARTESIAN_POINT('Ctrl Pts',(-4.93329244817041,41.6171697550831,-3.40010465526738));
#260=CARTESIAN_POINT('Ctrl Pts',(1.17716716749541,41.617169755083,-3.40010465526739));
#261=CARTESIAN_POINT('Ctrl Pts',(7.28762678316123,41.617169755083,-3.40010465526738));
#262=CARTESIAN_POINT('Ctrl Pts',(7.28762678316123,41.617169755083,2.71035496039843));
#263=CARTESIAN_POINT('Ctrl Pts',(7.38649507873676,41.8127697550805,2.71035496039843));
#264=CARTESIAN_POINT('Ctrl Pts',(7.38649507873676,41.8127697550805,8.91968287163978));
#265=CARTESIAN_POINT('Ctrl Pts',(1.17716716749541,41.8127697550805,8.91968287163978));
#266=CARTESIAN_POINT('Ctrl Pts',(-5.03216074374593,41.8127697550805,8.91968287163978));
#267=CARTESIAN_POINT('Ctrl Pts',(-5.03216074374593,41.8127697550805,2.71035496039843));
#268=CARTESIAN_POINT('Ctrl Pts',(-5.03216074374593,41.8127697550805,-3.49897295084291));
#269=CARTESIAN_POINT('Ctrl Pts',(1.17716716749541,41.8127697550805,-3.49897295084291));
#270=CARTESIAN_POINT('Ctrl Pts',(7.38649507873676,41.8127697550805,-3.49897295084291));
#271=CARTESIAN_POINT('Ctrl Pts',(7.38649507873676,41.8127697550805,2.71035496039843));
#272=CARTESIAN_POINT('Ctrl Pts',(7.49811933762664,42.073569755079,2.71035496039843));
#273=CARTESIAN_POINT('Ctrl Pts',(7.49811933762664,42.073569755079,9.03130713052966));
#274=CARTESIAN_POINT('Ctrl Pts',(1.17716716749541,42.073569755079,9.03130713052966));
#275=CARTESIAN_POINT('Ctrl Pts',(-5.14378500263581,42.073569755079,9.03130713052966));
#276=CARTESIAN_POINT('Ctrl Pts',(-5.14378500263581,42.073569755079,2.71035496039843));
#277=CARTESIAN_POINT('Ctrl Pts',(-5.14378500263581,42.073569755079,-3.61059720973279));
#278=CARTESIAN_POINT('Ctrl Pts',(1.17716716749541,42.073569755079,-3.61059720973279));
#279=CARTESIAN_POINT('Ctrl Pts',(7.49811933762664,42.073569755079,-3.61059720973279));
#280=CARTESIAN_POINT('Ctrl Pts',(7.49811933762664,42.073569755079,2.71035496039843));
#281=CARTESIAN_POINT('Ctrl Pts',(7.60169787571862,42.3995697550799,2.71035496039843));
#282=CARTESIAN_POINT('Ctrl Pts',(7.60169787571862,42.3995697550799,9.13488566862164));
#283=CARTESIAN_POINT('Ctrl Pts',(1.17716716749541,42.3995697550799,9.13488566862165));
#284=CARTESIAN_POINT('Ctrl Pts',(-5.2473635407278,42.3995697550799,9.13488566862164));
#285=CARTESIAN_POINT('Ctrl Pts',(-5.2473635407278,42.3995697550799,2.71035496039843));
#286=CARTESIAN_POINT('Ctrl Pts',(-5.2473635407278,42.3995697550799,-3.71417574782478));
#287=CARTESIAN_POINT('Ctrl Pts',(1.17716716749541,42.3995697550799,-3.71417574782478));
#288=CARTESIAN_POINT('Ctrl Pts',(7.60169787571862,42.3995697550799,-3.71417574782478));
#289=CARTESIAN_POINT('Ctrl Pts',(7.60169787571862,42.3995697550799,2.71035496039843));
#290=CARTESIAN_POINT('Ctrl Pts',(7.66611165144409,42.7255697550827,2.71035496039843));
#291=CARTESIAN_POINT('Ctrl Pts',(7.66611165144409,42.7255697550827,9.19929944434711));
#292=CARTESIAN_POINT('Ctrl Pts',(1.17716716749541,42.7255697550827,9.19929944434711));
#293=CARTESIAN_POINT('Ctrl Pts',(-5.31177731645326,42.7255697550827,9.19929944434711));
#294=CARTESIAN_POINT('Ctrl Pts',(-5.31177731645326,42.7255697550827,2.71035496039843));
#295=CARTESIAN_POINT('Ctrl Pts',(-5.31177731645326,42.7255697550827,-3.77858952355024));
#296=CARTESIAN_POINT('Ctrl Pts',(1.17716716749541,42.7255697550827,-3.77858952355024));
#297=CARTESIAN_POINT('Ctrl Pts',(7.66611165144409,42.7255697550827,-3.77858952355024));
#298=CARTESIAN_POINT('Ctrl Pts',(7.66611165144409,42.7255697550827,2.71035496039843));
#299=CARTESIAN_POINT('Ctrl Pts',(7.68816452231851,43.0515697550867,2.71035496039843));
#300=CARTESIAN_POINT('Ctrl Pts',(7.68816452231851,43.0515697550867,9.22135231522153));
#301=CARTESIAN_POINT('Ctrl Pts',(1.17716716749541,43.0515697550867,9.22135231522153));
#302=CARTESIAN_POINT('Ctrl Pts',(-5.33383018732768,43.0515697550867,9.22135231522153));
#303=CARTESIAN_POINT('Ctrl Pts',(-5.33383018732768,43.0515697550867,2.71035496039843));
#304=CARTESIAN_POINT('Ctrl Pts',(-5.33383018732768,43.0515697550867,-3.80064239442466));
#305=CARTESIAN_POINT('Ctrl Pts',(1.17716716749541,43.0515697550867,-3.80064239442466));
#306=CARTESIAN_POINT('Ctrl Pts',(7.68816452231851,43.0515697550867,-3.80064239442466));
#307=CARTESIAN_POINT('Ctrl Pts',(7.68816452231851,43.0515697550867,2.71035496039843));
#308=CARTESIAN_POINT('Ctrl Pts',(7.66611165144042,43.3775697550909,2.71035496039843));
#309=CARTESIAN_POINT('Ctrl Pts',(7.66611165144042,43.3775697550909,9.19929944434344));
#310=CARTESIAN_POINT('Ctrl Pts',(1.17716716749541,43.3775697550909,9.19929944434344));
#311=CARTESIAN_POINT('Ctrl Pts',(-5.31177731644959,43.3775697550909,9.19929944434344));
#312=CARTESIAN_POINT('Ctrl Pts',(-5.31177731644959,43.3775697550909,2.71035496039843));
#313=CARTESIAN_POINT('Ctrl Pts',(-5.31177731644959,43.3775697550909,-3.77858952354657));
#314=CARTESIAN_POINT('Ctrl Pts',(1.17716716749541,43.3775697550909,-3.77858952354657));
#315=CARTESIAN_POINT('Ctrl Pts',(7.66611165144042,43.3775697550909,-3.77858952354657));
#316=CARTESIAN_POINT('Ctrl Pts',(7.66611165144042,43.3775697550909,2.71035496039843));
#317=CARTESIAN_POINT('Ctrl Pts',(7.60169787571222,43.7035697550942,2.71035496039843));
#318=CARTESIAN_POINT('Ctrl Pts',(7.60169787571222,43.7035697550942,9.13488566861524));
#319=CARTESIAN_POINT('Ctrl Pts',(1.17716716749541,43.7035697550942,9.13488566861524));
#320=CARTESIAN_POINT('Ctrl Pts',(-5.24736354072139,43.7035697550942,9.13488566861524));
#321=CARTESIAN_POINT('Ctrl Pts',(-5.24736354072139,43.7035697550942,2.71035496039843));
#322=CARTESIAN_POINT('Ctrl Pts',(-5.24736354072139,43.7035697550942,-3.71417574781837));
#323=CARTESIAN_POINT('Ctrl Pts',(1.17716716749541,43.7035697550942,-3.71417574781837));
#324=CARTESIAN_POINT('Ctrl Pts',(7.60169787571222,43.7035697550942,-3.71417574781837));
#325=CARTESIAN_POINT('Ctrl Pts',(7.60169787571222,43.7035697550942,2.71035496039843));
#326=CARTESIAN_POINT('Ctrl Pts',(7.4981193376193,44.0295697550955,2.71035496039843));
#327=CARTESIAN_POINT('Ctrl Pts',(7.4981193376193,44.0295697550955,9.03130713052232));
#328=CARTESIAN_POINT('Ctrl Pts',(1.17716716749541,44.0295697550955,9.03130713052232));
#329=CARTESIAN_POINT('Ctrl Pts',(-5.14378500262848,44.0295697550955,9.03130713052232));
#330=CARTESIAN_POINT('Ctrl Pts',(-5.14378500262848,44.0295697550955,2.71035496039843));
#331=CARTESIAN_POINT('Ctrl Pts',(-5.14378500262848,44.0295697550955,-3.61059720972546));
#332=CARTESIAN_POINT('Ctrl Pts',(1.17716716749541,44.0295697550955,-3.61059720972546));
#333=CARTESIAN_POINT('Ctrl Pts',(7.4981193376193,44.0295697550955,-3.61059720972546));
#334=CARTESIAN_POINT('Ctrl Pts',(7.4981193376193,44.0295697550955,2.71035496039843));
#335=CARTESIAN_POINT('Ctrl Pts',(7.38649507873078,44.290369755094,2.71035496039843));
#336=CARTESIAN_POINT('Ctrl Pts',(7.38649507873077,44.290369755094,8.9196828716338));
#337=CARTESIAN_POINT('Ctrl Pts',(1.17716716749541,44.290369755094,8.9196828716338));
#338=CARTESIAN_POINT('Ctrl Pts',(-5.03216074373995,44.290369755094,8.9196828716338));
#339=CARTESIAN_POINT('Ctrl Pts',(-5.03216074373995,44.290369755094,2.71035496039843));
#340=CARTESIAN_POINT('Ctrl Pts',(-5.03216074373995,44.290369755094,-3.49897295083693));
#341=CARTESIAN_POINT('Ctrl Pts',(1.17716716749541,44.290369755094,-3.49897295083693));
#342=CARTESIAN_POINT('Ctrl Pts',(7.38649507873077,44.290369755094,-3.49897295083693));
#343=CARTESIAN_POINT('Ctrl Pts',(7.38649507873078,44.290369755094,2.71035496039843));
#344=CARTESIAN_POINT('Ctrl Pts',(7.28762678315768,44.4859697550911,2.71035496039843));
#345=CARTESIAN_POINT('Ctrl Pts',(7.28762678315768,44.4859697550911,8.8208145760607));
#346=CARTESIAN_POINT('Ctrl Pts',(1.17716716749541,44.4859697550911,8.8208145760607));
#347=CARTESIAN_POINT('Ctrl Pts',(-4.93329244816686,44.4859697550911,8.8208145760607));
#348=CARTESIAN_POINT('Ctrl Pts',(-4.93329244816686,44.4859697550911,2.71035496039843));
#349=CARTESIAN_POINT('Ctrl Pts',(-4.93329244816686,44.4859697550911,-3.40010465526384));
#350=CARTESIAN_POINT('Ctrl Pts',(1.17716716749541,44.4859697550911,-3.40010465526384));
#351=CARTESIAN_POINT('Ctrl Pts',(7.28762678315768,44.4859697550911,-3.40010465526384));
#352=CARTESIAN_POINT('Ctrl Pts',(7.28762678315768,44.4859697550911,2.71035496039843));
#353=CARTESIAN_POINT('Ctrl Pts',(7.21509105471789,44.6163697550883,2.71035496039843));
#354=CARTESIAN_POINT('Ctrl Pts',(7.21509105471789,44.6163697550883,8.74827884762091));
#355=CARTESIAN_POINT('Ctrl Pts',(1.17716716749541,44.6163697550883,8.74827884762091));
#356=CARTESIAN_POINT('Ctrl Pts',(-4.86075671972707,44.6163697550883,8.74827884762091));
#357=CARTESIAN_POINT('Ctrl Pts',(-4.86075671972707,44.6163697550883,2.71035496039843));
#358=CARTESIAN_POINT('Ctrl Pts',(-4.86075671972707,44.6163697550883,-3.32756892682405));
#359=CARTESIAN_POINT('Ctrl Pts',(1.17716716749541,44.6163697550883,-3.32756892682405));
#360=CARTESIAN_POINT('Ctrl Pts',(7.21509105471789,44.6163697550883,-3.32756892682405));
#361=CARTESIAN_POINT('Ctrl Pts',(7.21509105471789,44.6163697550883,2.71035496039843));
#362=CARTESIAN_POINT('Ctrl Pts',(7.17716725690238,44.6815697550867,2.71035496039843));
#363=CARTESIAN_POINT('Ctrl Pts',(7.17716725690238,44.6815697550867,8.7103550498054));
#364=CARTESIAN_POINT('Ctrl Pts',(1.17716716749541,44.6815697550867,8.7103550498054));
#365=CARTESIAN_POINT('Ctrl Pts',(-4.82283292191155,44.6815697550867,8.7103550498054));
#366=CARTESIAN_POINT('Ctrl Pts',(-4.82283292191156,44.6815697550867,2.71035496039843));
#367=CARTESIAN_POINT('Ctrl Pts',(-4.82283292191155,44.6815697550867,-3.28964512900853));
#368=CARTESIAN_POINT('Ctrl Pts',(1.17716716749541,44.6815697550867,-3.28964512900853));
#369=CARTESIAN_POINT('Ctrl Pts',(7.17716725690238,44.6815697550867,-3.28964512900853));
#370=CARTESIAN_POINT('Ctrl Pts',(7.17716725690238,44.6815697550867,2.71035496039843));
#371=CARTESIAN_POINT('',(7.17716725690238,41.4215697550867,2.71035496039843));
#372=CARTESIAN_POINT('Ctrl Pts',(7.17716725690238,44.6815697550867,2.71035496039843));
#373=CARTESIAN_POINT('Ctrl Pts',(7.21509105471789,44.6163697550883,2.71035496039843));
#374=CARTESIAN_POINT('Ctrl Pts',(7.28762678315768,44.4859697550911,2.71035496039843));
#375=CARTESIAN_POINT('Ctrl Pts',(7.38649507873078,44.290369755094,2.71035496039843));
#376=CARTESIAN_POINT('Ctrl Pts',(7.4981193376193,44.0295697550955,2.71035496039843));
#377=CARTESIAN_POINT('Ctrl Pts',(7.60169787571222,43.7035697550942,2.71035496039843));
#378=CARTESIAN_POINT('Ctrl Pts',(7.66611165144042,43.3775697550909,2.71035496039843));
#379=CARTESIAN_POINT('Ctrl Pts',(7.68816452231851,43.0515697550867,2.71035496039843));
#380=CARTESIAN_POINT('Ctrl Pts',(7.66611165144409,42.7255697550827,2.71035496039843));
#381=CARTESIAN_POINT('Ctrl Pts',(7.60169787571862,42.3995697550799,2.71035496039843));
#382=CARTESIAN_POINT('Ctrl Pts',(7.49811933762664,42.073569755079,2.71035496039843));
#383=CARTESIAN_POINT('Ctrl Pts',(7.38649507873676,41.8127697550805,2.71035496039843));
#384=CARTESIAN_POINT('Ctrl Pts',(7.28762678316123,41.617169755083,2.71035496039843));
#385=CARTESIAN_POINT('Ctrl Pts',(7.21509105471918,41.4867697550854,2.71035496039843));
#386=CARTESIAN_POINT('Ctrl Pts',(7.17716725690238,41.4215697550867,2.71035496039843));
#387=CARTESIAN_POINT('Origin',(1.17716716749541,41.4215697550867,2.71035496039843));
#388=CARTESIAN_POINT('Ctrl Pts',(9.17716727973691,17.3615697839362,2.71035496039843));
#389=CARTESIAN_POINT('Ctrl Pts',(9.17716727973691,17.3615697839362,10.7103550726399));
#390=CARTESIAN_POINT('Ctrl Pts',(1.17716716749541,17.3615697839362,10.7103550726399));
#391=CARTESIAN_POINT('Ctrl Pts',(-6.82283294474608,17.3615697839362,10.7103550726399));
#392=CARTESIAN_POINT('Ctrl Pts',(-6.82283294474609,17.3615697839362,2.71035496039843));
#393=CARTESIAN_POINT('Ctrl Pts',(-6.82283294474608,17.3615697839362,-5.28964515184306));
#394=CARTESIAN_POINT('Ctrl Pts',(1.17716716749541,17.3615697839362,-5.28964515184306));
#395=CARTESIAN_POINT('Ctrl Pts',(9.17716727973691,17.3615697839362,-5.28964515184306));
#396=CARTESIAN_POINT('Ctrl Pts',(9.17716727973691,17.3615697839362,2.71035496039843));
#397=CARTESIAN_POINT('Ctrl Pts',(9.06163466756539,17.8399219771597,2.71035496039843));
#398=CARTESIAN_POINT('Ctrl Pts',(9.06163466756539,17.8399219771597,10.5948224604684));
#399=CARTESIAN_POINT('Ctrl Pts',(1.17716716749541,17.8399219771597,10.5948224604684));
#400=CARTESIAN_POINT('Ctrl Pts',(-6.70730033257457,17.8399219771597,10.5948224604684));
#401=CARTESIAN_POINT('Ctrl Pts',(-6.70730033257457,17.8399219771597,2.71035496039843));
#402=CARTESIAN_POINT('Ctrl Pts',(-6.70730033257457,17.8399219771597,-5.17411253967155));
#403=CARTESIAN_POINT('Ctrl Pts',(1.17716716749541,17.8399219771597,-5.17411253967155));
#404=CARTESIAN_POINT('Ctrl Pts',(9.06163466756539,17.8399219771597,-5.17411253967155));
#405=CARTESIAN_POINT('Ctrl Pts',(9.06163466756539,17.8399219771597,2.71035496039843));
#406=CARTESIAN_POINT('Ctrl Pts',(8.83715608541049,18.7968746706383,2.71035496039843));
#407=CARTESIAN_POINT('Ctrl Pts',(8.83715608541049,18.7968746706383,10.3703438783135));
#408=CARTESIAN_POINT('Ctrl Pts',(1.17716716749541,18.7968746706383,10.3703438783135));
#409=CARTESIAN_POINT('Ctrl Pts',(-6.48282175041967,18.7968746706383,10.3703438783135));
#410=CARTESIAN_POINT('Ctrl Pts',(-6.48282175041967,18.7968746706383,2.71035496039843));
#411=CARTESIAN_POINT('Ctrl Pts',(-6.48282175041967,18.7968746706383,-4.94963395751664));
#412=CARTESIAN_POINT('Ctrl Pts',(1.17716716749541,18.7968746706383,-4.94963395751665));
#413=CARTESIAN_POINT('Ctrl Pts',(8.83715608541049,18.7968746706383,-4.94963395751664));
#414=CARTESIAN_POINT('Ctrl Pts',(8.83715608541049,18.7968746706383,2.71035496039843));
#415=CARTESIAN_POINT('Ctrl Pts',(8.52019745622937,20.2330487375478,2.71035496039843));
#416=CARTESIAN_POINT('Ctrl Pts',(8.52019745622937,20.2330487375478,10.0533852491324));
#417=CARTESIAN_POINT('Ctrl Pts',(1.17716716749541,20.2330487375478,10.0533852491324));
#418=CARTESIAN_POINT('Ctrl Pts',(-6.16586312123855,20.2330487375478,10.0533852491324));
#419=CARTESIAN_POINT('Ctrl Pts',(-6.16586312123855,20.2330487375478,2.71035496039843));
#420=CARTESIAN_POINT('Ctrl Pts',(-6.16586312123855,20.2330487375478,-4.63267532833552));
#421=CARTESIAN_POINT('Ctrl Pts',(1.17716716749541,20.2330487375478,-4.63267532833553));
#422=CARTESIAN_POINT('Ctrl Pts',(8.52019745622937,20.2330487375478,-4.63267532833552));
#423=CARTESIAN_POINT('Ctrl Pts',(8.52019745622937,20.2330487375478,2.71035496039843));
#424=CARTESIAN_POINT('Ctrl Pts',(8.13776025685701,22.1494621856974,2.71035496039843));
#425=CARTESIAN_POINT('Ctrl Pts',(8.13776025685701,22.1494621856974,9.67094804976004));
#426=CARTESIAN_POINT('Ctrl Pts',(1.17716716749541,22.1494621856974,9.67094804976004));
#427=CARTESIAN_POINT('Ctrl Pts',(-5.78342592186619,22.1494621856974,9.67094804976004));
#428=CARTESIAN_POINT('Ctrl Pts',(-5.78342592186619,22.1494621856974,2.71035496039843));
#429=CARTESIAN_POINT('Ctrl Pts',(-5.78342592186619,22.1494621856974,-4.25023812896317));
#430=CARTESIAN_POINT('Ctrl Pts',(1.17716716749541,22.1494621856974,-4.25023812896317));
#431=CARTESIAN_POINT('Ctrl Pts',(8.13776025685701,22.1494621856974,-4.25023812896317));
#432=CARTESIAN_POINT('Ctrl Pts',(8.13776025685701,22.1494621856974,2.71035496039843));
#433=CARTESIAN_POINT('Ctrl Pts',(7.73122349877131,24.5476751283702,2.71035496039843));
#434=CARTESIAN_POINT('Ctrl Pts',(7.73122349877131,24.5476751283702,9.26441129167433));
#435=CARTESIAN_POINT('Ctrl Pts',(1.17716716749541,24.5476751283702,9.26441129167433));
#436=CARTESIAN_POINT('Ctrl Pts',(-5.37688916378049,24.5476751283702,9.26441129167433));
#437=CARTESIAN_POINT('Ctrl Pts',(-5.37688916378049,24.5476751283702,2.71035496039843));
#438=CARTESIAN_POINT('Ctrl Pts',(-5.37688916378049,24.5476751283702,-3.84370137087747));
#439=CARTESIAN_POINT('Ctrl Pts',(1.17716716749541,24.5476751283702,-3.84370137087747));
#440=CARTESIAN_POINT('Ctrl Pts',(7.73122349877131,24.5476751283702,-3.84370137087747));
#441=CARTESIAN_POINT('Ctrl Pts',(7.73122349877131,24.5476751283702,2.71035496039843));
#442=CARTESIAN_POINT('Ctrl Pts',(7.4026196186738,26.9488263751195,2.71035496039843));
#443=CARTESIAN_POINT('Ctrl Pts',(7.4026196186738,26.9488263751195,8.93580741157682));
#444=CARTESIAN_POINT('Ctrl Pts',(1.17716716749541,26.9488263751195,8.93580741157682));
#445=CARTESIAN_POINT('Ctrl Pts',(-5.04828528368298,26.9488263751195,8.93580741157682));
#446=CARTESIAN_POINT('Ctrl Pts',(-5.04828528368298,26.9488263751195,2.71035496039843));
#447=CARTESIAN_POINT('Ctrl Pts',(-5.04828528368298,26.9488263751195,-3.51509749077996));
#448=CARTESIAN_POINT('Ctrl Pts',(1.17716716749541,26.9488263751195,-3.51509749077996));
#449=CARTESIAN_POINT('Ctrl Pts',(7.4026196186738,26.9488263751195,-3.51509749077996));
#450=CARTESIAN_POINT('Ctrl Pts',(7.4026196186738,26.9488263751195,2.71035496039843));
#451=CARTESIAN_POINT('Ctrl Pts',(7.15835940517983,29.3531576319699,2.71035496039843));
#452=CARTESIAN_POINT('Ctrl Pts',(7.15835940517983,29.3531576319699,8.69154719808285));
#453=CARTESIAN_POINT('Ctrl Pts',(1.17716716749541,29.3531576319699,8.69154719808285));
#454=CARTESIAN_POINT('Ctrl Pts',(-4.80402507018901,29.3531576319699,8.69154719808285));
#455=CARTESIAN_POINT('Ctrl Pts',(-4.80402507018901,29.3531576319699,2.71035496039843));
#456=CARTESIAN_POINT('Ctrl Pts',(-4.80402507018901,29.3531576319699,-3.27083727728599));
#457=CARTESIAN_POINT('Ctrl Pts',(1.17716716749541,29.3531576319699,-3.27083727728599));
#458=CARTESIAN_POINT('Ctrl Pts',(7.15835940517983,29.3531576319699,-3.27083727728599));
#459=CARTESIAN_POINT('Ctrl Pts',(7.15835940517983,29.3531576319699,2.71035496039843));
#460=CARTESIAN_POINT('Ctrl Pts',(7.0020349540588,31.7608043317419,2.71035496039843));
#461=CARTESIAN_POINT('Ctrl Pts',(7.0020349540588,31.7608043317419,8.53522274696182));
#462=CARTESIAN_POINT('Ctrl Pts',(1.17716716749541,31.7608043317419,8.53522274696182));
#463=CARTESIAN_POINT('Ctrl Pts',(-4.64770061906798,31.7608043317419,8.53522274696182));
#464=CARTESIAN_POINT('Ctrl Pts',(-4.64770061906798,31.7608043317419,2.71035496039843));
#465=CARTESIAN_POINT('Ctrl Pts',(-4.64770061906798,31.7608043317419,-3.11451282616496));
#466=CARTESIAN_POINT('Ctrl Pts',(1.17716716749541,31.7608043317419,-3.11451282616496));
#467=CARTESIAN_POINT('Ctrl Pts',(7.0020349540588,31.7608043317419,-3.11451282616496));
#468=CARTESIAN_POINT('Ctrl Pts',(7.0020349540588,31.7608043317419,2.71035496039843));
#469=CARTESIAN_POINT('Ctrl Pts',(6.93028218368431,34.1716396384311,2.71035496039843));
#470=CARTESIAN_POINT('Ctrl Pts',(6.93028218368431,34.1716396384311,8.46346997658733));
#471=CARTESIAN_POINT('Ctrl Pts',(1.17716716749541,34.1716396384311,8.46346997658734));
#472=CARTESIAN_POINT('Ctrl Pts',(-4.57594784869349,34.1716396384311,8.46346997658733));
#473=CARTESIAN_POINT('Ctrl Pts',(-4.57594784869349,34.1716396384311,2.71035496039843));
#474=CARTESIAN_POINT('Ctrl Pts',(-4.57594784869349,34.1716396384311,-3.04276005579047));
#475=CARTESIAN_POINT('Ctrl Pts',(1.17716716749541,34.1716396384311,-3.04276005579047));
#476=CARTESIAN_POINT('Ctrl Pts',(6.93028218368431,34.1716396384311,-3.04276005579047));
#477=CARTESIAN_POINT('Ctrl Pts',(6.93028218368431,34.1716396384311,2.71035496039843));
#478=CARTESIAN_POINT('Ctrl Pts',(6.93676745255166,36.5854247546879,2.71035496039843));
#479=CARTESIAN_POINT('Ctrl Pts',(6.93676745255166,36.5854247546879,8.46995524545468));
#480=CARTESIAN_POINT('Ctrl Pts',(1.17716716749541,36.5854247546879,8.46995524545468));
#481=CARTESIAN_POINT('Ctrl Pts',(-4.58243311756083,36.5854247546879,8.46995524545468));
#482=CARTESIAN_POINT('Ctrl Pts',(-4.58243311756083,36.5854247546879,2.71035496039843));
#483=CARTESIAN_POINT('Ctrl Pts',(-4.58243311756083,36.5854247546879,-3.04924532465781));
#484=CARTESIAN_POINT('Ctrl Pts',(1.17716716749541,36.5854247546879,-3.04924532465781));
#485=CARTESIAN_POINT('Ctrl Pts',(6.93676745255166,36.5854247546879,-3.04924532465781));
#486=CARTESIAN_POINT('Ctrl Pts',(6.93676745255166,36.5854247546879,2.71035496039843));
#487=CARTESIAN_POINT('Ctrl Pts',(6.99943537022423,38.5186200054876,2.71035496039843));
#488=CARTESIAN_POINT('Ctrl Pts',(6.99943537022423,38.5186200054876,8.53262316312725));
#489=CARTESIAN_POINT('Ctrl Pts',(1.17716716749541,38.5186200054876,8.53262316312725));
#490=CARTESIAN_POINT('Ctrl Pts',(-4.6451010352334,38.5186200054876,8.53262316312725));
#491=CARTESIAN_POINT('Ctrl Pts',(-4.6451010352334,38.5186200054876,2.71035496039843));
#492=CARTESIAN_POINT('Ctrl Pts',(-4.6451010352334,38.5186200054876,-3.11191324233038));
#493=CARTESIAN_POINT('Ctrl Pts',(1.17716716749541,38.5186200054876,-3.11191324233038));
#494=CARTESIAN_POINT('Ctrl Pts',(6.99943537022423,38.5186200054876,-3.11191324233038));
#495=CARTESIAN_POINT('Ctrl Pts',(6.99943537022423,38.5186200054876,2.71035496039843));
#496=CARTESIAN_POINT('Ctrl Pts',(7.07671731133757,39.9696581285369,2.71035496039843));
#497=CARTESIAN_POINT('Ctrl Pts',(7.07671731133757,39.9696581285369,8.60990510424059));
#498=CARTESIAN_POINT('Ctrl Pts',(1.17716716749541,39.9696581285369,8.60990510424059));
#499=CARTESIAN_POINT('Ctrl Pts',(-4.72238297634675,39.9696581285369,8.60990510424059));
#500=CARTESIAN_POINT('Ctrl Pts',(-4.72238297634675,39.9696581285369,2.71035496039843));
#501=CARTESIAN_POINT('Ctrl Pts',(-4.72238297634675,39.9696581285369,-3.18919518344372));
#502=CARTESIAN_POINT('Ctrl Pts',(1.17716716749541,39.9696581285369,-3.18919518344372));
#503=CARTESIAN_POINT('Ctrl Pts',(7.07671731133757,39.9696581285369,-3.18919518344372));
#504=CARTESIAN_POINT('Ctrl Pts',(7.07671731133757,39.9696581285369,2.71035496039843));
#505=CARTESIAN_POINT('Ctrl Pts',(7.14147741175575,40.9375160200827,2.71035496039843));
#506=CARTESIAN_POINT('Ctrl Pts',(7.14147741175575,40.9375160200827,8.67466520465877));
#507=CARTESIAN_POINT('Ctrl Pts',(1.17716716749541,40.9375160200827,8.67466520465877));
#508=CARTESIAN_POINT('Ctrl Pts',(-4.78714307676492,40.9375160200827,8.67466520465877));
#509=CARTESIAN_POINT('Ctrl Pts',(-4.78714307676492,40.9375160200827,2.71035496039843));
#510=CARTESIAN_POINT('Ctrl Pts',(-4.78714307676492,40.9375160200827,-3.2539552838619));
#511=CARTESIAN_POINT('Ctrl Pts',(1.17716716749541,40.9375160200827,-3.2539552838619));
#512=CARTESIAN_POINT('Ctrl Pts',(7.14147741175575,40.9375160200827,-3.2539552838619));
#513=CARTESIAN_POINT('Ctrl Pts',(7.14147741175575,40.9375160200827,2.71035496039843));
#514=CARTESIAN_POINT('Ctrl Pts',(7.17716725690238,41.4215697550867,2.71035496039843));
#515=CARTESIAN_POINT('Ctrl Pts',(7.17716725690238,41.4215697550867,8.7103550498054));
#516=CARTESIAN_POINT('Ctrl Pts',(1.17716716749541,41.4215697550867,8.7103550498054));
#517=CARTESIAN_POINT('Ctrl Pts',(-4.82283292191155,41.4215697550867,8.7103550498054));
#518=CARTESIAN_POINT('Ctrl Pts',(-4.82283292191156,41.4215697550867,2.71035496039843));
#519=CARTESIAN_POINT('Ctrl Pts',(-4.82283292191155,41.4215697550867,-3.28964512900853));
#520=CARTESIAN_POINT('Ctrl Pts',(1.17716716749541,41.4215697550867,-3.28964512900853));
#521=CARTESIAN_POINT('Ctrl Pts',(7.17716725690238,41.4215697550867,-3.28964512900853));
#522=CARTESIAN_POINT('Ctrl Pts',(7.17716725690238,41.4215697550867,2.71035496039843));
#523=CARTESIAN_POINT('',(9.17716728189092,17.3615697844565,2.71035496039843));
#524=CARTESIAN_POINT('Ctrl Pts',(7.17716725690238,41.4215697550867,2.71035496039843));
#525=CARTESIAN_POINT('Ctrl Pts',(7.14147741175575,40.9375160200827,2.71035496039843));
#526=CARTESIAN_POINT('Ctrl Pts',(7.07671731133757,39.9696581285369,2.71035496039843));
#527=CARTESIAN_POINT('Ctrl Pts',(6.99943537022423,38.5186200054876,2.71035496039843));
#528=CARTESIAN_POINT('Ctrl Pts',(6.93676745255166,36.5854247546879,2.71035496039843));
#529=CARTESIAN_POINT('Ctrl Pts',(6.93028218368431,34.1716396384311,2.71035496039843));
#530=CARTESIAN_POINT('Ctrl Pts',(7.0020349540588,31.7608043317419,2.71035496039843));
#531=CARTESIAN_POINT('Ctrl Pts',(7.15835940517983,29.3531576319699,2.71035496039843));
#532=CARTESIAN_POINT('Ctrl Pts',(7.4026196186738,26.9488263751195,2.71035496039843));
#533=CARTESIAN_POINT('Ctrl Pts',(7.73122349877131,24.5476751283702,2.71035496039843));
#534=CARTESIAN_POINT('Ctrl Pts',(8.13776025587628,22.1494621914829,2.71035496039843));
#535=CARTESIAN_POINT('Ctrl Pts',(8.52019745392288,20.2330487491058,2.71035496039843));
#536=CARTESIAN_POINT('Ctrl Pts',(8.83715608158733,18.7968746879614,2.71035496039843));
#537=CARTESIAN_POINT('Ctrl Pts',(9.06163466896634,17.8399219713591,2.71035496039843));
#538=CARTESIAN_POINT('Ctrl Pts',(9.17716727973691,17.3615697839362,2.71035496039843));
#539=CARTESIAN_POINT('',(1.17716716749541,17.3615697844565,10.7103550747939));
#540=CARTESIAN_POINT('Origin',(1.17716716749541,17.3615697844565,2.71035496039843));
#541=CARTESIAN_POINT('Origin',(1.17716716749541,17.3615697844565,2.71035496039843));
#542=CARTESIAN_POINT('Origin',(1.17716716749541,15.3615697550867,2.71035496039843));
#543=CARTESIAN_POINT('',(-8.8228329815162,15.3615697550867,2.71035496039843));
#544=CARTESIAN_POINT('',(1.17716716749541,15.3615697550867,12.71035510941));
#545=CARTESIAN_POINT('Origin',(1.17716716749541,15.3615697550867,2.71035496039843));
#546=CARTESIAN_POINT('Origin',(1.17716716749541,15.3615697550867,2.71035496039843));
#547=CARTESIAN_POINT('Origin',(1.17716716749541,15.3615697550867,10.7103550796077));
#548=CARTESIAN_POINT('Origin',(1.17716716749541,14.8615697550867,2.71035496039843));
#549=CARTESIAN_POINT('',(11.177167316507,14.3615697550867,2.71035496039843));
#550=CARTESIAN_POINT('',(-8.8228329815162,14.3615697550867,2.71035496039843));
#551=CARTESIAN_POINT('Origin',(1.17716716749541,14.3615697550867,2.71035496039843));
#552=CARTESIAN_POINT('Origin',(1.17716716749541,14.3615697550867,2.71035496039843));
#553=CARTESIAN_POINT('',(-8.8228329815162,14.8615697550867,2.71035496039843));
#554=CARTESIAN_POINT('Ctrl Pts',(14.1771671674954,5.39156975508672,2.71035496039843));
#555=CARTESIAN_POINT('Ctrl Pts',(14.1771671674954,5.39156975508672,15.7103549603984));
#556=CARTESIAN_POINT('Ctrl Pts',(1.17716716749541,5.39156975508672,15.7103549603984));
#557=CARTESIAN_POINT('Ctrl Pts',(-11.8228328325046,5.39156975508672,15.7103549603984));
#558=CARTESIAN_POINT('Ctrl Pts',(-11.8228328325046,5.39156975508672,2.71035496039843));
#559=CARTESIAN_POINT('Ctrl Pts',(-11.8228328325046,5.39156975508672,-10.2896450396016));
#560=CARTESIAN_POINT('Ctrl Pts',(1.17716716749541,5.39156975508672,-10.2896450396016));
#561=CARTESIAN_POINT('Ctrl Pts',(14.1771671674954,5.39156975508672,-10.2896450396016));
#562=CARTESIAN_POINT('Ctrl Pts',(14.1771671674954,5.39156975508672,2.71035496039843));
#563=CARTESIAN_POINT('Ctrl Pts',(14.304319426318,5.59021049680945,2.71035496039843));
#564=CARTESIAN_POINT('Ctrl Pts',(14.304319426318,5.59021049680945,15.837507219221));
#565=CARTESIAN_POINT('Ctrl Pts',(1.17716716749541,5.59021049680945,15.837507219221));
#566=CARTESIAN_POINT('Ctrl Pts',(-11.9499850913271,5.59021049680945,15.837507219221));
#567=CARTESIAN_POINT('Ctrl Pts',(-11.9499850913271,5.59021049680945,2.71035496039843));
#568=CARTESIAN_POINT('Ctrl Pts',(-11.9499850913271,5.59021049680945,-10.4167972984241));
#569=CARTESIAN_POINT('Ctrl Pts',(1.17716716749541,5.59021049680945,-10.4167972984241));
#570=CARTESIAN_POINT('Ctrl Pts',(14.304319426318,5.59021049680945,-10.4167972984241));
#571=CARTESIAN_POINT('Ctrl Pts',(14.304319426318,5.59021049680945,2.71035496039843));
#572=CARTESIAN_POINT('Ctrl Pts',(14.5418501368627,5.98576749935777,2.71035496039843));
#573=CARTESIAN_POINT('Ctrl Pts',(14.5418501368627,5.98576749935777,16.0750379297657));
#574=CARTESIAN_POINT('Ctrl Pts',(1.17716716749541,5.98576749935777,16.0750379297657));
#575=CARTESIAN_POINT('Ctrl Pts',(-12.1875158018719,5.98576749935777,16.0750379297657));
#576=CARTESIAN_POINT('Ctrl Pts',(-12.1875158018719,5.98576749935777,2.71035496039843));
#577=CARTESIAN_POINT('Ctrl Pts',(-12.1875158018719,5.98576749935777,-10.6543280089689));
#578=CARTESIAN_POINT('Ctrl Pts',(1.17716716749541,5.98576749935777,-10.6543280089689));
#579=CARTESIAN_POINT('Ctrl Pts',(14.5418501368627,5.98576749935777,-10.6543280089689));
#580=CARTESIAN_POINT('Ctrl Pts',(14.5418501368627,5.98576749935777,2.71035496039843));
#581=CARTESIAN_POINT('Ctrl Pts',(14.8478240255593,6.57392948278465,2.71035496039843));
#582=CARTESIAN_POINT('Ctrl Pts',(14.8478240255593,6.57392948278465,16.3810118184623));
#583=CARTESIAN_POINT('Ctrl Pts',(1.17716716749541,6.57392948278465,16.3810118184623));
#584=CARTESIAN_POINT('Ctrl Pts',(-12.4934896905685,6.57392948278465,16.3810118184623));
#585=CARTESIAN_POINT('Ctrl Pts',(-12.4934896905685,6.57392948278465,2.71035496039843));
#586=CARTESIAN_POINT('Ctrl Pts',(-12.4934896905685,6.57392948278465,-10.9603018976655));
#587=CARTESIAN_POINT('Ctrl Pts',(1.17716716749541,6.57392948278465,-10.9603018976655));
#588=CARTESIAN_POINT('Ctrl Pts',(14.8478240255593,6.57392948278465,-10.9603018976655));
#589=CARTESIAN_POINT('Ctrl Pts',(14.8478240255593,6.57392948278465,2.71035496039843));
#590=CARTESIAN_POINT('Ctrl Pts',(15.1534956357624,7.34762886690127,2.71035496039843));
#591=CARTESIAN_POINT('Ctrl Pts',(15.1534956357624,7.34762886690127,16.6866834286654));
#592=CARTESIAN_POINT('Ctrl Pts',(1.17716716749541,7.34762886690127,16.6866834286654));
#593=CARTESIAN_POINT('Ctrl Pts',(-12.7991613007716,7.34762886690127,16.6866834286654));
#594=CARTESIAN_POINT('Ctrl Pts',(-12.7991613007716,7.34762886690127,2.71035496039843));
#595=CARTESIAN_POINT('Ctrl Pts',(-12.7991613007716,7.34762886690127,-11.2659735078685));
#596=CARTESIAN_POINT('Ctrl Pts',(1.17716716749541,7.34762886690127,-11.2659735078685));
#597=CARTESIAN_POINT('Ctrl Pts',(15.1534956357624,7.34762886690127,-11.2659735078685));
#598=CARTESIAN_POINT('Ctrl Pts',(15.1534956357624,7.34762886690127,2.71035496039843));
#599=CARTESIAN_POINT('Ctrl Pts',(15.353912607253,8.29607571360635,2.71035496039843));
#600=CARTESIAN_POINT('Ctrl Pts',(15.353912607253,8.29607571360635,16.887100400156));
#601=CARTESIAN_POINT('Ctrl Pts',(1.17716716749541,8.29607571360635,16.8871004001561));
#602=CARTESIAN_POINT('Ctrl Pts',(-12.9995782722622,8.29607571360635,16.887100400156));
#603=CARTESIAN_POINT('Ctrl Pts',(-12.9995782722622,8.29607571360635,2.71035496039843));
#604=CARTESIAN_POINT('Ctrl Pts',(-12.9995782722622,8.29607571360635,-11.4663904793592));
#605=CARTESIAN_POINT('Ctrl Pts',(1.17716716749541,8.29607571360635,-11.4663904793592));
#606=CARTESIAN_POINT('Ctrl Pts',(15.353912607253,8.29607571360635,-11.4663904793592));
#607=CARTESIAN_POINT('Ctrl Pts',(15.353912607253,8.29607571360635,2.71035496039843));
#608=CARTESIAN_POINT('Ctrl Pts',(15.3579432969538,9.22433248721442,2.71035496039843));
#609=CARTESIAN_POINT('Ctrl Pts',(15.3579432969538,9.22433248721442,16.8911310898568));
#610=CARTESIAN_POINT('Ctrl Pts',(1.17716716749541,9.22433248721442,16.8911310898568));
#611=CARTESIAN_POINT('Ctrl Pts',(-13.003608961963,9.22433248721442,16.8911310898568));
#612=CARTESIAN_POINT('Ctrl Pts',(-13.003608961963,9.22433248721442,2.71035496039843));
#613=CARTESIAN_POINT('Ctrl Pts',(-13.003608961963,9.22433248721442,-11.4704211690599));
#614=CARTESIAN_POINT('Ctrl Pts',(1.17716716749541,9.22433248721442,-11.4704211690599));
#615=CARTESIAN_POINT('Ctrl Pts',(15.3579432969538,9.22433248721442,-11.4704211690599));
#616=CARTESIAN_POINT('Ctrl Pts',(15.3579432969538,9.22433248721442,2.71035496039843));
#617=CARTESIAN_POINT('Ctrl Pts',(15.1519278007872,10.1309948408451,2.71035496039843));
#618=CARTESIAN_POINT('Ctrl Pts',(15.1519278007872,10.1309948408451,16.6851155936902));
#619=CARTESIAN_POINT('Ctrl Pts',(1.17716716749541,10.1309948408451,16.6851155936903));
#620=CARTESIAN_POINT('Ctrl Pts',(-12.7975934657964,10.1309948408451,16.6851155936902));
#621=CARTESIAN_POINT('Ctrl Pts',(-12.7975934657964,10.1309948408451,2.71035496039843));
#622=CARTESIAN_POINT('Ctrl Pts',(-12.7975934657964,10.1309948408451,-11.2644056728934));
#623=CARTESIAN_POINT('Ctrl Pts',(1.17716716749541,10.1309948408451,-11.2644056728934));
#624=CARTESIAN_POINT('Ctrl Pts',(15.1519278007872,10.1309948408451,-11.2644056728934));
#625=CARTESIAN_POINT('Ctrl Pts',(15.1519278007872,10.1309948408451,2.71035496039843));
#626=CARTESIAN_POINT('Ctrl Pts',(14.7328087640946,11.0157484541,2.71035496039843));
#627=CARTESIAN_POINT('Ctrl Pts',(14.7328087640946,11.0157484541,16.2659965569976));
#628=CARTESIAN_POINT('Ctrl Pts',(1.17716716749541,11.0157484541,16.2659965569976));
#629=CARTESIAN_POINT('Ctrl Pts',(-12.3784744291038,11.0157484541,16.2659965569976));
#630=CARTESIAN_POINT('Ctrl Pts',(-12.3784744291038,11.0157484541,2.71035496039843));
#631=CARTESIAN_POINT('Ctrl Pts',(-12.3784744291038,11.0157484541,-10.8452866362008));
#632=CARTESIAN_POINT('Ctrl Pts',(1.17716716749541,11.0157484541,-10.8452866362008));
#633=CARTESIAN_POINT('Ctrl Pts',(14.7328087640946,11.0157484541,-10.8452866362008));
#634=CARTESIAN_POINT('Ctrl Pts',(14.7328087640946,11.0157484541,2.71035496039843));
#635=CARTESIAN_POINT('Ctrl Pts',(14.1133924402007,11.879909911764,2.71035496039843));
#636=CARTESIAN_POINT('Ctrl Pts',(14.1133924402007,11.879909911764,15.6465802331037));
#637=CARTESIAN_POINT('Ctrl Pts',(1.17716716749541,11.879909911764,15.6465802331037));
#638=CARTESIAN_POINT('Ctrl Pts',(-11.7590581052099,11.879909911764,15.6465802331037));
#639=CARTESIAN_POINT('Ctrl Pts',(-11.7590581052099,11.879909911764,2.71035496039843));
#640=CARTESIAN_POINT('Ctrl Pts',(-11.7590581052099,11.879909911764,-10.2258703123068));
#641=CARTESIAN_POINT('Ctrl Pts',(1.17716716749541,11.879909911764,-10.2258703123068));
#642=CARTESIAN_POINT('Ctrl Pts',(14.1133924402007,11.879909911764,-10.2258703123068));
#643=CARTESIAN_POINT('Ctrl Pts',(14.1133924402007,11.879909911764,2.71035496039843));
#644=CARTESIAN_POINT('Ctrl Pts',(13.310745793888,12.7252338336773,2.71035496039843));
#645=CARTESIAN_POINT('Ctrl Pts',(13.310745793888,12.7252338336773,14.8439335867911));
#646=CARTESIAN_POINT('Ctrl Pts',(1.17716716749541,12.7252338336773,14.8439335867911));
#647=CARTESIAN_POINT('Ctrl Pts',(-10.9564114588972,12.7252338336773,14.8439335867911));
#648=CARTESIAN_POINT('Ctrl Pts',(-10.9564114588972,12.7252338336773,2.71035496039843));
#649=CARTESIAN_POINT('Ctrl Pts',(-10.9564114588972,12.7252338336773,-9.4232236659942));
#650=CARTESIAN_POINT('Ctrl Pts',(1.17716716749541,12.7252338336773,-9.4232236659942));
#651=CARTESIAN_POINT('Ctrl Pts',(13.310745793888,12.7252338336773,-9.4232236659942));
#652=CARTESIAN_POINT('Ctrl Pts',(13.310745793888,12.7252338336773,2.71035496039843));
#653=CARTESIAN_POINT('Ctrl Pts',(12.5350008917579,13.3877549917173,2.71035496039843));
#654=CARTESIAN_POINT('Ctrl Pts',(12.5350008917579,13.3877549917173,14.0681886846609));
#655=CARTESIAN_POINT('Ctrl Pts',(1.17716716749541,13.3877549917173,14.0681886846609));
#656=CARTESIAN_POINT('Ctrl Pts',(-10.1806665567671,13.3877549917173,14.0681886846609));
#657=CARTESIAN_POINT('Ctrl Pts',(-10.1806665567671,13.3877549917173,2.71035496039843));
#658=CARTESIAN_POINT('Ctrl Pts',(-10.1806665567671,13.3877549917173,-8.64747876386403));
#659=CARTESIAN_POINT('Ctrl Pts',(1.17716716749541,13.3877549917173,-8.64747876386403));
#660=CARTESIAN_POINT('Ctrl Pts',(12.5350008917579,13.3877549917173,-8.64747876386403));
#661=CARTESIAN_POINT('Ctrl Pts',(12.5350008917579,13.3877549917173,2.71035496039843));
#662=CARTESIAN_POINT('Ctrl Pts',(11.8829511396212,13.8774245185261,2.71035496039843));
#663=CARTESIAN_POINT('Ctrl Pts',(11.8829511396212,13.8774245185261,13.4161389325242));
#664=CARTESIAN_POINT('Ctrl Pts',(1.17716716749541,13.8774245185261,13.4161389325242));
#665=CARTESIAN_POINT('Ctrl Pts',(-9.52861680463035,13.8774245185261,13.4161389325242));
#666=CARTESIAN_POINT('Ctrl Pts',(-9.52861680463035,13.8774245185261,2.71035496039843));
#667=CARTESIAN_POINT('Ctrl Pts',(-9.52861680463035,13.8774245185261,-7.99542901172733));
#668=CARTESIAN_POINT('Ctrl Pts',(1.17716716749541,13.8774245185261,-7.99542901172733));
#669=CARTESIAN_POINT('Ctrl Pts',(11.8829511396212,13.8774245185261,-7.99542901172733));
#670=CARTESIAN_POINT('Ctrl Pts',(11.8829511396212,13.8774245185261,2.71035496039843));
#671=CARTESIAN_POINT('Ctrl Pts',(11.4175463920555,14.2007141602679,2.71035496039843));
#672=CARTESIAN_POINT('Ctrl Pts',(11.4175463920555,14.2007141602679,12.9507341849585));
#673=CARTESIAN_POINT('Ctrl Pts',(1.17716716749541,14.2007141602679,12.9507341849585));
#674=CARTESIAN_POINT('Ctrl Pts',(-9.06321205706466,14.2007141602679,12.9507341849585));
#675=CARTESIAN_POINT('Ctrl Pts',(-9.06321205706466,14.2007141602679,2.71035496039843));
#676=CARTESIAN_POINT('Ctrl Pts',(-9.06321205706466,14.2007141602679,-7.53002426416164));
#677=CARTESIAN_POINT('Ctrl Pts',(1.17716716749541,14.2007141602679,-7.53002426416164));
#678=CARTESIAN_POINT('Ctrl Pts',(11.4175463920555,14.2007141602679,-7.53002426416164));
#679=CARTESIAN_POINT('Ctrl Pts',(11.4175463920555,14.2007141602679,2.71035496039843));
#680=CARTESIAN_POINT('Ctrl Pts',(11.177167316507,14.3615697550867,2.71035496039843));
#681=CARTESIAN_POINT('Ctrl Pts',(11.177167316507,14.3615697550867,12.71035510941));
#682=CARTESIAN_POINT('Ctrl Pts',(1.17716716749541,14.3615697550867,12.71035510941));
#683=CARTESIAN_POINT('Ctrl Pts',(-8.8228329815162,14.3615697550867,12.71035510941));
#684=CARTESIAN_POINT('Ctrl Pts',(-8.8228329815162,14.3615697550867,2.71035496039843));
#685=CARTESIAN_POINT('Ctrl Pts',(-8.8228329815162,14.3615697550867,-7.28964518861318));
#686=CARTESIAN_POINT('Ctrl Pts',(1.17716716749541,14.3615697550867,-7.28964518861318));
#687=CARTESIAN_POINT('Ctrl Pts',(11.177167316507,14.3615697550867,-7.28964518861318));
#688=CARTESIAN_POINT('Ctrl Pts',(11.177167316507,14.3615697550867,2.71035496039843));
#689=CARTESIAN_POINT('',(14.1771671674954,5.39156975508672,2.71035496039843));
#690=CARTESIAN_POINT('Ctrl Pts',(11.177167316507,14.3615697550867,2.71035496039843));
#691=CARTESIAN_POINT('Ctrl Pts',(11.4175463920555,14.2007141602679,2.71035496039843));
#692=CARTESIAN_POINT('Ctrl Pts',(11.8829511396212,13.8774245185261,2.71035496039843));
#693=CARTESIAN_POINT('Ctrl Pts',(12.5350008917579,13.3877549917173,2.71035496039843));
#694=CARTESIAN_POINT('Ctrl Pts',(13.310745793888,12.7252338336773,2.71035496039843));
#695=CARTESIAN_POINT('Ctrl Pts',(14.1133924402007,11.879909911764,2.71035496039843));
#696=CARTESIAN_POINT('Ctrl Pts',(14.7328087640946,11.0157484541,2.71035496039843));
#697=CARTESIAN_POINT('Ctrl Pts',(15.1519278007872,10.1309948408451,2.71035496039843));
#698=CARTESIAN_POINT('Ctrl Pts',(15.3579432969538,9.22433248721442,2.71035496039843));
#699=CARTESIAN_POINT('Ctrl Pts',(15.353912607253,8.29607571360635,2.71035496039843));
#700=CARTESIAN_POINT('Ctrl Pts',(15.1534956357624,7.34762886690127,2.71035496039843));
#701=CARTESIAN_POINT('Ctrl Pts',(14.8478240255593,6.57392948278465,2.71035496039843));
#702=CARTESIAN_POINT('Ctrl Pts',(14.5418501368627,5.98576749935777,2.71035496039843));
#703=CARTESIAN_POINT('Ctrl Pts',(14.304319426318,5.59021049680945,2.71035496039843));
#704=CARTESIAN_POINT('Ctrl Pts',(14.1771671674954,5.39156975508672,2.71035496039843));
#705=CARTESIAN_POINT('',(-11.8228328325046,5.39156975508672,2.71035496039843));
#706=CARTESIAN_POINT('Origin',(1.17716716749541,5.39156975508672,2.71035496039843));
#707=CARTESIAN_POINT('Origin',(1.17716716749541,5.39156975508672,2.71035496039843));
#708=CARTESIAN_POINT('Origin',(1.17716716749541,4.39156975508672,2.71035496039843));
#709=CARTESIAN_POINT('',(-13.8228328325046,3.39156975508672,2.71035496039843));
#710=CARTESIAN_POINT('Origin',(1.17716716749541,3.39156975508672,2.71035496039843));
#711=CARTESIAN_POINT('',(-12.8228328325046,4.39156975508672,2.71035496039843));
#712=CARTESIAN_POINT('Origin',(1.17716716749541,1.89156975508672,2.71035496039843));
#713=CARTESIAN_POINT('',(-13.8228328325046,0.391569755086722,2.71035496039843));
#714=CARTESIAN_POINT('Origin',(1.17716716749541,0.391569755086723,2.71035496039843));
#715=CARTESIAN_POINT('',(-13.8228328325046,1.89156975508672,2.71035496039843));
#716=CARTESIAN_POINT('Origin',(1.17716716749541,0.391569755086723,2.71035496039843));
#717=UNCERTAINTY_MEASURE_WITH_UNIT(LENGTH_MEASURE(0.01),#721,
'DISTANCE_ACCURACY_VALUE',
'Maximum model space distance between geometric entities at asserted c
onnectivities');
#718=UNCERTAINTY_MEASURE_WITH_UNIT(LENGTH_MEASURE(0.01),#721,
'DISTANCE_ACCURACY_VALUE',
'Maximum model space distance between geometric entities at asserted c
onnectivities');
#719=(
GEOMETRIC_REPRESENTATION_CONTEXT(3)
GLOBAL_UNCERTAINTY_ASSIGNED_CONTEXT((#717))
GLOBAL_UNIT_ASSIGNED_CONTEXT((#721,#723,#724))
REPRESENTATION_CONTEXT('','3D')
);
#720=(
GEOMETRIC_REPRESENTATION_CONTEXT(3)
GLOBAL_UNCERTAINTY_ASSIGNED_CONTEXT((#718))
GLOBAL_UNIT_ASSIGNED_CONTEXT((#721,#723,#724))
REPRESENTATION_CONTEXT('','3D')
);
#721=(
LENGTH_UNIT()
NAMED_UNIT(*)
SI_UNIT(.MILLI.,.METRE.)
);
#722=(
LENGTH_UNIT()
NAMED_UNIT(*)
SI_UNIT($,.METRE.)
);
#723=(
NAMED_UNIT(*)
PLANE_ANGLE_UNIT()
SI_UNIT($,.RADIAN.)
);
#724=(
NAMED_UNIT(*)
SI_UNIT($,.STERADIAN.)
SOLID_ANGLE_UNIT()
);
#725=SHAPE_DEFINITION_REPRESENTATION(#726,#727);
#726=PRODUCT_DEFINITION_SHAPE('',$,#729);
#727=SHAPE_REPRESENTATION('',(#163),#719);
#728=PRODUCT_DEFINITION_CONTEXT('part definition',#733,'design');
#729=PRODUCT_DEFINITION('2026-07-20-14-07-55-745','pawn v5',#730,#728);
#730=PRODUCT_DEFINITION_FORMATION('',$,#735);
#731=PRODUCT_RELATED_PRODUCT_CATEGORY('pawn v5','pawn v5',(#735));
#732=APPLICATION_PROTOCOL_DEFINITION('international standard',
'automotive_design',2009,#733);
#733=APPLICATION_CONTEXT(
'Core Data for Automotive Mechanical Design Process');
#734=PRODUCT_CONTEXT('part definition',#733,'mechanical');
#735=PRODUCT('2026-07-20-14-07-55-745','pawn v5',$,(#734));
#736=PRESENTATION_STYLE_ASSIGNMENT((#738));
#737=PRESENTATION_STYLE_ASSIGNMENT((#739));
#738=SURFACE_STYLE_USAGE(.BOTH.,#740);
#739=SURFACE_STYLE_USAGE(.BOTH.,#741);
#740=SURFACE_SIDE_STYLE('',(#742));
#741=SURFACE_SIDE_STYLE('',(#743));
#742=SURFACE_STYLE_FILL_AREA(#744);
#743=SURFACE_STYLE_FILL_AREA(#745);
#744=FILL_AREA_STYLE('Steel - Satin',(#746));
#745=FILL_AREA_STYLE('Paint - Enamel Glossy (White)',(#747));
#746=FILL_AREA_STYLE_COLOUR('Steel - Satin',#748);
#747=FILL_AREA_STYLE_COLOUR('Paint - Enamel Glossy (White)',#749);
#748=COLOUR_RGB('Steel - Satin',0.627450980392157,0.627450980392157,0.627450980392157);
#749=COLOUR_RGB('Paint - Enamel Glossy (White)',0.964705882352941,0.964705882352941,
0.952941176470588);
ENDSEC;
END-ISO-10303-21;
