# WaveFront *.obj file (generated by Autodesk ATF)

mtllib d3991915-a201-4845-8dfd-146dd06c6d0c.mtl

g Body1

v 34.000000 30.000000 63.000000
v 34.000000 30.000000 59.456832
v 34.000000 0.000000 59.456832
v 34.000000 0.000000 63.000000
v 26.000000 30.000000 63.000000
v 26.000000 0.000000 63.000000
v 26.000000 30.000000 59.456832
v 26.000000 0.000000 59.456832
v 0.000000 30.000000 45.000000
v 0.510807 30.000000 50.512486
v 2.025833 30.000000 55.837250
v 4.493486 30.000000 60.792965
v 7.829732 30.000000 65.210869
v 11.920961 30.000000 68.940517
v 16.627849 30.000000 71.854899
v 21.790110 30.000000 73.854769
v 27.231949 30.000000 74.872025
v 32.768051 30.000000 74.872025
v 38.209890 30.000000 73.854769
v 43.372151 30.000000 71.854899
v 48.079039 30.000000 68.940517
v 52.170268 30.000000 65.210869
v 55.506514 30.000000 60.792965
v 57.974167 30.000000 55.837250
v 59.489193 30.000000 50.512486
v 60.000000 30.000000 45.000000
v 60.000000 30.000000 90.000000
v 0.000000 30.000000 90.000000
v 0.510807 30.000000 39.487514
v 2.025833 30.000000 34.162750
v 4.493486 30.000000 29.207035
v 7.829732 30.000000 24.789131
v 11.920961 30.000000 21.059483
v 16.627849 30.000000 18.145101
v 21.790110 30.000000 16.145231
v 27.231949 30.000000 15.127975
v 32.768051 30.000000 15.127975
v 38.209890 30.000000 16.145231
v 43.372151 30.000000 18.145101
v 48.079039 30.000000 21.059483
v 52.170268 30.000000 24.789131
v 55.506514 30.000000 29.207035
v 57.974167 30.000000 34.162750
v 59.489193 30.000000 39.487514
v 60.000000 0.000000 45.000000
v 59.457861 0.000000 39.322463
v 57.851038 0.000000 33.850126
v 55.237606 0.000000 28.780775
v 51.712021 0.000000 24.297630
v 47.401707 0.000000 20.562721
v 42.462450 0.000000 17.711040
v 37.072768 0.000000 15.845653
v 31.427457 0.000000 15.033980
v 25.730555 0.000000 15.305357
v 20.187961 0.000000 16.649975
v 15.000000 0.000000 19.019238
v 10.354178 0.000000 22.327513
v 6.418407 0.000000 26.455230
v 3.334937 0.000000 31.253204
v 1.215211 0.000000 36.548023
v 0.135842 0.000000 42.148319
v 0.135842 0.000000 47.851681
v 1.215211 0.000000 53.451977
v 3.334937 0.000000 58.746796
v 6.418407 0.000000 63.544770
v 10.354178 0.000000 67.672487
v 15.000000 0.000000 70.980762
v 20.187961 0.000000 73.350025
v 25.730555 0.000000 74.694643
v 31.427457 0.000000 74.966020
v 37.072768 0.000000 74.154347
v 42.462450 0.000000 72.288960
v 47.401707 0.000000 69.437279
v 51.712021 0.000000 65.702370
v 55.237606 0.000000 61.219225
v 57.851038 0.000000 56.149874
v 59.457861 0.000000 50.677537
v 37.595845 30.000000 57.934571
v 40.676949 30.000000 55.535785
v 43.034518 30.000000 52.423028
v 44.508787 30.000000 48.807242
v 44.999852 30.000000 44.933454
v 44.474436 30.000000 41.064176
v 42.968142 30.000000 37.461612
v 40.583048 30.000000 34.369897
v 37.480782 30.000000 31.998542
v 33.871572 30.000000 30.508246
v 30.000000 30.000000 30.000000
v 26.128428 30.000000 30.508246
v 22.519218 30.000000 31.998542
v 19.416952 30.000000 34.369897
v 17.031858 30.000000 37.461612
v 15.525564 30.000000 41.064176
v 15.000148 30.000000 44.933454
v 15.491213 30.000000 48.807242
v 16.965482 30.000000 52.423028
v 19.323051 30.000000 55.535785
v 22.404155 30.000000 57.934571
v 22.404155 0.000000 57.934571
v 19.323051 0.000000 55.535785
v 16.965482 0.000000 52.423028
v 15.491213 0.000000 48.807242
v 15.000148 0.000000 44.933454
v 15.525564 0.000000 41.064176
v 17.031858 0.000000 37.461612
v 19.416952 0.000000 34.369897
v 22.519218 0.000000 31.998542
v 26.128428 0.000000 30.508246
v 30.000000 0.000000 30.000000
v 33.871572 0.000000 30.508246
v 37.480782 0.000000 31.998542
v 40.583048 0.000000 34.369897
v 42.968142 0.000000 37.461612
v 44.474436 0.000000 41.064176
v 44.999852 0.000000 44.933454
v 44.508787 0.000000 48.807242
v 43.034518 0.000000 52.423028
v 40.676949 0.000000 55.535785
v 37.595845 0.000000 57.934571
v 0.000000 30.000000 0.000000
v 60.000000 30.000000 0.000000
v 0.000000 45.000000 90.000000
v 0.000000 45.000000 75.000000
v 0.000000 45.000000 15.000000
v 0.000000 45.000000 0.000000
v 60.000000 45.000000 90.000000
v 50.998566 74.384041 90.000000
v 48.592056 78.540143 90.000000
v 45.374930 82.105892 90.000000
v 41.487455 84.925822 90.000000
v 37.099126 86.876984 90.000000
v 32.401274 87.874306 90.000000
v 27.598726 87.874306 90.000000
v 22.900874 86.876984 90.000000
v 18.512545 84.925822 90.000000
v 14.625070 82.105892 90.000000
v 11.407944 78.540143 90.000000
v 9.001434 74.384041 90.000000
v 22.000000 65.000000 90.000000
v 22.272593 67.070552 90.000000
v 23.071797 69.000000 90.000000
v 24.343146 70.656854 90.000000
v 26.000000 71.928203 90.000000
v 27.929448 72.727407 90.000000
v 30.000000 73.000000 90.000000
v 32.070552 72.727407 90.000000
v 34.000000 71.928203 90.000000
v 35.656854 70.656854 90.000000
v 36.928203 69.000000 90.000000
v 37.727407 67.070552 90.000000
v 38.000000 65.000000 90.000000
v 37.727407 62.929448 90.000000
v 36.928203 61.000000 90.000000
v 35.656854 59.343146 90.000000
v 34.000000 58.071797 90.000000
v 32.070552 57.272593 90.000000
v 30.000000 57.000000 90.000000
v 27.929448 57.272593 90.000000
v 26.000000 58.071797 90.000000
v 24.343146 59.343146 90.000000
v 23.071797 61.000000 90.000000
v 22.272593 62.929448 90.000000
v 60.000000 45.000000 75.000000
v 60.000000 45.000000 15.000000
v 9.001434 74.384041 75.000000
v 11.407944 78.540143 75.000000
v 14.625070 82.105892 75.000000
v 18.512545 84.925822 75.000000
v 22.900874 86.876984 75.000000
v 27.598726 87.874306 75.000000
v 32.401274 87.874306 75.000000
v 37.099126 86.876984 75.000000
v 41.487455 84.925822 75.000000
v 45.374930 82.105892 75.000000
v 48.592056 78.540143 75.000000
v 50.998566 74.384041 75.000000
v 22.000000 65.000000 75.000000
v 22.272593 62.929448 75.000000
v 23.071797 61.000000 75.000000
v 24.343146 59.343146 75.000000
v 26.000000 58.071797 75.000000
v 27.929448 57.272593 75.000000
v 30.000000 57.000000 75.000000
v 32.070552 57.272593 75.000000
v 34.000000 58.071797 75.000000
v 35.656854 59.343146 75.000000
v 36.928203 61.000000 75.000000
v 37.727407 62.929448 75.000000
v 38.000000 65.000000 75.000000
v 37.727407 67.070552 75.000000
v 36.928203 69.000000 75.000000
v 35.656854 70.656854 75.000000
v 34.000000 71.928203 75.000000
v 32.070552 72.727407 75.000000
v 30.000000 73.000000 75.000000
v 27.929448 72.727407 75.000000
v 26.000000 71.928203 75.000000
v 24.343146 70.656854 75.000000
v 23.071797 69.000000 75.000000
v 22.272593 67.070552 75.000000
v 60.000000 45.000000 0.000000
v 22.000000 65.000000 15.000000
v 22.272593 62.929448 15.000000
v 23.071797 61.000000 15.000000
v 24.343146 59.343146 15.000000
v 26.000000 58.071797 15.000000
v 27.929448 57.272593 15.000000
v 30.000000 57.000000 15.000000
v 32.070552 57.272593 15.000000
v 34.000000 58.071797 15.000000
v 35.656854 59.343146 15.000000
v 36.928203 61.000000 15.000000
v 37.727407 62.929448 15.000000
v 38.000000 65.000000 15.000000
v 37.727407 67.070552 15.000000
v 36.928203 69.000000 15.000000
v 35.656854 70.656854 15.000000
v 34.000000 71.928203 15.000000
v 32.070552 72.727407 15.000000
v 30.000000 73.000000 15.000000
v 27.929448 72.727407 15.000000
v 26.000000 71.928203 15.000000
v 24.343146 70.656854 15.000000
v 23.071797 69.000000 15.000000
v 22.272593 67.070552 15.000000
v 22.000000 65.000000 0.000000
v 22.272593 67.070552 0.000000
v 23.071797 69.000000 0.000000
v 24.343146 70.656854 0.000000
v 26.000000 71.928203 0.000000
v 27.929448 72.727407 0.000000
v 30.000000 73.000000 0.000000
v 32.070552 72.727407 0.000000
v 34.000000 71.928203 0.000000
v 35.656854 70.656854 0.000000
v 36.928203 69.000000 0.000000
v 37.727407 67.070552 0.000000
v 38.000000 65.000000 0.000000
v 37.727407 62.929448 0.000000
v 36.928203 61.000000 0.000000
v 35.656854 59.343146 0.000000
v 34.000000 58.071797 0.000000
v 32.070552 57.272593 0.000000
v 30.000000 57.000000 0.000000
v 27.929448 57.272593 0.000000
v 26.000000 58.071797 0.000000
v 24.343146 59.343146 0.000000
v 23.071797 61.000000 0.000000
v 22.272593 62.929448 0.000000
v 9.001434 74.384041 0.000000
v 9.001434 74.384041 15.000000
v 50.998566 74.384041 0.000000
v 48.592056 78.540143 0.000000
v 45.374930 82.105892 0.000000
v 41.487455 84.925822 0.000000
v 37.099126 86.876984 0.000000
v 32.401274 87.874306 0.000000
v 27.598726 87.874306 0.000000
v 22.900874 86.876984 0.000000
v 18.512545 84.925822 0.000000
v 14.625070 82.105892 0.000000
v 11.407944 78.540143 0.000000
v 11.407944 78.540143 15.000000
v 14.625070 82.105892 15.000000
v 18.512545 84.925822 15.000000
v 22.900874 86.876984 15.000000
v 27.598726 87.874306 15.000000
v 32.401274 87.874306 15.000000
v 37.099126 86.876984 15.000000
v 41.487455 84.925822 15.000000
v 45.374930 82.105892 15.000000
v 48.592056 78.540143 15.000000
v 50.998566 74.384041 15.000000
vt 0.000000 0.000000 0.000000
vt 0.354317 -0.000000 0.000000
vt -0.000000 3.000000 0.000000
vt 0.354317 3.000000 0.000000
vt 0.000000 0.000000 0.000000
vt 0.800000 0.000000 0.000000
vt 0.000000 3.000000 0.000000
vt 0.800000 3.000000 0.000000
vt 0.000000 0.000000 0.000000
vt 0.354317 0.000000 0.000000
vt 0.000000 3.000000 0.000000
vt 0.354317 3.000000 0.000000
vt -4.500000 0.000000 0.000000
vt -5.051249 0.051081 0.000000
vt -9.000000 0.000000 0.000000
vt -5.583725 0.202583 0.000000
vt -6.079296 0.449349 0.000000
vt -6.521087 0.782973 0.000000
vt -6.894052 1.192096 0.000000
vt -7.185490 1.662785 0.000000
vt -7.385477 2.179011 0.000000
vt -7.487203 2.723195 0.000000
vt -7.487203 3.276805 0.000000
vt -9.000000 6.000000 0.000000
vt -7.385477 3.820989 0.000000
vt -7.185490 4.337215 0.000000
vt -6.894052 4.807904 0.000000
vt -6.521087 5.217027 0.000000
vt -6.079296 5.550651 0.000000
vt -5.583725 5.797417 0.000000
vt -5.051249 5.948919 0.000000
vt -4.500000 6.000000 0.000000
vt 0.000000 -8.870379 0.000000
vt -3.000000 -9.139179 0.000000
vt -0.000000 -9.424778 0.000000
vt 0.000000 9.424778 0.000000
vt -3.000000 9.710377 0.000000
vt -3.000000 9.139179 0.000000
vt -0.000000 8.870379 0.000000
vt -3.000000 8.567980 0.000000
vt -0.000000 8.315981 0.000000
vt -3.000000 7.996781 0.000000
vt -0.000000 7.761582 0.000000
vt -3.000000 7.425583 0.000000
vt -0.000000 7.207183 0.000000
vt -3.000000 6.854384 0.000000
vt -0.000000 6.652784 0.000000
vt -3.000000 6.283185 0.000000
vt -0.000000 6.098386 0.000000
vt -3.000000 5.711987 0.000000
vt -0.000000 5.543987 0.000000
vt -3.000000 5.140788 0.000000
vt -0.000000 4.989588 0.000000
vt -3.000000 4.569589 0.000000
vt -0.000000 4.435190 0.000000
vt -3.000000 3.998391 0.000000
vt -0.000000 3.880791 0.000000
vt -3.000000 3.427192 0.000000
vt -0.000000 3.326392 0.000000
vt -3.000000 2.855993 0.000000
vt -0.000000 2.771994 0.000000
vt -3.000000 2.284795 0.000000
vt -0.000000 2.217595 0.000000
vt -3.000000 1.713596 0.000000
vt -0.000000 1.663196 0.000000
vt -3.000000 1.142397 0.000000
vt -0.000000 1.108797 0.000000
vt -3.000000 0.571199 0.000000
vt -0.000000 0.554399 0.000000
vt -3.000000 0.000000 0.000000
vt -0.000000 0.000000 0.000000
vt -0.000000 -0.554399 0.000000
vt -3.000000 -0.571199 0.000000
vt -0.000000 -1.108797 0.000000
vt -3.000000 -1.142397 0.000000
vt -0.000000 -1.663196 0.000000
vt -3.000000 -1.713596 0.000000
vt -0.000000 -2.217595 0.000000
vt -3.000000 -2.284795 0.000000
vt -0.000000 -2.771994 0.000000
vt -3.000000 -2.855993 0.000000
vt -0.000000 -3.326392 0.000000
vt -3.000000 -3.427192 0.000000
vt -0.000000 -3.880791 0.000000
vt -3.000000 -3.998391 0.000000
vt -0.000000 -4.435190 0.000000
vt -3.000000 -4.569589 0.000000
vt -0.000000 -4.989588 0.000000
vt -3.000000 -5.140788 0.000000
vt 0.000000 -5.543987 0.000000
vt -3.000000 -5.711987 0.000000
vt 0.000000 -6.098386 0.000000
vt -3.000000 -6.283185 0.000000
vt 0.000000 -6.652784 0.000000
vt -3.000000 -6.854384 0.000000
vt 0.000000 -7.207183 0.000000
vt -3.000000 -7.425583 0.000000
vt 0.000000 -7.761582 0.000000
vt -3.000000 -7.996781 0.000000
vt 0.000000 -8.315981 0.000000
vt -3.000000 -8.567980 0.000000
vt 3.000000 -0.809798 0.000000
vt -0.000000 -0.809798 0.000000
vt 3.000000 -1.201388 0.000000
vt 0.000000 -1.201388 0.000000
vt 3.000000 -1.592978 0.000000
vt 0.000000 -1.592978 0.000000
vt 3.000000 -1.984568 0.000000
vt 0.000000 -1.984568 0.000000
vt 3.000000 -2.376158 0.000000
vt 0.000000 -2.376158 0.000000
vt 3.000000 -2.767748 0.000000
vt 0.000000 -2.767748 0.000000
vt 3.000000 -3.159338 0.000000
vt 0.000000 -3.159338 0.000000
vt 3.000000 -3.550928 0.000000
vt 0.000000 -3.550928 0.000000
vt 3.000000 -3.942518 0.000000
vt -0.000000 -3.942518 0.000000
vt 3.000000 -4.334108 0.000000
vt 0.000000 -4.334108 0.000000
vt 3.000000 -4.725698 0.000000
vt 0.000000 -4.725698 0.000000
vt 3.000000 -5.117288 0.000000
vt 0.000000 -5.117288 0.000000
vt 3.000000 -5.508878 0.000000
vt -0.000000 -5.508878 0.000000
vt 3.000000 -5.900468 0.000000
vt -0.000000 -5.900468 0.000000
vt 3.000000 -6.292058 0.000000
vt -0.000000 -6.292058 0.000000
vt 3.000000 -6.683648 0.000000
vt -0.000000 -6.683648 0.000000
vt 3.000000 -7.075238 0.000000
vt -0.000000 -7.075238 0.000000
vt 3.000000 -7.466828 0.000000
vt -0.000000 -7.466828 0.000000
vt 3.000000 -7.858418 0.000000
vt 0.000000 -7.858418 0.000000
vt 3.000000 -8.250008 0.000000
vt 0.000000 -8.250008 0.000000
vt 3.000000 -8.641598 0.000000
vt -0.000000 -8.641598 0.000000
vt 3.000000 -9.033188 0.000000
vt 0.000000 -9.033188 0.000000
vt 3.000000 -9.424778 0.000000
vt 0.000000 -9.424778 0.000000
vt 2.945786 -0.567754 0.000000
vt 3.000000 0.000000 0.000000
vt 1.499985 -0.006655 0.000000
vt 2.945786 0.567754 0.000000
vt 1.450879 0.380724 0.000000
vt 2.785104 1.114987 0.000000
vt 1.303452 0.742303 0.000000
vt 2.523761 1.621922 0.000000
vt 1.067695 1.053578 0.000000
vt 2.171202 2.070237 0.000000
vt 1.740171 2.443728 0.000000
vt 0.759585 1.293457 0.000000
vt 1.246245 2.728896 0.000000
vt 0.400000 1.800000 0.000000
vt 0.707277 2.915435 0.000000
vt 0.142746 2.996602 0.000000
vt -0.400000 1.800000 0.000000
vt -0.426945 2.969464 0.000000
vt -0.981204 2.835002 0.000000
vt -1.500000 2.598076 0.000000
vt -0.759585 1.293457 0.000000
vt -0.400000 1.445683 0.000000
vt -1.964582 2.267249 0.000000
vt -1.067695 1.053578 0.000000
vt -2.358159 1.854477 0.000000
vt -1.303452 0.742303 0.000000
vt -2.666506 1.374680 0.000000
vt -1.450879 0.380724 0.000000
vt -2.878479 0.845198 0.000000
vt -2.986416 0.285168 0.000000
vt -1.499985 -0.006655 0.000000
vt -2.986416 -0.285168 0.000000
vt -1.447444 -0.393582 0.000000
vt -2.878479 -0.845198 0.000000
vt -2.666506 -1.374680 0.000000
vt -1.296814 -0.753839 0.000000
vt -2.358159 -1.854477 0.000000
vt -1.058305 -1.063010 0.000000
vt -1.964582 -2.267249 0.000000
vt -0.748078 -1.300146 0.000000
vt -1.500000 -2.598076 0.000000
vt -0.981204 -2.835002 0.000000
vt -0.387157 -1.449175 0.000000
vt -0.426945 -2.969464 0.000000
vt 0.000000 -1.500000 0.000000
vt 0.142746 -2.996602 0.000000
vt 0.387157 -1.449175 0.000000
vt 0.707277 -2.915435 0.000000
vt 1.246245 -2.728896 0.000000
vt 0.748078 -1.300146 0.000000
vt 1.740171 -2.443728 0.000000
vt 1.058305 -1.063010 0.000000
vt 2.171202 -2.070237 0.000000
vt 2.523761 -1.621922 0.000000
vt 1.296814 -0.753839 0.000000
vt 2.785104 -1.114987 0.000000
vt 1.447444 -0.393582 0.000000
vt 0.400000 1.445683 0.000000
vt -4.500000 6.000000 0.000000
vt -3.948751 5.948919 0.000000
vt -0.000000 6.000000 0.000000
vt -3.416275 5.797417 0.000000
vt -2.920704 5.550651 0.000000
vt -2.478913 5.217027 0.000000
vt -2.105948 4.807904 0.000000
vt -1.814510 4.337215 0.000000
vt -1.614523 3.820989 0.000000
vt -1.512797 3.276805 0.000000
vt -0.000000 0.000000 0.000000
vt -1.512797 2.723195 0.000000
vt -1.614523 2.179011 0.000000
vt -1.814510 1.662785 0.000000
vt -2.105948 1.192096 0.000000
vt -2.478913 0.782973 0.000000
vt -2.920704 0.449349 0.000000
vt -3.416275 0.202583 0.000000
vt -3.948751 0.051081 0.000000
vt -4.500000 0.000000 0.000000
vt -5.793457 2.240415 0.000000
vt -3.199854 2.251922 0.000000
vt -5.945683 2.600000 0.000000
vt -3.050825 2.612843 0.000000
vt -3.000000 3.000000 0.000000
vt -3.436990 1.941695 0.000000
vt -5.553578 1.932305 0.000000
vt -3.746161 1.703186 0.000000
vt -5.242303 1.696548 0.000000
vt -4.106418 1.552556 0.000000
vt -4.880724 1.549121 0.000000
vt -4.493345 1.500015 0.000000
vt -5.945683 3.400000 0.000000
vt -3.050825 3.387157 0.000000
vt -3.199854 3.748078 0.000000
vt -5.793457 3.759585 0.000000
vt -3.436990 4.058305 0.000000
vt -5.553578 4.067695 0.000000
vt -3.746161 4.296814 0.000000
vt -5.242303 4.303452 0.000000
vt -4.106418 4.447444 0.000000
vt -4.880724 4.450879 0.000000
vt -4.493345 4.499985 0.000000
vt -6.300000 3.400000 0.000000
vt -6.300000 2.600000 0.000000
vt -0.000000 0.000000 0.000000
vt 1.500000 0.000000 0.000000
vt -0.000000 1.500000 0.000000
vt 1.500000 4.500000 0.000000
vt -0.000000 7.500000 0.000000
vt 1.500000 9.000000 0.000000
vt -0.000000 9.000000 0.000000
vt 3.000000 0.000000 0.000000
vt 5.700000 3.000000 0.000000
vt 3.000000 6.000000 0.000000
vt 5.727259 3.207055 0.000000
vt 4.500000 6.000000 0.000000
vt 5.807180 3.400000 0.000000
vt 5.934315 3.565685 0.000000
vt 5.727259 2.792945 0.000000
vt 4.500000 0.000000 0.000000
vt 5.807180 2.600000 0.000000
vt 5.934315 2.434315 0.000000
vt 6.100000 2.307180 0.000000
vt 6.292945 2.227259 0.000000
vt 7.438404 0.900143 0.000000
vt 6.500000 2.200000 0.000000
vt 6.707055 2.227259 0.000000
vt 6.900000 2.307180 0.000000
vt 7.854014 1.140794 0.000000
vt 7.065685 2.434315 0.000000
vt 8.210589 1.462507 0.000000
vt 7.192820 2.600000 0.000000
vt 8.492582 1.851254 0.000000
vt 8.687698 2.290087 0.000000
vt 7.272741 2.792945 0.000000
vt 8.787431 2.759873 0.000000
vt 7.300000 3.000000 0.000000
vt 8.787431 3.240127 0.000000
vt 7.272741 3.207055 0.000000
vt 8.687698 3.709913 0.000000
vt 7.192820 3.400000 0.000000
vt 8.492582 4.148746 0.000000
vt 8.210589 4.537493 0.000000
vt 7.065685 3.565685 0.000000
vt 7.854014 4.859206 0.000000
vt 6.900000 3.692820 0.000000
vt 7.438404 5.099857 0.000000
vt 6.707055 3.772741 0.000000
vt 6.500000 3.800000 0.000000
vt 6.292945 3.772741 0.000000
vt 6.100000 3.692820 0.000000
vt 0.000000 0.000000 0.000000
vt 6.000000 0.000000 0.000000
vt 0.000000 6.000000 0.000000
vt 6.000000 6.000000 0.000000
vt 3.000000 -1.400000 0.000000
vt -0.000000 -0.200000 0.000000
vt -3.000000 -1.400000 0.000000
vt -0.207055 -0.172741 0.000000
vt -0.400000 -0.092820 0.000000
vt 2.099857 1.538404 0.000000
vt 0.772741 0.392945 0.000000
vt 0.692820 0.200000 0.000000
vt 0.565685 0.034315 0.000000
vt 1.859206 1.954014 0.000000
vt 0.565685 1.165685 0.000000
vt 0.692820 1.000000 0.000000
vt 0.772741 0.807055 0.000000
vt 0.400000 1.292820 0.000000
vt 1.537493 2.310589 0.000000
vt 0.207055 1.372741 0.000000
vt 1.148746 2.592582 0.000000
vt 0.709913 2.787698 0.000000
vt -0.000000 1.400000 0.000000
vt 0.240127 2.887431 0.000000
vt -0.240127 2.887431 0.000000
vt -0.709913 2.787698 0.000000
vt -0.207055 1.372741 0.000000
vt -1.148746 2.592582 0.000000
vt -1.537493 2.310589 0.000000
vt -0.400000 1.292820 0.000000
vt -1.859206 1.954014 0.000000
vt -0.565685 1.165685 0.000000
vt -2.099857 1.538404 0.000000
vt -0.692820 1.000000 0.000000
vt -0.772741 0.807055 0.000000
vt -0.800000 0.600000 0.000000
vt -0.772741 0.392945 0.000000
vt -0.692820 0.200000 0.000000
vt -0.565685 0.034315 0.000000
vt 0.800000 0.600000 0.000000
vt 0.400000 -0.092820 0.000000
vt 0.207055 -0.172741 0.000000
vt -1.500000 2.303835 0.000000
vt -0.000000 2.303835 0.000000
vt -1.500000 2.513274 0.000000
vt -0.000000 2.513274 0.000000
vt -1.500000 -2.513274 0.000000
vt -0.000000 -2.513274 0.000000
vt -1.500000 -2.303835 0.000000
vt 0.000000 -2.303835 0.000000
vt -1.500000 -2.094395 0.000000
vt 0.000000 -2.094395 0.000000
vt -1.500000 -1.884956 0.000000
vt -0.000000 -1.884956 0.000000
vt -1.500000 -1.675516 0.000000
vt -0.000000 -1.675516 0.000000
vt -1.500000 -1.466077 0.000000
vt -0.000000 -1.466077 0.000000
vt -1.500000 -1.256637 0.000000
vt -0.000000 -1.256637 0.000000
vt -1.500000 -1.047198 0.000000
vt -0.000000 -1.047198 0.000000
vt -1.500000 -0.837758 0.000000
vt 0.000000 -0.837758 0.000000
vt -1.500000 -0.628319 0.000000
vt 0.000000 -0.628319 0.000000
vt -1.500000 -0.418879 0.000000
vt -0.000000 -0.418879 0.000000
vt -1.500000 -0.209440 0.000000
vt -0.000000 -0.209440 0.000000
vt -1.500000 0.000000 0.000000
vt -0.000000 0.000000 0.000000
vt -1.500000 0.209440 0.000000
vt -0.000000 0.209440 0.000000
vt -1.500000 0.418879 0.000000
vt 0.000000 0.418879 0.000000
vt -1.500000 0.628319 0.000000
vt -0.000000 0.628319 0.000000
vt -1.500000 0.837758 0.000000
vt -0.000000 0.837758 0.000000
vt -1.500000 1.047198 0.000000
vt -0.000000 1.047198 0.000000
vt -1.500000 1.256637 0.000000
vt -0.000000 1.256637 0.000000
vt -1.500000 1.466077 0.000000
vt -0.000000 1.466077 0.000000
vt -1.500000 1.675516 0.000000
vt -0.000000 1.675516 0.000000
vt -1.500000 1.884956 0.000000
vt -0.000000 1.884956 0.000000
vt -1.500000 2.094395 0.000000
vt -0.000000 2.094395 0.000000
vt -3.073187 0.000000 0.000000
vt 0.000000 0.000000 0.000000
vt -3.073187 1.500000 0.000000
vt 0.000000 1.500000 0.000000
vt 1.500000 5.858263 0.000000
vt -0.000000 5.858263 0.000000
vt 1.500000 5.377132 0.000000
vt -0.000000 5.377132 0.000000
vt 1.500000 4.896000 0.000000
vt -0.000000 4.896000 0.000000
vt 1.500000 4.414869 0.000000
vt -0.000000 4.414869 0.000000
vt 1.500000 3.933737 0.000000
vt -0.000000 3.933737 0.000000
vt 1.500000 3.452605 0.000000
vt -0.000000 3.452605 0.000000
vt 1.500000 2.971474 0.000000
vt -0.000000 2.971474 0.000000
vt 1.500000 2.490342 0.000000
vt -0.000000 2.490342 0.000000
vt 1.500000 2.009211 0.000000
vt -0.000000 2.009211 0.000000
vt 1.500000 1.528079 0.000000
vt -0.000000 1.528079 0.000000
vt 1.500000 1.046948 0.000000
vt -0.000000 1.046948 0.000000
vt 1.500000 0.565816 0.000000
vt -0.000000 0.565816 0.000000
vt -3.073187 0.000000 0.000000
vt -0.000000 0.000000 0.000000
vt -3.073187 1.500000 0.000000
vt -0.000000 1.500000 0.000000
vt 1.500000 9.000000 0.000000
vt 0.000000 9.000000 0.000000
vt 1.500000 7.500000 0.000000
vt 0.000000 4.500000 0.000000
vt 1.500000 1.500000 0.000000
vt 0.000000 0.000000 0.000000
vt 1.500000 0.000000 0.000000
vt 1.500000 -2.303835 0.000000
vt -0.000000 -2.303835 0.000000
vt 1.500000 -2.513274 0.000000
vt 0.000000 -2.513274 0.000000
vt 1.500000 2.513274 0.000000
vt 0.000000 2.513274 0.000000
vt 1.500000 2.303835 0.000000
vt 0.000000 2.303835 0.000000
vt 1.500000 2.094395 0.000000
vt 0.000000 2.094395 0.000000
vt 1.500000 1.884956 0.000000
vt 0.000000 1.884956 0.000000
vt 1.500000 1.675516 0.000000
vt 0.000000 1.675516 0.000000
vt 1.500000 1.466077 0.000000
vt 0.000000 1.466077 0.000000
vt 1.500000 1.256637 0.000000
vt 0.000000 1.256637 0.000000
vt 1.500000 1.047198 0.000000
vt 0.000000 1.047198 0.000000
vt 1.500000 0.837758 0.000000
vt 0.000000 0.837758 0.000000
vt 1.500000 0.628319 0.000000
vt 0.000000 0.628319 0.000000
vt 1.500000 0.418879 0.000000
vt -0.000000 0.418879 0.000000
vt 1.500000 0.209440 0.000000
vt 0.000000 0.209440 0.000000
vt 1.500000 0.000000 0.000000
vt 0.000000 0.000000 0.000000
vt 1.500000 -0.209440 0.000000
vt 0.000000 -0.209440 0.000000
vt 1.500000 -0.418879 0.000000
vt 0.000000 -0.418879 0.000000
vt 1.500000 -0.628319 0.000000
vt -0.000000 -0.628319 0.000000
vt 1.500000 -0.837758 0.000000
vt -0.000000 -0.837758 0.000000
vt 1.500000 -1.047198 0.000000
vt 0.000000 -1.047198 0.000000
vt 1.500000 -1.256637 0.000000
vt 0.000000 -1.256637 0.000000
vt 1.500000 -1.466077 0.000000
vt 0.000000 -1.466077 0.000000
vt 1.500000 -1.675516 0.000000
vt 0.000000 -1.675516 0.000000
vt 1.500000 -1.884956 0.000000
vt 0.000000 -1.884956 0.000000
vt 1.500000 -2.094395 0.000000
vt -0.000000 -2.094395 0.000000
vt -0.000000 0.000000 0.000000
vt 3.073187 0.000000 0.000000
vt -0.000000 1.500000 0.000000
vt 3.073187 1.500000 0.000000
vt -1.500000 0.565816 0.000000
vt -0.000000 0.565816 0.000000
vt -1.500000 1.046948 0.000000
vt -0.000000 1.046948 0.000000
vt -1.500000 1.528079 0.000000
vt -0.000000 1.528079 0.000000
vt -1.500000 2.009211 0.000000
vt -0.000000 2.009211 0.000000
vt -1.500000 2.490342 0.000000
vt -0.000000 2.490342 0.000000
vt -1.500000 2.971474 0.000000
vt -0.000000 2.971474 0.000000
vt -1.500000 3.452605 0.000000
vt -0.000000 3.452605 0.000000
vt -1.500000 3.933737 0.000000
vt -0.000000 3.933737 0.000000
vt -1.500000 4.414869 0.000000
vt -0.000000 4.414869 0.000000
vt -1.500000 4.896000 0.000000
vt -0.000000 4.896000 0.000000
vt -1.500000 5.377132 0.000000
vt -0.000000 5.377132 0.000000
vt -1.500000 5.858263 0.000000
vt -0.000000 5.858263 0.000000
vt 0.000000 0.000000 0.000000
vt 3.073187 0.000000 0.000000
vt 0.000000 1.500000 0.000000
vt 3.073187 1.500000 0.000000
vt 3.000000 -1.400000 0.000000
vt 0.000000 -0.200000 0.000000
vt -3.000000 -1.400000 0.000000
vt -0.207055 -0.172741 0.000000
vt -0.400000 -0.092820 0.000000
vt 2.099857 1.538404 0.000000
vt 0.772741 0.392945 0.000000
vt 0.692820 0.200000 0.000000
vt 0.565685 0.034315 0.000000
vt 1.859206 1.954014 0.000000
vt 0.565685 1.165685 0.000000
vt 0.692820 1.000000 0.000000
vt 0.772741 0.807055 0.000000
vt 0.400000 1.292820 0.000000
vt 1.537493 2.310589 0.000000
vt 0.207055 1.372741 0.000000
vt 1.148746 2.592582 0.000000
vt 0.709913 2.787698 0.000000
vt 0.000000 1.400000 0.000000
vt 0.240127 2.887431 0.000000
vt -0.240127 2.887431 0.000000
vt -0.709913 2.787698 0.000000
vt -0.207055 1.372741 0.000000
vt -1.148746 2.592582 0.000000
vt -1.537493 2.310589 0.000000
vt -0.400000 1.292820 0.000000
vt -1.859206 1.954014 0.000000
vt -0.565685 1.165685 0.000000
vt -2.099857 1.538404 0.000000
vt -0.692820 1.000000 0.000000
vt -0.772741 0.807055 0.000000
vt -0.800000 0.600000 0.000000
vt -0.772741 0.392945 0.000000
vt -0.692820 0.200000 0.000000
vt -0.565685 0.034315 0.000000
vt 0.800000 0.600000 0.000000
vt 0.400000 -0.092820 0.000000
vt 0.207055 -0.172741 0.000000
vt 3.000000 -2.900000 0.000000
vt -0.000000 -0.200000 0.000000
vt -3.000000 -2.900000 0.000000
vt -0.207055 -0.172741 0.000000
vt -3.000000 -1.400000 0.000000
vt -0.400000 -0.092820 0.000000
vt -0.565685 0.034315 0.000000
vt 0.207055 -0.172741 0.000000
vt 3.000000 -1.400000 0.000000
vt 0.400000 -0.092820 0.000000
vt 0.565685 0.034315 0.000000
vt 0.692820 0.200000 0.000000
vt 0.772741 0.392945 0.000000
vt 2.099857 1.538404 0.000000
vt 0.800000 0.600000 0.000000
vt 0.772741 0.807055 0.000000
vt 0.692820 1.000000 0.000000
vt 1.859206 1.954014 0.000000
vt 0.565685 1.165685 0.000000
vt 1.537493 2.310589 0.000000
vt 0.400000 1.292820 0.000000
vt 1.148746 2.592582 0.000000
vt 0.709913 2.787698 0.000000
vt 0.207055 1.372741 0.000000
vt 0.240127 2.887431 0.000000
vt -0.000000 1.400000 0.000000
vt -0.240127 2.887431 0.000000
vt -0.207055 1.372741 0.000000
vt -0.709913 2.787698 0.000000
vt -0.400000 1.292820 0.000000
vt -1.148746 2.592582 0.000000
vt -1.537493 2.310589 0.000000
vt -0.565685 1.165685 0.000000
vt -1.859206 1.954014 0.000000
vt -0.692820 1.000000 0.000000
vt -2.099857 1.538404 0.000000
vt -0.772741 0.807055 0.000000
vt -0.800000 0.600000 0.000000
vt -0.772741 0.392945 0.000000
vt -0.692820 0.200000 0.000000
vn -0.100000 0.000000 0.000000
vn -0.100000 0.000000 0.000000
vn -0.100000 0.000000 0.000000
vn -0.100000 0.000000 0.000000
vn 0.000000 0.000000 -0.100000
vn 0.000000 0.000000 -0.100000
vn 0.000000 0.000000 -0.100000
vn 0.000000 0.000000 -0.100000
vn 0.100000 0.000000 0.000000
vn 0.100000 0.000000 0.000000
vn 0.100000 0.000000 0.000000
vn 0.100000 0.000000 0.000000
vn 0.000000 -0.100000 0.000000
vn 0.000000 -0.100000 0.000000
vn 0.000000 -0.100000 0.000000
vn 0.000000 -0.100000 0.000000
vn 0.000000 -0.100000 0.000000
vn 0.000000 -0.100000 0.000000
vn 0.000000 -0.100000 0.000000
vn 0.000000 -0.100000 0.000000
vn 0.000000 -0.100000 0.000000
vn 0.000000 -0.100000 0.000000
vn 0.000000 -0.100000 0.000000
vn 0.000000 -0.100000 0.000000
vn 0.000000 -0.100000 0.000000
vn 0.000000 -0.100000 0.000000
vn 0.000000 -0.100000 0.000000
vn 0.000000 -0.100000 0.000000
vn 0.000000 -0.100000 0.000000
vn 0.000000 -0.100000 0.000000
vn 0.000000 -0.100000 0.000000
vn 0.000000 -0.100000 0.000000
vn -0.098297 0.000000 -0.018375
vn -0.099547 0.000000 -0.009506
vn -0.100000 0.000000 -0.000000
vn -0.099547 0.000000 0.009506
vn -0.098297 0.000000 0.018375
vn -0.095949 0.000000 0.028173
vn -0.093247 0.000000 0.036124
vn -0.088884 0.000000 0.045823
vn -0.085022 0.000000 0.052643
vn -0.078605 0.000000 0.061816
vn -0.073901 0.000000 0.067370
vn -0.065486 0.000000 0.075575
vn -0.060263 0.000000 0.079802
vn -0.050000 0.000000 0.086603
vn -0.044574 0.000000 0.089516
vn -0.032707 0.000000 0.094500
vn -0.027366 0.000000 0.096183
vn -0.014231 0.000000 0.098982
vn -0.009227 0.000000 0.099573
vn 0.004758 0.000000 0.099887
vn 0.009227 0.000000 0.099573
vn 0.023576 0.000000 0.097181
vn 0.027366 0.000000 0.096183
vn 0.041542 0.000000 0.090963
vn 0.044574 0.000000 0.089516
vn 0.058006 0.000000 0.081458
vn 0.060263 0.000000 0.079802
vn 0.072373 0.000000 0.069008
vn 0.073901 0.000000 0.067370
vn 0.084125 0.000000 0.054064
vn 0.085022 0.000000 0.052643
vn 0.092837 0.000000 0.037166
vn 0.093247 0.000000 0.036124
vn 0.098193 0.000000 0.018925
vn 0.098297 0.000000 0.018375
vn 0.100000 0.000000 0.000000
vn 0.100000 0.000000 0.000000
vn 0.098297 0.000000 -0.018375
vn 0.098193 0.000000 -0.018925
vn 0.093247 0.000000 -0.036124
vn 0.092837 0.000000 -0.037166
vn 0.085022 0.000000 -0.052643
vn 0.084125 0.000000 -0.054064
vn 0.073901 0.000000 -0.067370
vn 0.072373 0.000000 -0.069008
vn 0.060263 0.000000 -0.079802
vn 0.058006 0.000000 -0.081458
vn 0.044574 0.000000 -0.089516
vn 0.041542 0.000000 -0.090963
vn 0.027366 0.000000 -0.096183
vn 0.023576 0.000000 -0.097181
vn 0.009227 0.000000 -0.099573
vn 0.004758 0.000000 -0.099887
vn -0.009227 0.000000 -0.099573
vn -0.014231 0.000000 -0.098982
vn -0.027366 0.000000 -0.096183
vn -0.032707 0.000000 -0.094500
vn -0.044574 0.000000 -0.089516
vn -0.050000 0.000000 -0.086603
vn -0.060263 0.000000 -0.079802
vn -0.065486 0.000000 -0.075575
vn -0.073901 0.000000 -0.067370
vn -0.078605 0.000000 -0.061816
vn -0.085022 0.000000 -0.052643
vn -0.088884 0.000000 -0.045823
vn -0.093247 0.000000 -0.036124
vn -0.095949 0.000000 -0.028173
vn -0.026667 0.000000 -0.096379
vn -0.026667 0.000000 -0.096379
vn -0.050639 0.000000 -0.086230
vn -0.050639 0.000000 -0.086230
vn -0.071180 0.000000 -0.070239
vn -0.071180 0.000000 -0.070239
vn -0.086897 0.000000 -0.049487
vn -0.086897 0.000000 -0.049487
vn -0.096725 0.000000 -0.025382
vn -0.096725 0.000000 -0.025382
vn -0.099999 0.000000 0.000444
vn -0.099999 0.000000 0.000444
vn -0.096496 0.000000 0.026239
vn -0.096496 0.000000 0.026239
vn -0.086454 0.000000 0.050256
vn -0.086454 0.000000 0.050256
vn -0.070554 0.000000 0.070867
vn -0.070554 0.000000 0.070867
vn -0.049872 0.000000 0.086676
vn -0.049872 0.000000 0.086676
vn -0.025810 0.000000 0.096612
vn -0.025810 0.000000 0.096612
vn -0.000000 0.000000 0.100000
vn -0.000000 0.000000 0.100000
vn 0.025810 0.000000 0.096612
vn 0.025810 0.000000 0.096612
vn 0.049872 0.000000 0.086676
vn 0.049872 0.000000 0.086676
vn 0.070554 0.000000 0.070867
vn 0.070554 0.000000 0.070867
vn 0.086454 0.000000 0.050256
vn 0.086454 0.000000 0.050256
vn 0.096496 0.000000 0.026239
vn 0.096496 0.000000 0.026239
vn 0.099999 0.000000 0.000444
vn 0.099999 0.000000 0.000444
vn 0.096725 0.000000 -0.025382
vn 0.096725 0.000000 -0.025382
vn 0.086897 0.000000 -0.049487
vn 0.086897 0.000000 -0.049487
vn 0.071180 0.000000 -0.070239
vn 0.071180 0.000000 -0.070239
vn 0.050639 0.000000 -0.086230
vn 0.050639 0.000000 -0.086230
vn 0.026667 0.000000 -0.096379
vn 0.026667 0.000000 -0.096379
vn 0.000000 -0.100000 0.000000
vn 0.000000 -0.100000 0.000000
vn 0.000000 -0.100000 0.000000
vn 0.000000 -0.100000 0.000000
vn 0.000000 -0.100000 0.000000
vn 0.000000 -0.100000 0.000000
vn 0.000000 -0.100000 0.000000
vn 0.000000 -0.100000 0.000000
vn 0.000000 -0.100000 0.000000
vn 0.000000 -0.100000 0.000000
vn 0.000000 -0.100000 0.000000
vn 0.000000 -0.100000 0.000000
vn 0.000000 -0.100000 0.000000
vn 0.000000 -0.100000 0.000000
vn 0.000000 -0.100000 0.000000
vn 0.000000 -0.100000 0.000000
vn 0.000000 -0.100000 0.000000
vn 0.000000 -0.100000 0.000000
vn 0.000000 -0.100000 0.000000
vn 0.000000 -0.100000 0.000000
vn 0.000000 -0.100000 0.000000
vn 0.000000 -0.100000 0.000000
vn 0.000000 -0.100000 0.000000
vn 0.000000 -0.100000 0.000000
vn 0.000000 -0.100000 0.000000
vn 0.000000 -0.100000 0.000000
vn 0.000000 -0.100000 0.000000
vn 0.000000 -0.100000 0.000000
vn 0.000000 -0.100000 0.000000
vn 0.000000 -0.100000 0.000000
vn 0.000000 -0.100000 0.000000
vn 0.000000 -0.100000 0.000000
vn 0.000000 -0.100000 0.000000
vn 0.000000 -0.100000 0.000000
vn 0.000000 -0.100000 0.000000
vn 0.000000 -0.100000 0.000000
vn 0.000000 -0.100000 0.000000
vn 0.000000 -0.100000 0.000000
vn 0.000000 -0.100000 0.000000
vn 0.000000 -0.100000 0.000000
vn 0.000000 -0.100000 0.000000
vn 0.000000 -0.100000 0.000000
vn 0.000000 -0.100000 0.000000
vn 0.000000 -0.100000 0.000000
vn 0.000000 -0.100000 0.000000
vn 0.000000 -0.100000 0.000000
vn 0.000000 -0.100000 0.000000
vn 0.000000 -0.100000 0.000000
vn 0.000000 -0.100000 0.000000
vn 0.000000 -0.100000 0.000000
vn 0.000000 -0.100000 0.000000
vn 0.000000 -0.100000 0.000000
vn 0.000000 -0.100000 0.000000
vn 0.000000 -0.100000 0.000000
vn 0.000000 -0.100000 0.000000
vn 0.000000 -0.100000 0.000000
vn 0.000000 -0.100000 0.000000
vn 0.000000 -0.100000 0.000000
vn 0.000000 -0.100000 0.000000
vn 0.000000 -0.100000 0.000000
vn 0.000000 -0.100000 0.000000
vn 0.000000 -0.100000 0.000000
vn 0.000000 -0.100000 0.000000
vn 0.000000 -0.100000 0.000000
vn 0.000000 -0.100000 0.000000
vn 0.000000 -0.100000 0.000000
vn 0.000000 -0.100000 0.000000
vn 0.000000 -0.100000 0.000000
vn 0.000000 -0.100000 0.000000
vn 0.000000 -0.100000 0.000000
vn 0.000000 -0.100000 0.000000
vn 0.000000 -0.100000 0.000000
vn 0.000000 -0.100000 0.000000
vn 0.000000 -0.100000 0.000000
vn 0.000000 -0.100000 0.000000
vn 0.000000 -0.100000 0.000000
vn 0.000000 -0.100000 0.000000
vn 0.000000 -0.100000 0.000000
vn 0.000000 -0.100000 0.000000
vn 0.000000 -0.100000 0.000000
vn 0.000000 -0.100000 0.000000
vn 0.000000 -0.100000 0.000000
vn 0.000000 -0.100000 0.000000
vn 0.000000 -0.100000 0.000000
vn 0.000000 -0.100000 0.000000
vn 0.000000 -0.100000 0.000000
vn 0.000000 -0.100000 0.000000
vn 0.000000 -0.100000 0.000000
vn 0.000000 -0.100000 0.000000
vn 0.000000 -0.100000 0.000000
vn 0.000000 -0.100000 0.000000
vn 0.000000 -0.100000 0.000000
vn 0.000000 -0.100000 0.000000
vn 0.000000 -0.100000 0.000000
vn 0.000000 -0.100000 0.000000
vn 0.000000 -0.100000 0.000000
vn 0.000000 -0.100000 0.000000
vn 0.000000 -0.100000 0.000000
vn 0.000000 -0.100000 0.000000
vn 0.000000 -0.100000 0.000000
vn 0.000000 -0.100000 0.000000
vn -0.100000 0.000000 0.000000
vn -0.100000 0.000000 0.000000
vn -0.100000 0.000000 0.000000
vn -0.100000 0.000000 0.000000
vn -0.100000 0.000000 0.000000
vn -0.100000 0.000000 0.000000
vn 0.000000 0.000000 0.100000
vn 0.000000 0.000000 0.100000
vn 0.000000 0.000000 0.100000
vn 0.000000 0.000000 0.100000
vn 0.000000 0.000000 0.100000
vn 0.000000 0.000000 0.100000
vn 0.000000 0.000000 0.100000
vn 0.000000 0.000000 0.100000
vn 0.000000 0.000000 0.100000
vn 0.000000 0.000000 0.100000
vn 0.000000 0.000000 0.100000
vn 0.000000 0.000000 0.100000
vn 0.000000 0.000000 0.100000
vn 0.000000 0.000000 0.100000
vn 0.000000 0.000000 0.100000
vn 0.000000 0.000000 0.100000
vn 0.000000 0.000000 0.100000
vn 0.000000 0.000000 0.100000
vn 0.000000 0.000000 0.100000
vn 0.000000 0.000000 0.100000
vn 0.000000 0.000000 0.100000
vn 0.000000 0.000000 0.100000
vn 0.000000 0.000000 0.100000
vn 0.000000 0.000000 0.100000
vn 0.000000 0.000000 0.100000
vn 0.000000 0.000000 0.100000
vn 0.000000 0.000000 0.100000
vn 0.000000 0.000000 0.100000
vn 0.000000 0.000000 0.100000
vn 0.000000 0.000000 0.100000
vn 0.000000 0.000000 0.100000
vn 0.000000 0.000000 0.100000
vn 0.000000 0.000000 0.100000
vn 0.000000 0.000000 0.100000
vn 0.000000 0.000000 0.100000
vn 0.000000 0.000000 0.100000
vn 0.000000 0.000000 0.100000
vn 0.000000 0.000000 0.100000
vn 0.000000 0.000000 0.100000
vn 0.000000 0.000000 0.100000
vn 0.000000 0.100000 0.000000
vn 0.000000 0.100000 0.000000
vn 0.000000 0.100000 0.000000
vn 0.000000 0.100000 0.000000
vn 0.000000 0.000000 -0.100000
vn 0.000000 0.000000 -0.100000
vn 0.000000 0.000000 -0.100000
vn 0.000000 0.000000 -0.100000
vn 0.000000 0.000000 -0.100000
vn 0.000000 0.000000 -0.100000
vn 0.000000 0.000000 -0.100000
vn 0.000000 0.000000 -0.100000
vn 0.000000 0.000000 -0.100000
vn 0.000000 0.000000 -0.100000
vn 0.000000 0.000000 -0.100000
vn 0.000000 0.000000 -0.100000
vn 0.000000 0.000000 -0.100000
vn 0.000000 0.000000 -0.100000
vn 0.000000 0.000000 -0.100000
vn 0.000000 0.000000 -0.100000
vn 0.000000 0.000000 -0.100000
vn 0.000000 0.000000 -0.100000
vn 0.000000 0.000000 -0.100000
vn 0.000000 0.000000 -0.100000
vn 0.000000 0.000000 -0.100000
vn 0.000000 0.000000 -0.100000
vn 0.000000 0.000000 -0.100000
vn 0.000000 0.000000 -0.100000
vn 0.000000 0.000000 -0.100000
vn 0.000000 0.000000 -0.100000
vn 0.000000 0.000000 -0.100000
vn 0.000000 0.000000 -0.100000
vn 0.000000 0.000000 -0.100000
vn 0.000000 0.000000 -0.100000
vn 0.000000 0.000000 -0.100000
vn 0.000000 0.000000 -0.100000
vn 0.000000 0.000000 -0.100000
vn 0.000000 0.000000 -0.100000
vn 0.000000 0.000000 -0.100000
vn 0.000000 0.000000 -0.100000
vn 0.000000 0.000000 -0.100000
vn 0.000000 0.000000 -0.100000
vn 0.096593 -0.025882 0.000000
vn 0.096593 -0.025882 0.000000
vn 0.100000 -0.000000 0.000000
vn 0.100000 -0.000000 0.000000
vn 0.096593 0.025882 0.000000
vn 0.096593 0.025882 0.000000
vn 0.086603 0.050000 0.000000
vn 0.086603 0.050000 0.000000
vn 0.070711 0.070711 0.000000
vn 0.070711 0.070711 0.000000
vn 0.050000 0.086603 0.000000
vn 0.050000 0.086603 0.000000
vn 0.025882 0.096593 0.000000
vn 0.025882 0.096593 0.000000
vn -0.000000 0.100000 -0.000000
vn -0.000000 0.100000 -0.000000
vn -0.025882 0.096593 -0.000000
vn -0.025882 0.096593 -0.000000
vn -0.050000 0.086603 -0.000000
vn -0.050000 0.086603 -0.000000
vn -0.070711 0.070711 -0.000000
vn -0.070711 0.070711 -0.000000
vn -0.086603 0.050000 -0.000000
vn -0.086603 0.050000 -0.000000
vn -0.096593 0.025882 -0.000000
vn -0.096593 0.025882 -0.000000
vn -0.100000 0.000000 0.000000
vn -0.100000 0.000000 0.000000
vn -0.096593 -0.025882 0.000000
vn -0.096593 -0.025882 0.000000
vn -0.086603 -0.050000 0.000000
vn -0.086603 -0.050000 0.000000
vn -0.070711 -0.070711 0.000000
vn -0.070711 -0.070711 0.000000
vn -0.050000 -0.086603 0.000000
vn -0.050000 -0.086603 0.000000
vn -0.025882 -0.096593 0.000000
vn -0.025882 -0.096593 0.000000
vn -0.000000 -0.100000 0.000000
vn -0.000000 -0.100000 0.000000
vn 0.025882 -0.096593 0.000000
vn 0.025882 -0.096593 0.000000
vn 0.050000 -0.086603 0.000000
vn 0.050000 -0.086603 0.000000
vn 0.070711 -0.070711 0.000000
vn 0.070711 -0.070711 0.000000
vn 0.086603 -0.050000 0.000000
vn 0.086603 -0.050000 0.000000
vn -0.095614 0.029290 0.000000
vn -0.095614 0.029290 0.000000
vn -0.095614 0.029290 0.000000
vn -0.095614 0.029290 0.000000
vn -0.091298 0.040800 0.000000
vn -0.091298 0.040800 0.000000
vn -0.080835 0.058870 0.000000
vn -0.080835 0.058870 0.000000
vn -0.066848 0.074373 0.000000
vn -0.066848 0.074373 0.000000
vn -0.049945 0.086634 0.000000
vn -0.049945 0.086634 0.000000
vn -0.030866 0.095117 0.000000
vn -0.030866 0.095117 0.000000
vn -0.010440 0.099454 0.000000
vn -0.010440 0.099454 0.000000
vn 0.010440 0.099454 0.000000
vn 0.010440 0.099454 0.000000
vn 0.030866 0.095117 0.000000
vn 0.030866 0.095117 0.000000
vn 0.049945 0.086634 0.000000
vn 0.049945 0.086634 0.000000
vn 0.066848 0.074373 0.000000
vn 0.066848 0.074373 0.000000
vn 0.080835 0.058870 0.000000
vn 0.080835 0.058870 0.000000
vn 0.091298 0.040800 0.000000
vn 0.091298 0.040800 0.000000
vn 0.095614 0.029290 0.000000
vn 0.095614 0.029290 0.000000
vn 0.095614 0.029290 0.000000
vn 0.095614 0.029290 0.000000
vn 0.100000 0.000000 0.000000
vn 0.100000 0.000000 0.000000
vn 0.100000 0.000000 0.000000
vn 0.100000 0.000000 0.000000
vn 0.100000 0.000000 0.000000
vn 0.100000 0.000000 0.000000
vn 0.096593 0.025882 0.000000
vn 0.096593 0.025882 0.000000
vn 0.100000 0.000000 0.000000
vn 0.100000 0.000000 0.000000
vn 0.096593 -0.025882 0.000000
vn 0.096593 -0.025882 0.000000
vn 0.086603 -0.050000 0.000000
vn 0.086603 -0.050000 0.000000
vn 0.070711 -0.070711 0.000000
vn 0.070711 -0.070711 0.000000
vn 0.050000 -0.086603 0.000000
vn 0.050000 -0.086603 0.000000
vn 0.025882 -0.096593 0.000000
vn 0.025882 -0.096593 0.000000
vn -0.000000 -0.100000 0.000000
vn -0.000000 -0.100000 0.000000
vn -0.025882 -0.096593 0.000000
vn -0.025882 -0.096593 0.000000
vn -0.050000 -0.086603 0.000000
vn -0.050000 -0.086603 0.000000
vn -0.070711 -0.070711 0.000000
vn -0.070711 -0.070711 0.000000
vn -0.086603 -0.050000 0.000000
vn -0.086603 -0.050000 0.000000
vn -0.096593 -0.025882 0.000000
vn -0.096593 -0.025882 0.000000
vn -0.100000 0.000000 0.000000
vn -0.100000 0.000000 0.000000
vn -0.096593 0.025882 0.000000
vn -0.096593 0.025882 0.000000
vn -0.086603 0.050000 0.000000
vn -0.086603 0.050000 0.000000
vn -0.070711 0.070711 0.000000
vn -0.070711 0.070711 0.000000
vn -0.050000 0.086603 0.000000
vn -0.050000 0.086603 0.000000
vn -0.025882 0.096593 0.000000
vn -0.025882 0.096593 0.000000
vn -0.000000 0.100000 0.000000
vn -0.000000 0.100000 0.000000
vn 0.025882 0.096593 0.000000
vn 0.025882 0.096593 0.000000
vn 0.050000 0.086603 0.000000
vn 0.050000 0.086603 0.000000
vn 0.070711 0.070711 0.000000
vn 0.070711 0.070711 0.000000
vn 0.086603 0.050000 0.000000
vn 0.086603 0.050000 0.000000
vn -0.095614 0.029290 0.000000
vn -0.095614 0.029290 0.000000
vn -0.095614 0.029290 0.000000
vn -0.095614 0.029290 0.000000
vn 0.091298 0.040800 0.000000
vn 0.091298 0.040800 0.000000
vn 0.080835 0.058870 0.000000
vn 0.080835 0.058870 0.000000
vn 0.066848 0.074373 0.000000
vn 0.066848 0.074373 0.000000
vn 0.049945 0.086634 0.000000
vn 0.049945 0.086634 0.000000
vn 0.030866 0.095117 0.000000
vn 0.030866 0.095117 0.000000
vn 0.010440 0.099454 0.000000
vn 0.010440 0.099454 0.000000
vn -0.010440 0.099454 -0.000000
vn -0.010440 0.099454 -0.000000
vn -0.030866 0.095117 -0.000000
vn -0.030866 0.095117 -0.000000
vn -0.049945 0.086634 -0.000000
vn -0.049945 0.086634 -0.000000
vn -0.066848 0.074373 -0.000000
vn -0.066848 0.074373 -0.000000
vn -0.080835 0.058870 -0.000000
vn -0.080835 0.058870 -0.000000
vn -0.091298 0.040800 -0.000000
vn -0.091298 0.040800 -0.000000
vn 0.095614 0.029290 0.000000
vn 0.095614 0.029290 0.000000
vn 0.095614 0.029290 0.000000
vn 0.095614 0.029290 0.000000
vn 0.000000 0.000000 0.100000
vn 0.000000 0.000000 0.100000
vn 0.000000 0.000000 0.100000
vn 0.000000 0.000000 0.100000
vn 0.000000 0.000000 0.100000
vn 0.000000 0.000000 0.100000
vn 0.000000 0.000000 0.100000
vn 0.000000 0.000000 0.100000
vn 0.000000 0.000000 0.100000
vn 0.000000 0.000000 0.100000
vn 0.000000 0.000000 0.100000
vn 0.000000 0.000000 0.100000
vn 0.000000 0.000000 0.100000
vn 0.000000 0.000000 0.100000
vn 0.000000 0.000000 0.100000
vn 0.000000 0.000000 0.100000
vn 0.000000 0.000000 0.100000
vn 0.000000 0.000000 0.100000
vn 0.000000 0.000000 0.100000
vn 0.000000 0.000000 0.100000
vn 0.000000 0.000000 0.100000
vn 0.000000 0.000000 0.100000
vn 0.000000 0.000000 0.100000
vn 0.000000 0.000000 0.100000
vn 0.000000 0.000000 0.100000
vn 0.000000 0.000000 0.100000
vn 0.000000 0.000000 0.100000
vn 0.000000 0.000000 0.100000
vn 0.000000 0.000000 0.100000
vn 0.000000 0.000000 0.100000
vn 0.000000 0.000000 0.100000
vn 0.000000 0.000000 0.100000
vn 0.000000 0.000000 0.100000
vn 0.000000 0.000000 0.100000
vn 0.000000 0.000000 0.100000
vn 0.000000 0.000000 0.100000
vn 0.000000 0.000000 0.100000
vn 0.000000 0.000000 0.100000
vn -0.000000 0.000000 -0.100000
vn -0.000000 0.000000 -0.100000
vn -0.000000 0.000000 -0.100000
vn -0.000000 0.000000 -0.100000
vn -0.000000 0.000000 -0.100000
vn -0.000000 0.000000 -0.100000
vn -0.000000 0.000000 -0.100000
vn -0.000000 0.000000 -0.100000
vn -0.000000 0.000000 -0.100000
vn -0.000000 0.000000 -0.100000
vn -0.000000 0.000000 -0.100000
vn -0.000000 0.000000 -0.100000
vn -0.000000 0.000000 -0.100000
vn -0.000000 0.000000 -0.100000
vn -0.000000 0.000000 -0.100000
vn -0.000000 0.000000 -0.100000
vn -0.000000 0.000000 -0.100000
vn -0.000000 0.000000 -0.100000
vn -0.000000 0.000000 -0.100000
vn -0.000000 0.000000 -0.100000
vn -0.000000 0.000000 -0.100000
vn -0.000000 0.000000 -0.100000
vn -0.000000 0.000000 -0.100000
vn -0.000000 0.000000 -0.100000
vn -0.000000 0.000000 -0.100000
vn -0.000000 0.000000 -0.100000
vn -0.000000 0.000000 -0.100000
vn -0.000000 0.000000 -0.100000
vn -0.000000 0.000000 -0.100000
vn -0.000000 0.000000 -0.100000
vn -0.000000 0.000000 -0.100000
vn -0.000000 0.000000 -0.100000
vn -0.000000 0.000000 -0.100000
vn -0.000000 0.000000 -0.100000
vn -0.000000 0.000000 -0.100000
vn -0.000000 0.000000 -0.100000
vn -0.000000 0.000000 -0.100000
vn -0.000000 0.000000 -0.100000
vn -0.000000 0.000000 -0.100000
vn -0.000000 0.000000 -0.100000
usemtl Paint_-_Enamel_Glossy_(Blue)
f 1/1/1 2/2/2 4/3/3
f 4/3/3 2/2/2 3/4/4
f 5/5/5 1/6/6 6/7/7
f 6/7/7 1/6/6 4/8/8
f 7/9/9 5/10/10 8/11/11
f 8/11/11 5/10/10 6/12/12
f 9/13/13 10/14/14 28/15/15
f 28/15/15 10/14/14 11/16/16
f 28/15/15 11/16/16 12/17/17
f 12/17/17 13/18/18 28/15/15
f 28/15/15 13/18/18 14/19/19
f 28/15/15 14/19/19 15/20/20
f 15/20/20 16/21/21 28/15/15
f 28/15/15 16/21/21 17/22/22
f 28/15/15 17/22/22 18/23/23
f 28/15/15 18/23/23 27/24/24
f 27/24/24 18/23/23 19/25/25
f 27/24/24 19/25/25 20/26/26
f 20/26/26 21/27/27 27/24/24
f 27/24/24 21/27/27 22/28/28
f 27/24/24 22/28/28 23/29/29
f 23/29/29 24/30/30 27/24/24
f 27/24/24 24/30/30 25/31/31
f 27/24/24 25/31/31 26/32/32
f 29/33/33 61/34/34 9/35/35
f 9/36/35 61/37/34 62/38/36
f 9/36/35 62/38/36 10/39/37
f 10/39/37 62/38/36 63/40/38
f 10/39/37 63/40/38 11/41/39
f 11/41/39 63/40/38 64/42/40
f 11/41/39 64/42/40 12/43/41
f 12/43/41 64/42/40 65/44/42
f 12/43/41 65/44/42 13/45/43
f 13/45/43 65/44/42 66/46/44
f 13/45/43 66/46/44 14/47/45
f 14/47/45 66/46/44 67/48/46
f 14/47/45 67/48/46 15/49/47
f 15/49/47 67/48/46 68/50/48
f 15/49/47 68/50/48 16/51/49
f 16/51/49 68/50/48 69/52/50
f 16/51/49 69/52/50 17/53/51
f 17/53/51 69/52/50 70/54/52
f 17/53/51 70/54/52 18/55/53
f 18/55/53 70/54/52 71/56/54
f 18/55/53 71/56/54 19/57/55
f 19/57/55 71/56/54 72/58/56
f 19/57/55 72/58/56 20/59/57
f 20/59/57 72/58/56 73/60/58
f 20/59/57 73/60/58 21/61/59
f 21/61/59 73/60/58 74/62/60
f 21/61/59 74/62/60 22/63/61
f 22/63/61 74/62/60 75/64/62
f 22/63/61 75/64/62 23/65/63
f 23/65/63 75/64/62 76/66/64
f 23/65/63 76/66/64 24/67/65
f 24/67/65 76/66/64 77/68/66
f 24/67/65 77/68/66 25/69/67
f 25/69/67 77/68/66 45/70/68
f 25/69/67 45/70/68 26/71/69
f 26/71/69 45/70/68 44/72/70
f 44/72/70 45/70/68 46/73/71
f 44/72/70 46/73/71 43/74/72
f 43/74/72 46/73/71 47/75/73
f 43/74/72 47/75/73 42/76/74
f 42/76/74 47/75/73 48/77/75
f 42/76/74 48/77/75 41/78/76
f 41/78/76 48/77/75 49/79/77
f 41/78/76 49/79/77 40/80/78
f 40/80/78 49/79/77 50/81/79
f 40/80/78 50/81/79 39/82/80
f 39/82/80 50/81/79 51/83/81
f 39/82/80 51/83/81 38/84/82
f 38/84/82 51/83/81 52/85/83
f 38/84/82 52/85/83 37/86/84
f 37/86/84 52/85/83 53/87/85
f 37/86/84 53/87/85 36/88/86
f 36/88/86 53/87/85 54/89/87
f 36/88/86 54/89/87 35/90/88
f 35/90/88 54/89/87 55/91/89
f 35/90/88 55/91/89 34/92/90
f 34/92/90 55/91/89 56/93/91
f 34/92/90 56/93/91 33/94/92
f 33/94/92 56/93/91 57/95/93
f 33/94/92 57/95/93 32/96/94
f 32/96/94 57/95/93 58/97/95
f 32/96/94 58/97/95 31/98/96
f 31/98/96 58/97/95 59/99/97
f 31/98/96 59/99/97 30/100/98
f 30/100/98 59/99/97 60/101/99
f 30/100/98 60/101/99 29/33/33
f 29/33/33 60/101/99 61/34/34
f 3/102/100 2/103/101 119/104/102
f 119/104/102 2/103/101 78/105/103
f 119/104/102 78/105/103 118/106/104
f 118/106/104 78/105/103 79/107/105
f 118/106/104 79/107/105 117/108/106
f 117/108/106 79/107/105 80/109/107
f 117/108/106 80/109/107 116/110/108
f 116/110/108 80/109/107 81/111/109
f 116/110/108 81/111/109 115/112/110
f 115/112/110 81/111/109 82/113/111
f 115/112/110 82/113/111 114/114/112
f 114/114/112 82/113/111 83/115/113
f 114/114/112 83/115/113 113/116/114
f 113/116/114 83/115/113 84/117/115
f 113/116/114 84/117/115 112/118/116
f 112/118/116 84/117/115 85/119/117
f 112/118/116 85/119/117 111/120/118
f 111/120/118 85/119/117 86/121/119
f 111/120/118 86/121/119 110/122/120
f 110/122/120 86/121/119 87/123/121
f 110/122/120 87/123/121 109/124/122
f 109/124/122 87/123/121 88/125/123
f 109/124/122 88/125/123 108/126/124
f 108/126/124 88/125/123 89/127/125
f 108/126/124 89/127/125 107/128/126
f 107/128/126 89/127/125 90/129/127
f 107/128/126 90/129/127 106/130/128
f 106/130/128 90/129/127 91/131/129
f 106/130/128 91/131/129 105/132/130
f 105/132/130 91/131/129 92/133/131
f 105/132/130 92/133/131 104/134/132
f 104/134/132 92/133/131 93/135/133
f 104/134/132 93/135/133 103/136/134
f 103/136/134 93/135/133 94/137/135
f 103/136/134 94/137/135 102/138/136
f 102/138/136 94/137/135 95/139/137
f 102/138/136 95/139/137 101/140/138
f 101/140/138 95/139/137 96/141/139
f 101/140/138 96/141/139 100/142/140
f 100/142/140 96/141/139 97/143/141
f 100/142/140 97/143/141 99/144/142
f 99/144/142 97/143/141 98/145/143
f 99/144/142 98/145/143 8/146/144
f 8/146/144 98/145/143 7/147/145
f 46/148/146 45/149/147 115/150/148
f 115/150/148 45/149/147 77/151/149
f 115/150/148 77/151/149 116/152/150
f 116/152/150 77/151/149 76/153/151
f 116/152/150 76/153/151 117/154/152
f 117/154/152 76/153/151 75/155/153
f 117/154/152 75/155/153 118/156/154
f 118/156/154 75/155/153 74/157/155
f 118/156/154 74/157/155 73/158/156
f 118/156/154 73/158/156 119/159/157
f 119/159/157 73/158/156 72/160/158
f 119/159/157 72/160/158 4/161/159
f 4/161/159 72/160/158 71/162/160
f 4/161/159 71/162/160 70/163/161
f 4/161/159 70/163/161 6/164/162
f 6/164/162 70/163/161 69/165/163
f 6/164/162 69/165/163 68/166/164
f 68/166/164 67/167/165 6/164/162
f 6/164/162 67/167/165 99/168/166
f 6/164/162 99/168/166 8/169/167
f 67/167/165 66/170/168 99/168/166
f 99/168/166 66/170/168 100/171/169
f 100/171/169 66/170/168 65/172/170
f 100/171/169 65/172/170 101/173/171
f 101/173/171 65/172/170 64/174/172
f 101/173/171 64/174/172 102/175/173
f 102/175/173 64/174/172 63/176/174
f 102/175/173 63/176/174 62/177/175
f 102/175/173 62/177/175 103/178/176
f 103/178/176 62/177/175 61/179/177
f 103/178/176 61/179/177 104/180/178
f 104/180/178 61/179/177 60/181/179
f 104/180/178 60/181/179 59/182/180
f 104/180/178 59/182/180 105/183/181
f 105/183/181 59/182/180 58/184/182
f 105/183/181 58/184/182 106/185/183
f 106/185/183 58/184/182 57/186/184
f 106/185/183 57/186/184 107/187/185
f 107/187/185 57/186/184 56/188/186
f 107/187/185 56/188/186 55/189/187
f 107/187/185 55/189/187 108/190/188
f 108/190/188 55/189/187 54/191/189
f 108/190/188 54/191/189 109/192/190
f 109/192/190 54/191/189 53/193/191
f 109/192/190 53/193/191 110/194/192
f 110/194/192 53/193/191 52/195/193
f 110/194/192 52/195/193 51/196/194
f 110/194/192 51/196/194 111/197/195
f 111/197/195 51/196/194 50/198/196
f 111/197/195 50/198/196 112/199/197
f 112/199/197 50/198/196 49/200/198
f 112/199/197 49/200/198 48/201/199
f 112/199/197 48/201/199 113/202/200
f 113/202/200 48/201/199 47/203/201
f 113/202/200 47/203/201 114/204/202
f 114/204/202 47/203/201 46/148/146
f 114/204/202 46/148/146 115/150/148
f 3/205/203 119/159/157 4/161/159
f 26/206/32 44/207/204 121/208/205
f 121/208/205 44/207/204 43/209/206
f 121/208/205 43/209/206 42/210/207
f 42/210/207 41/211/208 121/208/205
f 121/208/205 41/211/208 40/212/209
f 121/208/205 40/212/209 39/213/210
f 39/213/210 38/214/211 121/208/205
f 121/208/205 38/214/211 37/215/212
f 121/208/205 37/215/212 120/216/213
f 120/216/213 37/215/212 36/217/214
f 120/216/213 36/217/214 35/218/215
f 35/218/215 34/219/216 120/216/213
f 120/216/213 34/219/216 33/220/217
f 120/216/213 33/220/217 32/221/218
f 32/221/218 31/222/219 120/216/213
f 120/216/213 31/222/219 30/223/220
f 120/216/213 30/223/220 29/224/221
f 29/224/221 9/225/13 120/216/213
f 98/226/222 90/227/223 7/228/224
f 7/228/224 90/227/223 89/229/225
f 7/228/224 89/229/225 88/230/226
f 90/227/223 98/226/222 91/231/227
f 91/231/227 98/226/222 97/232/228
f 91/231/227 97/232/228 92/233/229
f 92/233/229 97/232/228 96/234/230
f 92/233/229 96/234/230 93/235/231
f 93/235/231 96/234/230 95/236/232
f 93/235/231 95/236/232 94/237/233
f 7/228/224 88/230/226 2/238/234
f 2/238/234 88/230/226 87/239/235
f 2/238/234 87/239/235 86/240/236
f 2/238/234 86/240/236 78/241/237
f 78/241/237 86/240/236 85/242/238
f 78/241/237 85/242/238 79/243/239
f 79/243/239 85/242/238 84/244/240
f 79/243/239 84/244/240 80/245/241
f 80/245/241 84/244/240 83/246/242
f 80/245/241 83/246/242 81/247/243
f 81/247/243 83/246/242 82/248/244
f 1/249/245 5/250/246 2/238/234
f 2/238/234 5/250/246 7/228/224
f 125/251/247 120/252/248 124/253/249
f 124/253/249 120/252/248 9/254/35
f 124/253/249 9/254/35 123/255/250
f 123/255/250 9/254/35 28/256/251
f 123/255/250 28/256/251 122/257/252
f 27/258/253 157/259/254 28/260/255
f 28/260/255 157/259/254 158/261/256
f 28/260/255 158/261/256 122/262/257
f 122/262/257 158/261/256 159/263/258
f 122/262/257 159/263/258 160/264/259
f 157/259/254 27/258/253 156/265/260
f 156/265/260 27/258/253 126/266/261
f 156/265/260 126/266/261 155/267/262
f 155/267/262 126/266/261 154/268/263
f 154/268/263 126/266/261 153/269/264
f 153/269/264 126/266/261 152/270/265
f 152/270/265 126/266/261 127/271/266
f 152/270/265 127/271/266 151/272/267
f 151/272/267 127/271/266 150/273/268
f 150/273/268 127/271/266 149/274/269
f 149/274/269 127/271/266 128/275/270
f 149/274/269 128/275/270 148/276/271
f 148/276/271 128/275/270 129/277/272
f 148/276/271 129/277/272 147/278/273
f 147/278/273 129/277/272 130/279/274
f 147/278/273 130/279/274 131/280/275
f 147/278/273 131/280/275 146/281/276
f 146/281/276 131/280/275 132/282/277
f 146/281/276 132/282/277 145/283/278
f 145/283/278 132/282/277 133/284/279
f 145/283/278 133/284/279 144/285/280
f 144/285/280 133/284/279 134/286/281
f 144/285/280 134/286/281 143/287/282
f 143/287/282 134/286/281 135/288/283
f 143/287/282 135/288/283 136/289/284
f 143/287/282 136/289/284 142/290/285
f 142/290/285 136/289/284 137/291/286
f 142/290/285 137/291/286 141/292/287
f 141/292/287 137/291/286 138/293/288
f 141/292/287 138/293/288 140/294/289
f 140/294/289 138/293/288 139/295/290
f 139/295/290 138/293/288 162/296/291
f 162/296/291 138/293/288 122/262/257
f 162/296/291 122/262/257 161/297/292
f 161/297/292 122/262/257 160/264/259
f 124/298/293 123/299/294 164/300/295
f 164/300/295 123/299/294 163/301/296
f 123/302/297 183/303/298 163/304/299
f 163/304/299 183/303/298 184/305/300
f 163/304/299 184/305/300 185/306/301
f 165/307/302 178/308/303 123/302/297
f 123/302/297 178/308/303 179/309/304
f 123/302/297 179/309/304 180/310/305
f 166/311/306 198/312/307 165/307/302
f 165/307/302 198/312/307 199/313/308
f 165/307/302 199/313/308 200/314/309
f 198/312/307 166/311/306 197/315/310
f 197/315/310 166/311/306 167/316/311
f 197/315/310 167/316/311 196/317/312
f 196/317/312 167/316/311 168/318/313
f 196/317/312 168/318/313 169/319/314
f 196/317/312 169/319/314 195/320/315
f 195/320/315 169/319/314 170/321/316
f 195/320/315 170/321/316 171/322/317
f 171/322/317 172/323/318 195/320/315
f 195/320/315 172/323/318 194/324/319
f 194/324/319 172/323/318 173/325/320
f 194/324/319 173/325/320 174/326/321
f 194/324/319 174/326/321 193/327/322
f 193/327/322 174/326/321 175/328/323
f 193/327/322 175/328/323 192/329/324
f 192/329/324 175/328/323 176/330/325
f 192/329/324 176/330/325 191/331/326
f 191/331/326 176/330/325 190/332/327
f 190/332/327 176/330/325 189/333/328
f 189/333/328 176/330/325 188/334/329
f 188/334/329 176/330/325 163/304/299
f 188/334/329 163/304/299 187/335/330
f 187/335/330 163/304/299 186/336/331
f 186/336/331 163/304/299 185/306/301
f 200/314/309 177/337/332 165/307/302
f 165/307/302 177/337/332 178/308/303
f 180/310/305 181/338/333 123/302/297
f 123/302/297 181/338/333 182/339/334
f 123/302/297 182/339/334 183/303/298
f 200/340/335 140/341/336 177/342/337
f 177/342/337 140/341/336 139/343/338
f 177/344/337 139/345/338 178/346/339
f 178/346/339 139/345/338 162/347/340
f 178/346/339 162/347/340 179/348/341
f 179/348/341 162/347/340 161/349/342
f 179/348/341 161/349/342 180/350/343
f 180/350/343 161/349/342 160/351/344
f 180/350/343 160/351/344 181/352/345
f 181/352/345 160/351/344 159/353/346
f 181/352/345 159/353/346 182/354/347
f 182/354/347 159/353/346 158/355/348
f 182/354/347 158/355/348 183/356/349
f 183/356/349 158/355/348 157/357/350
f 183/356/349 157/357/350 184/358/351
f 184/358/351 157/357/350 156/359/352
f 184/358/351 156/359/352 185/360/353
f 185/360/353 156/359/352 155/361/354
f 185/360/353 155/361/354 186/362/355
f 186/362/355 155/361/354 154/363/356
f 186/362/355 154/363/356 187/364/357
f 187/364/357 154/363/356 153/365/358
f 187/364/357 153/365/358 188/366/359
f 188/366/359 153/365/358 152/367/360
f 188/366/359 152/367/360 189/368/361
f 189/368/361 152/367/360 151/369/362
f 189/368/361 151/369/362 190/370/363
f 190/370/363 151/369/362 150/371/364
f 190/370/363 150/371/364 191/372/365
f 191/372/365 150/371/364 149/373/366
f 191/372/365 149/373/366 192/374/367
f 192/374/367 149/373/366 148/375/368
f 192/374/367 148/375/368 193/376/369
f 193/376/369 148/375/368 147/377/370
f 193/376/369 147/377/370 194/378/371
f 194/378/371 147/377/370 146/379/372
f 194/378/371 146/379/372 195/380/373
f 195/380/373 146/379/372 145/381/374
f 195/380/373 145/381/374 196/382/375
f 196/382/375 145/381/374 144/383/376
f 196/382/375 144/383/376 197/384/377
f 197/384/377 144/383/376 143/385/378
f 197/384/377 143/385/378 198/386/379
f 198/386/379 143/385/378 142/387/380
f 198/386/379 142/387/380 199/388/381
f 199/388/381 142/387/380 141/389/382
f 199/388/381 141/389/382 200/340/335
f 200/340/335 141/389/382 140/341/336
f 122/390/383 138/391/384 123/392/385
f 123/392/385 138/391/384 165/393/386
f 165/394/387 138/395/388 166/396/389
f 166/396/389 138/395/388 137/397/390
f 166/396/389 137/397/390 167/398/391
f 167/398/391 137/397/390 136/399/392
f 167/398/391 136/399/392 168/400/393
f 168/400/393 136/399/392 135/401/394
f 168/400/393 135/401/394 169/402/395
f 169/402/395 135/401/394 134/403/396
f 169/402/395 134/403/396 170/404/397
f 170/404/397 134/403/396 133/405/398
f 170/404/397 133/405/398 171/406/399
f 171/406/399 133/405/398 132/407/400
f 171/406/399 132/407/400 172/408/401
f 172/408/401 132/407/400 131/409/402
f 172/408/401 131/409/402 173/410/403
f 173/410/403 131/409/402 130/411/404
f 173/410/403 130/411/404 174/412/405
f 174/412/405 130/411/404 129/413/406
f 174/412/405 129/413/406 175/414/407
f 175/414/407 129/413/406 128/415/408
f 175/414/407 128/415/408 176/416/409
f 176/416/409 128/415/408 127/417/410
f 127/418/411 126/419/412 176/420/413
f 176/420/413 126/419/412 163/421/414
f 126/422/415 27/423/416 163/424/417
f 163/424/417 27/423/416 26/425/69
f 163/424/417 26/425/69 164/426/418
f 164/426/418 26/425/69 121/427/419
f 164/426/418 121/427/419 201/428/420
f 203/429/421 249/430/422 202/431/423
f 202/431/423 249/430/422 226/432/424
f 202/433/423 226/434/424 225/435/425
f 225/435/425 226/434/424 227/436/426
f 225/435/425 227/436/426 224/437/427
f 224/437/427 227/436/426 228/438/428
f 224/437/427 228/438/428 223/439/429
f 223/439/429 228/438/428 229/440/430
f 223/439/429 229/440/430 222/441/431
f 222/441/431 229/440/430 230/442/432
f 222/441/431 230/442/432 221/443/433
f 221/443/433 230/442/432 231/444/434
f 221/443/433 231/444/434 220/445/435
f 220/445/435 231/444/434 232/446/436
f 220/445/435 232/446/436 219/447/437
f 219/447/437 232/446/436 233/448/438
f 219/447/437 233/448/438 218/449/439
f 218/449/439 233/448/438 234/450/440
f 218/449/439 234/450/440 217/451/441
f 217/451/441 234/450/440 235/452/442
f 217/451/441 235/452/442 216/453/443
f 216/453/443 235/452/442 236/454/444
f 216/453/443 236/454/444 215/455/445
f 215/455/445 236/454/444 237/456/446
f 215/455/445 237/456/446 214/457/447
f 214/457/447 237/456/446 238/458/448
f 214/457/447 238/458/448 213/459/449
f 213/459/449 238/458/448 239/460/450
f 213/459/449 239/460/450 212/461/451
f 212/461/451 239/460/450 240/462/452
f 212/461/451 240/462/452 211/463/453
f 211/463/453 240/462/452 241/464/454
f 211/463/453 241/464/454 210/465/455
f 210/465/455 241/464/454 242/466/456
f 210/465/455 242/466/456 209/467/457
f 209/467/457 242/466/456 243/468/458
f 209/467/457 243/468/458 208/469/459
f 208/469/459 243/468/458 244/470/460
f 208/469/459 244/470/460 207/471/461
f 207/471/461 244/470/460 245/472/462
f 207/471/461 245/472/462 206/473/463
f 206/473/463 245/472/462 246/474/464
f 206/473/463 246/474/464 205/475/465
f 205/475/465 246/474/464 247/476/466
f 205/475/465 247/476/466 204/477/467
f 204/477/467 247/476/466 248/478/468
f 204/477/467 248/478/468 203/429/421
f 203/429/421 248/478/468 249/430/422
f 250/479/469 125/480/470 251/481/471
f 251/481/471 125/480/470 124/482/472
f 273/483/473 252/484/474 272/485/475
f 272/485/475 252/484/474 253/486/476
f 272/485/475 253/486/476 271/487/477
f 271/487/477 253/486/476 254/488/478
f 271/487/477 254/488/478 270/489/479
f 270/489/479 254/488/478 255/490/480
f 270/489/479 255/490/480 269/491/481
f 269/491/481 255/490/480 256/492/482
f 269/491/481 256/492/482 268/493/483
f 268/493/483 256/492/482 257/494/484
f 268/493/483 257/494/484 267/495/485
f 267/495/485 257/494/484 258/496/486
f 267/495/485 258/496/486 266/497/487
f 266/497/487 258/496/486 259/498/488
f 266/497/487 259/498/488 265/499/489
f 265/499/489 259/498/488 260/500/490
f 265/499/489 260/500/490 264/501/491
f 264/501/491 260/500/490 261/502/492
f 264/501/491 261/502/492 263/503/493
f 263/503/493 261/502/492 262/504/494
f 263/503/493 262/504/494 251/505/495
f 251/505/495 262/504/494 250/506/496
f 201/507/497 252/508/498 164/509/499
f 164/509/499 252/508/498 273/510/500
f 164/511/501 208/512/502 124/513/503
f 124/513/503 208/512/502 207/514/504
f 124/513/503 207/514/504 206/515/505
f 273/516/506 213/517/507 164/511/501
f 164/511/501 213/517/507 212/518/508
f 164/511/501 212/518/508 211/519/509
f 272/520/510 217/521/511 273/516/506
f 273/516/506 217/521/511 216/522/512
f 273/516/506 216/522/512 215/523/513
f 217/521/511 272/520/510 218/524/514
f 218/524/514 272/520/510 271/525/515
f 218/524/514 271/525/515 219/526/516
f 219/526/516 271/525/515 270/527/517
f 219/526/516 270/527/517 269/528/518
f 219/526/516 269/528/518 220/529/519
f 220/529/519 269/528/518 268/530/520
f 220/529/519 268/530/520 267/531/521
f 267/531/521 266/532/522 220/529/519
f 220/529/519 266/532/522 221/533/523
f 221/533/523 266/532/522 265/534/524
f 221/533/523 265/534/524 264/535/525
f 221/533/523 264/535/525 222/536/526
f 222/536/526 264/535/525 263/537/527
f 222/536/526 263/537/527 223/538/528
f 223/538/528 263/537/527 251/539/529
f 223/538/528 251/539/529 224/540/530
f 224/540/530 251/539/529 225/541/531
f 225/541/531 251/539/529 202/542/532
f 202/542/532 251/539/529 203/543/533
f 203/543/533 251/539/529 124/513/503
f 203/543/533 124/513/503 204/544/534
f 204/544/534 124/513/503 205/545/535
f 205/545/535 124/513/503 206/515/505
f 215/523/513 214/546/536 273/516/506
f 273/516/506 214/546/536 213/517/507
f 211/519/509 210/547/537 164/511/501
f 164/511/501 210/547/537 209/548/538
f 164/511/501 209/548/538 208/512/502
f 120/549/539 244/550/540 121/551/541
f 121/551/541 244/550/540 243/552/542
f 121/551/541 243/552/542 201/553/543
f 201/553/543 243/552/542 242/554/544
f 201/553/543 242/554/544 241/555/545
f 244/550/540 120/549/539 245/556/546
f 245/556/546 120/549/539 125/557/547
f 245/556/546 125/557/547 246/558/548
f 246/558/548 125/557/547 247/559/549
f 247/559/549 125/557/547 248/560/550
f 248/560/550 125/557/547 249/561/551
f 249/561/551 125/557/547 250/562/552
f 249/561/551 250/562/552 226/563/553
f 226/563/553 250/562/552 227/564/554
f 227/564/554 250/562/552 228/565/555
f 228/565/555 250/562/552 262/566/556
f 228/565/555 262/566/556 229/567/557
f 229/567/557 262/566/556 261/568/558
f 229/567/557 261/568/558 230/569/559
f 230/569/559 261/568/558 260/570/560
f 230/569/559 260/570/560 259/571/561
f 230/569/559 259/571/561 231/572/562
f 231/572/562 259/571/561 258/573/563
f 231/572/562 258/573/563 232/574/564
f 232/574/564 258/573/563 257/575/565
f 232/574/564 257/575/565 233/576/566
f 233/576/566 257/575/565 256/577/567
f 233/576/566 256/577/567 234/578/568
f 234/578/568 256/577/567 255/579/569
f 234/578/568 255/579/569 254/580/570
f 234/578/568 254/580/570 235/581/571
f 235/581/571 254/580/570 253/582/572
f 235/581/571 253/582/572 236/583/573
f 236/583/573 253/582/572 252/584/574
f 236/583/573 252/584/574 237/585/575
f 237/585/575 252/584/574 238/586/576
f 238/586/576 252/584/574 239/587/577
f 239/587/577 252/584/574 201/553/543
f 239/587/577 201/553/543 240/588/578
f 240/588/578 201/553/543 241/555/545
# 273 vertices
# 588 texture params
# 578 normals
# 550 facets

# 1 groups
