ISO-10303-21;
HEADER;
/* Generated by software containing ST-Developer
 * from STEP Tools, Inc. (www.steptools.com) 
 */

FILE_DESCRIPTION(
/* description */ (''),
/* implementation_level */ '2;1');

FILE_NAME(
/* name */ 'd3991915-a201-4845-8dfd-146dd06c6d0c.stp',
/* time_stamp */ '2026-08-04T12:54:32Z',
/* author */ (''),
/* organization */ (''),
/* preprocessor_version */ 'ST-DEVELOPER v20.2',
/* originating_system */ 'Autodesk Translation Framework v15.15.0.0',
/* authorisation */ '');

FILE_SCHEMA (('AUTOMOTIVE_DESIGN { 1 0 10303 214 3 1 1 }'));
ENDSEC;

DATA;
#10=MECHANICAL_DESIGN_GEOMETRIC_PRESENTATION_REPRESENTATION('',(#13),#712);
#11=SHAPE_REPRESENTATION_RELATIONSHIP('SRR','None',#719,#12);
#12=ADVANCED_BREP_SHAPE_REPRESENTATION('',(#14),#711);
#13=STYLED_ITEM('',(#729),#14);
#14=MANIFOLD_SOLID_BREP('Body1',#423);
#15=FACE_BOUND('',#70,.T.);
#16=FACE_BOUND('',#75,.T.);
#17=FACE_BOUND('',#78,.T.);
#18=FACE_BOUND('',#89,.T.);
#19=FACE_BOUND('',#91,.T.);
#20=CYLINDRICAL_SURFACE('',#442,30.);
#21=CYLINDRICAL_SURFACE('',#445,15.);
#22=CYLINDRICAL_SURFACE('',#459,8.);
#23=CYLINDRICAL_SURFACE('',#461,23.);
#24=CYLINDRICAL_SURFACE('',#464,8.);
#25=CYLINDRICAL_SURFACE('',#468,23.);
#26=CIRCLE('',#441,30.);
#27=CIRCLE('',#443,30.);
#28=CIRCLE('',#444,30.);
#29=CIRCLE('',#446,15.);
#30=CIRCLE('',#447,15.);
#31=CIRCLE('',#453,23.);
#32=CIRCLE('',#454,8.);
#33=CIRCLE('',#457,23.);
#34=CIRCLE('',#458,8.);
#35=CIRCLE('',#465,8.);
#36=CIRCLE('',#466,8.);
#37=CIRCLE('',#469,23.);
#38=CIRCLE('',#470,23.);
#39=FACE_OUTER_BOUND('',#63,.T.);
#40=FACE_OUTER_BOUND('',#64,.T.);
#41=FACE_OUTER_BOUND('',#65,.T.);
#42=FACE_OUTER_BOUND('',#66,.T.);
#43=FACE_OUTER_BOUND('',#67,.T.);
#44=FACE_OUTER_BOUND('',#68,.T.);
#45=FACE_OUTER_BOUND('',#69,.T.);
#46=FACE_OUTER_BOUND('',#71,.T.);
#47=FACE_OUTER_BOUND('',#72,.T.);
#48=FACE_OUTER_BOUND('',#73,.T.);
#49=FACE_OUTER_BOUND('',#74,.T.);
#50=FACE_OUTER_BOUND('',#76,.T.);
#51=FACE_OUTER_BOUND('',#77,.T.);
#52=FACE_OUTER_BOUND('',#79,.T.);
#53=FACE_OUTER_BOUND('',#80,.T.);
#54=FACE_OUTER_BOUND('',#81,.T.);
#55=FACE_OUTER_BOUND('',#82,.T.);
#56=FACE_OUTER_BOUND('',#83,.T.);
#57=FACE_OUTER_BOUND('',#84,.T.);
#58=FACE_OUTER_BOUND('',#85,.T.);
#59=FACE_OUTER_BOUND('',#86,.T.);
#60=FACE_OUTER_BOUND('',#87,.T.);
#61=FACE_OUTER_BOUND('',#88,.T.);
#62=FACE_OUTER_BOUND('',#90,.T.);
#63=EDGE_LOOP('',(#269,#270,#271,#272));
#64=EDGE_LOOP('',(#273,#274,#275,#276));
#65=EDGE_LOOP('',(#277,#278,#279,#280));
#66=EDGE_LOOP('',(#281,#282,#283,#284));
#67=EDGE_LOOP('',(#285,#286,#287,#288,#289));
#68=EDGE_LOOP('',(#290,#291,#292,#293));
#69=EDGE_LOOP('',(#294));
#70=EDGE_LOOP('',(#295,#296,#297,#298));
#71=EDGE_LOOP('',(#299,#300,#301,#302));
#72=EDGE_LOOP('',(#303,#304,#305,#306));
#73=EDGE_LOOP('',(#307,#308,#309,#310,#311,#312,#313));
#74=EDGE_LOOP('',(#314,#315,#316,#317,#318,#319));
#75=EDGE_LOOP('',(#320));
#76=EDGE_LOOP('',(#321,#322,#323,#324));
#77=EDGE_LOOP('',(#325,#326,#327,#328));
#78=EDGE_LOOP('',(#329));
#79=EDGE_LOOP('',(#330,#331,#332,#333));
#80=EDGE_LOOP('',(#334,#335,#336,#337));
#81=EDGE_LOOP('',(#338,#339,#340,#341));
#82=EDGE_LOOP('',(#342,#343,#344,#345));
#83=EDGE_LOOP('',(#346,#347,#348,#349,#350,#351,#352));
#84=EDGE_LOOP('',(#353,#354,#355,#356));
#85=EDGE_LOOP('',(#357,#358,#359,#360));
#86=EDGE_LOOP('',(#361,#362,#363,#364));
#87=EDGE_LOOP('',(#365,#366,#367,#368));
#88=EDGE_LOOP('',(#369,#370,#371,#372));
#89=EDGE_LOOP('',(#373));
#90=EDGE_LOOP('',(#374,#375,#376,#377,#378,#379));
#91=EDGE_LOOP('',(#380));
#92=LINE('',#597,#135);
#93=LINE('',#599,#136);
#94=LINE('',#601,#137);
#95=LINE('',#602,#138);
#96=LINE('',#605,#139);
#97=LINE('',#607,#140);
#98=LINE('',#608,#141);
#99=LINE('',#611,#142);
#100=LINE('',#613,#143);
#101=LINE('',#614,#144);
#102=LINE('',#620,#145);
#103=LINE('',#622,#146);
#104=LINE('',#623,#147);
#105=LINE('',#627,#148);
#106=LINE('',#635,#149);
#107=LINE('',#637,#150);
#108=LINE('',#638,#151);
#109=LINE('',#642,#152);
#110=LINE('',#644,#153);
#111=LINE('',#646,#154);
#112=LINE('',#648,#155);
#113=LINE('',#649,#156);
#114=LINE('',#652,#157);
#115=LINE('',#654,#158);
#116=LINE('',#657,#159);
#117=LINE('',#662,#160);
#118=LINE('',#664,#161);
#119=LINE('',#665,#162);
#120=LINE('',#668,#163);
#121=LINE('',#671,#164);
#122=LINE('',#675,#165);
#123=LINE('',#677,#166);
#124=LINE('',#679,#167);
#125=LINE('',#681,#168);
#126=LINE('',#684,#169);
#127=LINE('',#685,#170);
#128=LINE('',#690,#171);
#129=LINE('',#694,#172);
#130=LINE('',#696,#173);
#131=LINE('',#697,#174);
#132=LINE('',#703,#175);
#133=LINE('',#705,#176);
#134=LINE('',#706,#177);
#135=VECTOR('',#478,10.);
#136=VECTOR('',#479,10.);
#137=VECTOR('',#480,10.);
#138=VECTOR('',#481,10.);
#139=VECTOR('',#484,10.);
#140=VECTOR('',#485,10.);
#141=VECTOR('',#486,10.);
#142=VECTOR('',#489,10.);
#143=VECTOR('',#490,10.);
#144=VECTOR('',#491,10.);
#145=VECTOR('',#496,10.);
#146=VECTOR('',#497,10.);
#147=VECTOR('',#498,10.);
#148=VECTOR('',#503,30.);
#149=VECTOR('',#516,10.);
#150=VECTOR('',#517,10.);
#151=VECTOR('',#518,10.);
#152=VECTOR('',#523,10.);
#153=VECTOR('',#524,10.);
#154=VECTOR('',#525,10.);
#155=VECTOR('',#526,10.);
#156=VECTOR('',#527,10.);
#157=VECTOR('',#530,10.);
#158=VECTOR('',#531,10.);
#159=VECTOR('',#534,10.);
#160=VECTOR('',#539,10.);
#161=VECTOR('',#540,10.);
#162=VECTOR('',#541,10.);
#163=VECTOR('',#544,10.);
#164=VECTOR('',#547,10.);
#165=VECTOR('',#552,8.);
#166=VECTOR('',#555,10.);
#167=VECTOR('',#558,10.);
#168=VECTOR('',#561,10.);
#169=VECTOR('',#564,10.);
#170=VECTOR('',#565,10.);
#171=VECTOR('',#570,8.);
#172=VECTOR('',#575,10.);
#173=VECTOR('',#576,10.);
#174=VECTOR('',#577,10.);
#175=VECTOR('',#584,10.);
#176=VECTOR('',#587,10.);
#177=VECTOR('',#588,10.);
#178=VERTEX_POINT('',#595);
#179=VERTEX_POINT('',#596);
#180=VERTEX_POINT('',#598);
#181=VERTEX_POINT('',#600);
#182=VERTEX_POINT('',#604);
#183=VERTEX_POINT('',#606);
#184=VERTEX_POINT('',#610);
#185=VERTEX_POINT('',#612);
#186=VERTEX_POINT('',#616);
#187=VERTEX_POINT('',#617);
#188=VERTEX_POINT('',#619);
#189=VERTEX_POINT('',#621);
#190=VERTEX_POINT('',#625);
#191=VERTEX_POINT('',#634);
#192=VERTEX_POINT('',#636);
#193=VERTEX_POINT('',#641);
#194=VERTEX_POINT('',#643);
#195=VERTEX_POINT('',#645);
#196=VERTEX_POINT('',#647);
#197=VERTEX_POINT('',#651);
#198=VERTEX_POINT('',#653);
#199=VERTEX_POINT('',#655);
#200=VERTEX_POINT('',#658);
#201=VERTEX_POINT('',#661);
#202=VERTEX_POINT('',#663);
#203=VERTEX_POINT('',#667);
#204=VERTEX_POINT('',#669);
#205=VERTEX_POINT('',#672);
#206=VERTEX_POINT('',#683);
#207=VERTEX_POINT('',#687);
#208=VERTEX_POINT('',#689);
#209=VERTEX_POINT('',#693);
#210=VERTEX_POINT('',#695);
#211=VERTEX_POINT('',#699);
#212=VERTEX_POINT('',#701);
#213=EDGE_CURVE('',#178,#179,#92,.T.);
#214=EDGE_CURVE('',#178,#180,#93,.T.);
#215=EDGE_CURVE('',#181,#180,#94,.T.);
#216=EDGE_CURVE('',#179,#181,#95,.T.);
#217=EDGE_CURVE('',#179,#182,#96,.T.);
#218=EDGE_CURVE('',#183,#181,#97,.T.);
#219=EDGE_CURVE('',#182,#183,#98,.T.);
#220=EDGE_CURVE('',#182,#184,#99,.T.);
#221=EDGE_CURVE('',#185,#183,#100,.T.);
#222=EDGE_CURVE('',#184,#185,#101,.T.);
#223=EDGE_CURVE('',#186,#187,#26,.T.);
#224=EDGE_CURVE('',#188,#187,#102,.T.);
#225=EDGE_CURVE('',#189,#188,#103,.T.);
#226=EDGE_CURVE('',#186,#189,#104,.T.);
#227=EDGE_CURVE('',#190,#190,#27,.T.);
#228=EDGE_CURVE('',#190,#186,#105,.T.);
#229=EDGE_CURVE('',#187,#186,#28,.T.);
#230=EDGE_CURVE('',#184,#178,#29,.T.);
#231=EDGE_CURVE('',#180,#185,#30,.T.);
#232=EDGE_CURVE('',#191,#186,#106,.T.);
#233=EDGE_CURVE('',#192,#191,#107,.T.);
#234=EDGE_CURVE('',#187,#192,#108,.T.);
#235=EDGE_CURVE('',#189,#193,#109,.T.);
#236=EDGE_CURVE('',#193,#194,#110,.T.);
#237=EDGE_CURVE('',#195,#194,#111,.T.);
#238=EDGE_CURVE('',#196,#195,#112,.T.);
#239=EDGE_CURVE('',#191,#196,#113,.T.);
#240=EDGE_CURVE('',#197,#188,#114,.T.);
#241=EDGE_CURVE('',#197,#198,#115,.T.);
#242=EDGE_CURVE('',#198,#199,#31,.T.);
#243=EDGE_CURVE('',#193,#199,#116,.T.);
#244=EDGE_CURVE('',#200,#200,#32,.T.);
#245=EDGE_CURVE('',#201,#194,#117,.T.);
#246=EDGE_CURVE('',#202,#201,#118,.T.);
#247=EDGE_CURVE('',#195,#202,#119,.T.);
#248=EDGE_CURVE('',#203,#194,#120,.T.);
#249=EDGE_CURVE('',#204,#203,#33,.T.);
#250=EDGE_CURVE('',#201,#204,#121,.T.);
#251=EDGE_CURVE('',#205,#205,#34,.T.);
#252=EDGE_CURVE('',#205,#200,#122,.T.);
#253=EDGE_CURVE('',#199,#203,#123,.T.);
#254=EDGE_CURVE('',#198,#204,#124,.T.);
#255=EDGE_CURVE('',#197,#201,#125,.T.);
#256=EDGE_CURVE('',#192,#206,#126,.T.);
#257=EDGE_CURVE('',#206,#202,#127,.T.);
#258=EDGE_CURVE('',#207,#207,#35,.T.);
#259=EDGE_CURVE('',#207,#208,#128,.T.);
#260=EDGE_CURVE('',#208,#208,#36,.T.);
#261=EDGE_CURVE('',#196,#209,#129,.T.);
#262=EDGE_CURVE('',#210,#195,#130,.T.);
#263=EDGE_CURVE('',#209,#210,#131,.T.);
#264=EDGE_CURVE('',#211,#209,#37,.T.);
#265=EDGE_CURVE('',#212,#210,#38,.T.);
#266=EDGE_CURVE('',#211,#212,#132,.T.);
#267=EDGE_CURVE('',#206,#211,#133,.T.);
#268=EDGE_CURVE('',#202,#212,#134,.T.);
#269=ORIENTED_EDGE('',*,*,#213,.F.);
#270=ORIENTED_EDGE('',*,*,#214,.T.);
#271=ORIENTED_EDGE('',*,*,#215,.F.);
#272=ORIENTED_EDGE('',*,*,#216,.F.);
#273=ORIENTED_EDGE('',*,*,#217,.F.);
#274=ORIENTED_EDGE('',*,*,#216,.T.);
#275=ORIENTED_EDGE('',*,*,#218,.F.);
#276=ORIENTED_EDGE('',*,*,#219,.F.);
#277=ORIENTED_EDGE('',*,*,#220,.F.);
#278=ORIENTED_EDGE('',*,*,#219,.T.);
#279=ORIENTED_EDGE('',*,*,#221,.F.);
#280=ORIENTED_EDGE('',*,*,#222,.F.);
#281=ORIENTED_EDGE('',*,*,#223,.T.);
#282=ORIENTED_EDGE('',*,*,#224,.F.);
#283=ORIENTED_EDGE('',*,*,#225,.F.);
#284=ORIENTED_EDGE('',*,*,#226,.F.);
#285=ORIENTED_EDGE('',*,*,#227,.F.);
#286=ORIENTED_EDGE('',*,*,#228,.T.);
#287=ORIENTED_EDGE('',*,*,#229,.F.);
#288=ORIENTED_EDGE('',*,*,#223,.F.);
#289=ORIENTED_EDGE('',*,*,#228,.F.);
#290=ORIENTED_EDGE('',*,*,#230,.F.);
#291=ORIENTED_EDGE('',*,*,#222,.T.);
#292=ORIENTED_EDGE('',*,*,#231,.F.);
#293=ORIENTED_EDGE('',*,*,#214,.F.);
#294=ORIENTED_EDGE('',*,*,#227,.T.);
#295=ORIENTED_EDGE('',*,*,#231,.T.);
#296=ORIENTED_EDGE('',*,*,#221,.T.);
#297=ORIENTED_EDGE('',*,*,#218,.T.);
#298=ORIENTED_EDGE('',*,*,#215,.T.);
#299=ORIENTED_EDGE('',*,*,#229,.T.);
#300=ORIENTED_EDGE('',*,*,#232,.F.);
#301=ORIENTED_EDGE('',*,*,#233,.F.);
#302=ORIENTED_EDGE('',*,*,#234,.F.);
#303=ORIENTED_EDGE('',*,*,#230,.T.);
#304=ORIENTED_EDGE('',*,*,#213,.T.);
#305=ORIENTED_EDGE('',*,*,#217,.T.);
#306=ORIENTED_EDGE('',*,*,#220,.T.);
#307=ORIENTED_EDGE('',*,*,#232,.T.);
#308=ORIENTED_EDGE('',*,*,#226,.T.);
#309=ORIENTED_EDGE('',*,*,#235,.T.);
#310=ORIENTED_EDGE('',*,*,#236,.T.);
#311=ORIENTED_EDGE('',*,*,#237,.F.);
#312=ORIENTED_EDGE('',*,*,#238,.F.);
#313=ORIENTED_EDGE('',*,*,#239,.F.);
#314=ORIENTED_EDGE('',*,*,#225,.T.);
#315=ORIENTED_EDGE('',*,*,#240,.F.);
#316=ORIENTED_EDGE('',*,*,#241,.T.);
#317=ORIENTED_EDGE('',*,*,#242,.T.);
#318=ORIENTED_EDGE('',*,*,#243,.F.);
#319=ORIENTED_EDGE('',*,*,#235,.F.);
#320=ORIENTED_EDGE('',*,*,#244,.T.);
#321=ORIENTED_EDGE('',*,*,#237,.T.);
#322=ORIENTED_EDGE('',*,*,#245,.F.);
#323=ORIENTED_EDGE('',*,*,#246,.F.);
#324=ORIENTED_EDGE('',*,*,#247,.F.);
#325=ORIENTED_EDGE('',*,*,#245,.T.);
#326=ORIENTED_EDGE('',*,*,#248,.F.);
#327=ORIENTED_EDGE('',*,*,#249,.F.);
#328=ORIENTED_EDGE('',*,*,#250,.F.);
#329=ORIENTED_EDGE('',*,*,#251,.F.);
#330=ORIENTED_EDGE('',*,*,#251,.T.);
#331=ORIENTED_EDGE('',*,*,#252,.T.);
#332=ORIENTED_EDGE('',*,*,#244,.F.);
#333=ORIENTED_EDGE('',*,*,#252,.F.);
#334=ORIENTED_EDGE('',*,*,#243,.T.);
#335=ORIENTED_EDGE('',*,*,#253,.T.);
#336=ORIENTED_EDGE('',*,*,#248,.T.);
#337=ORIENTED_EDGE('',*,*,#236,.F.);
#338=ORIENTED_EDGE('',*,*,#242,.F.);
#339=ORIENTED_EDGE('',*,*,#254,.T.);
#340=ORIENTED_EDGE('',*,*,#249,.T.);
#341=ORIENTED_EDGE('',*,*,#253,.F.);
#342=ORIENTED_EDGE('',*,*,#241,.F.);
#343=ORIENTED_EDGE('',*,*,#255,.T.);
#344=ORIENTED_EDGE('',*,*,#250,.T.);
#345=ORIENTED_EDGE('',*,*,#254,.F.);
#346=ORIENTED_EDGE('',*,*,#224,.T.);
#347=ORIENTED_EDGE('',*,*,#234,.T.);
#348=ORIENTED_EDGE('',*,*,#256,.T.);
#349=ORIENTED_EDGE('',*,*,#257,.T.);
#350=ORIENTED_EDGE('',*,*,#246,.T.);
#351=ORIENTED_EDGE('',*,*,#255,.F.);
#352=ORIENTED_EDGE('',*,*,#240,.T.);
#353=ORIENTED_EDGE('',*,*,#258,.F.);
#354=ORIENTED_EDGE('',*,*,#259,.T.);
#355=ORIENTED_EDGE('',*,*,#260,.T.);
#356=ORIENTED_EDGE('',*,*,#259,.F.);
#357=ORIENTED_EDGE('',*,*,#261,.F.);
#358=ORIENTED_EDGE('',*,*,#238,.T.);
#359=ORIENTED_EDGE('',*,*,#262,.F.);
#360=ORIENTED_EDGE('',*,*,#263,.F.);
#361=ORIENTED_EDGE('',*,*,#264,.T.);
#362=ORIENTED_EDGE('',*,*,#263,.T.);
#363=ORIENTED_EDGE('',*,*,#265,.F.);
#364=ORIENTED_EDGE('',*,*,#266,.F.);
#365=ORIENTED_EDGE('',*,*,#267,.T.);
#366=ORIENTED_EDGE('',*,*,#266,.T.);
#367=ORIENTED_EDGE('',*,*,#268,.F.);
#368=ORIENTED_EDGE('',*,*,#257,.F.);
#369=ORIENTED_EDGE('',*,*,#247,.T.);
#370=ORIENTED_EDGE('',*,*,#268,.T.);
#371=ORIENTED_EDGE('',*,*,#265,.T.);
#372=ORIENTED_EDGE('',*,*,#262,.T.);
#373=ORIENTED_EDGE('',*,*,#258,.T.);
#374=ORIENTED_EDGE('',*,*,#233,.T.);
#375=ORIENTED_EDGE('',*,*,#239,.T.);
#376=ORIENTED_EDGE('',*,*,#261,.T.);
#377=ORIENTED_EDGE('',*,*,#264,.F.);
#378=ORIENTED_EDGE('',*,*,#267,.F.);
#379=ORIENTED_EDGE('',*,*,#256,.F.);
#380=ORIENTED_EDGE('',*,*,#260,.F.);
#381=PLANE('',#437);
#382=PLANE('',#438);
#383=PLANE('',#439);
#384=PLANE('',#440);
#385=PLANE('',#448);
#386=PLANE('',#449);
#387=PLANE('',#450);
#388=PLANE('',#451);
#389=PLANE('',#452);
#390=PLANE('',#455);
#391=PLANE('',#456);
#392=PLANE('',#460);
#393=PLANE('',#462);
#394=PLANE('',#463);
#395=PLANE('',#467);
#396=PLANE('',#471);
#397=PLANE('',#472);
#398=PLANE('',#473);
#399=ADVANCED_FACE('',(#39),#381,.T.);
#400=ADVANCED_FACE('',(#40),#382,.T.);
#401=ADVANCED_FACE('',(#41),#383,.T.);
#402=ADVANCED_FACE('',(#42),#384,.F.);
#403=ADVANCED_FACE('',(#43),#20,.T.);
#404=ADVANCED_FACE('',(#44),#21,.F.);
#405=ADVANCED_FACE('',(#45,#15),#385,.T.);
#406=ADVANCED_FACE('',(#46),#386,.F.);
#407=ADVANCED_FACE('',(#47),#387,.F.);
#408=ADVANCED_FACE('',(#48),#388,.T.);
#409=ADVANCED_FACE('',(#49,#16),#389,.T.);
#410=ADVANCED_FACE('',(#50),#390,.T.);
#411=ADVANCED_FACE('',(#51,#17),#391,.F.);
#412=ADVANCED_FACE('',(#52),#22,.F.);
#413=ADVANCED_FACE('',(#53),#392,.F.);
#414=ADVANCED_FACE('',(#54),#23,.T.);
#415=ADVANCED_FACE('',(#55),#393,.F.);
#416=ADVANCED_FACE('',(#56),#394,.T.);
#417=ADVANCED_FACE('',(#57),#24,.F.);
#418=ADVANCED_FACE('',(#58),#395,.T.);
#419=ADVANCED_FACE('',(#59),#25,.T.);
#420=ADVANCED_FACE('',(#60),#396,.T.);
#421=ADVANCED_FACE('',(#61,#18),#397,.T.);
#422=ADVANCED_FACE('',(#62,#19),#398,.F.);
#423=CLOSED_SHELL('',(#399,#400,#401,#402,#403,#404,#405,#406,#407,#408,
#409,#410,#411,#412,#413,#414,#415,#416,#417,#418,#419,#420,#421,#422));
#424=DERIVED_UNIT_ELEMENT(#426,1.);
#425=DERIVED_UNIT_ELEMENT(#714,-3.);
#426=(
MASS_UNIT()
NAMED_UNIT(*)
SI_UNIT(.KILO.,.GRAM.)
);
#427=DERIVED_UNIT((#424,#425));
#428=MEASURE_REPRESENTATION_ITEM('density measure',
POSITIVE_RATIO_MEASURE(7850.),#427);
#429=PROPERTY_DEFINITION_REPRESENTATION(#434,#431);
#430=PROPERTY_DEFINITION_REPRESENTATION(#435,#432);
#431=REPRESENTATION('material name',(#433),#711);
#432=REPRESENTATION('density',(#428),#711);
#433=DESCRIPTIVE_REPRESENTATION_ITEM('Steel','Steel');
#434=PROPERTY_DEFINITION('material property','material name',#721);
#435=PROPERTY_DEFINITION('material property','density of part',#721);
#436=AXIS2_PLACEMENT_3D('',#593,#474,#475);
#437=AXIS2_PLACEMENT_3D('',#594,#476,#477);
#438=AXIS2_PLACEMENT_3D('',#603,#482,#483);
#439=AXIS2_PLACEMENT_3D('',#609,#487,#488);
#440=AXIS2_PLACEMENT_3D('',#615,#492,#493);
#441=AXIS2_PLACEMENT_3D('',#618,#494,#495);
#442=AXIS2_PLACEMENT_3D('',#624,#499,#500);
#443=AXIS2_PLACEMENT_3D('',#626,#501,#502);
#444=AXIS2_PLACEMENT_3D('',#628,#504,#505);
#445=AXIS2_PLACEMENT_3D('',#629,#506,#507);
#446=AXIS2_PLACEMENT_3D('',#630,#508,#509);
#447=AXIS2_PLACEMENT_3D('',#631,#510,#511);
#448=AXIS2_PLACEMENT_3D('',#632,#512,#513);
#449=AXIS2_PLACEMENT_3D('',#633,#514,#515);
#450=AXIS2_PLACEMENT_3D('',#639,#519,#520);
#451=AXIS2_PLACEMENT_3D('',#640,#521,#522);
#452=AXIS2_PLACEMENT_3D('',#650,#528,#529);
#453=AXIS2_PLACEMENT_3D('',#656,#532,#533);
#454=AXIS2_PLACEMENT_3D('',#659,#535,#536);
#455=AXIS2_PLACEMENT_3D('',#660,#537,#538);
#456=AXIS2_PLACEMENT_3D('',#666,#542,#543);
#457=AXIS2_PLACEMENT_3D('',#670,#545,#546);
#458=AXIS2_PLACEMENT_3D('',#673,#548,#549);
#459=AXIS2_PLACEMENT_3D('',#674,#550,#551);
#460=AXIS2_PLACEMENT_3D('',#676,#553,#554);
#461=AXIS2_PLACEMENT_3D('',#678,#556,#557);
#462=AXIS2_PLACEMENT_3D('',#680,#559,#560);
#463=AXIS2_PLACEMENT_3D('',#682,#562,#563);
#464=AXIS2_PLACEMENT_3D('',#686,#566,#567);
#465=AXIS2_PLACEMENT_3D('',#688,#568,#569);
#466=AXIS2_PLACEMENT_3D('',#691,#571,#572);
#467=AXIS2_PLACEMENT_3D('',#692,#573,#574);
#468=AXIS2_PLACEMENT_3D('',#698,#578,#579);
#469=AXIS2_PLACEMENT_3D('',#700,#580,#581);
#470=AXIS2_PLACEMENT_3D('',#702,#582,#583);
#471=AXIS2_PLACEMENT_3D('',#704,#585,#586);
#472=AXIS2_PLACEMENT_3D('',#707,#589,#590);
#473=AXIS2_PLACEMENT_3D('',#708,#591,#592);
#474=DIRECTION('axis',(0.,0.,1.));
#475=DIRECTION('refdir',(1.,0.,0.));
#476=DIRECTION('center_axis',(-1.,0.,0.));
#477=DIRECTION('ref_axis',(0.,0.,-1.));
#478=DIRECTION('',(0.,0.,1.));
#479=DIRECTION('',(0.,-1.,0.));
#480=DIRECTION('',(0.,0.,-1.));
#481=DIRECTION('',(0.,-1.,0.));
#482=DIRECTION('center_axis',(0.,0.,-1.));
#483=DIRECTION('ref_axis',(1.,0.,0.));
#484=DIRECTION('',(-1.,0.,0.));
#485=DIRECTION('',(1.,0.,0.));
#486=DIRECTION('',(0.,-1.,0.));
#487=DIRECTION('center_axis',(1.,0.,0.));
#488=DIRECTION('ref_axis',(0.,0.,1.));
#489=DIRECTION('',(0.,0.,-1.));
#490=DIRECTION('',(0.,0.,1.));
#491=DIRECTION('',(0.,-1.,0.));
#492=DIRECTION('center_axis',(0.,1.,0.));
#493=DIRECTION('ref_axis',(0.,0.,1.));
#494=DIRECTION('center_axis',(0.,1.,0.));
#495=DIRECTION('ref_axis',(1.,0.,0.));
#496=DIRECTION('',(0.,0.,-1.));
#497=DIRECTION('',(1.,0.,0.));
#498=DIRECTION('',(0.,0.,1.));
#499=DIRECTION('center_axis',(0.,-1.,0.));
#500=DIRECTION('ref_axis',(1.,0.,0.));
#501=DIRECTION('center_axis',(0.,-1.,0.));
#502=DIRECTION('ref_axis',(1.,0.,0.));
#503=DIRECTION('',(0.,1.,0.));
#504=DIRECTION('center_axis',(0.,1.,0.));
#505=DIRECTION('ref_axis',(1.,0.,0.));
#506=DIRECTION('center_axis',(0.,-1.,0.));
#507=DIRECTION('ref_axis',(-1.85037170770859E-16,0.,-1.));
#508=DIRECTION('center_axis',(0.,-1.,0.));
#509=DIRECTION('ref_axis',(-0.266666666666667,0.,0.963788819653397));
#510=DIRECTION('center_axis',(0.,1.,0.));
#511=DIRECTION('ref_axis',(-0.266666666666667,0.,0.963788819653397));
#512=DIRECTION('center_axis',(0.,-1.,0.));
#513=DIRECTION('ref_axis',(1.,0.,0.));
#514=DIRECTION('center_axis',(0.,1.,0.));
#515=DIRECTION('ref_axis',(0.,0.,1.));
#516=DIRECTION('',(0.,0.,1.));
#517=DIRECTION('',(-1.,0.,0.));
#518=DIRECTION('',(0.,0.,-1.));
#519=DIRECTION('center_axis',(0.,1.,0.));
#520=DIRECTION('ref_axis',(0.,0.,1.));
#521=DIRECTION('center_axis',(-1.,0.,0.));
#522=DIRECTION('ref_axis',(0.,-1.,0.));
#523=DIRECTION('',(0.,1.,0.));
#524=DIRECTION('',(0.,0.,-1.));
#525=DIRECTION('',(0.,0.,1.));
#526=DIRECTION('',(0.,0.,1.));
#527=DIRECTION('',(0.,1.,0.));
#528=DIRECTION('center_axis',(0.,0.,1.));
#529=DIRECTION('ref_axis',(0.,1.,0.));
#530=DIRECTION('',(0.,-1.,0.));
#531=DIRECTION('',(-0.292902279822535,0.956142381904893,0.));
#532=DIRECTION('center_axis',(0.,0.,1.));
#533=DIRECTION('ref_axis',(0.984855570945661,0.173376770004798,0.));
#534=DIRECTION('',(0.292902279822535,0.956142381904893,0.));
#535=DIRECTION('center_axis',(0.,0.,-1.));
#536=DIRECTION('ref_axis',(1.,0.,0.));
#537=DIRECTION('center_axis',(0.,1.,0.));
#538=DIRECTION('ref_axis',(0.,0.,1.));
#539=DIRECTION('',(-1.,0.,0.));
#540=DIRECTION('',(0.,0.,1.));
#541=DIRECTION('',(1.,0.,0.));
#542=DIRECTION('center_axis',(0.,0.,1.));
#543=DIRECTION('ref_axis',(1.,0.,0.));
#544=DIRECTION('',(-0.292902279822535,-0.956142381904893,0.));
#545=DIRECTION('center_axis',(0.,0.,1.));
#546=DIRECTION('ref_axis',(0.984855570945661,0.173376770004798,0.));
#547=DIRECTION('',(-0.292902279822535,0.956142381904893,0.));
#548=DIRECTION('center_axis',(0.,0.,-1.));
#549=DIRECTION('ref_axis',(1.,0.,0.));
#550=DIRECTION('center_axis',(0.,0.,1.));
#551=DIRECTION('ref_axis',(1.,0.,0.));
#552=DIRECTION('',(0.,0.,1.));
#553=DIRECTION('center_axis',(0.956142381904893,-0.292902279822535,0.));
#554=DIRECTION('ref_axis',(-0.292902279822535,-0.956142381904893,0.));
#555=DIRECTION('',(0.,0.,-1.));
#556=DIRECTION('center_axis',(0.,0.,1.));
#557=DIRECTION('ref_axis',(0.984855570945661,0.173376770004798,0.));
#558=DIRECTION('',(0.,0.,-1.));
#559=DIRECTION('center_axis',(-0.956142381904893,-0.292902279822535,0.));
#560=DIRECTION('ref_axis',(-0.292902279822535,0.956142381904893,0.));
#561=DIRECTION('',(0.,0.,-1.));
#562=DIRECTION('center_axis',(1.,0.,0.));
#563=DIRECTION('ref_axis',(0.,1.,0.));
#564=DIRECTION('',(0.,1.,0.));
#565=DIRECTION('',(0.,0.,1.));
#566=DIRECTION('center_axis',(0.,0.,1.));
#567=DIRECTION('ref_axis',(1.,0.,0.));
#568=DIRECTION('center_axis',(0.,0.,-1.));
#569=DIRECTION('ref_axis',(1.,0.,0.));
#570=DIRECTION('',(0.,0.,-1.));
#571=DIRECTION('center_axis',(0.,0.,-1.));
#572=DIRECTION('ref_axis',(1.,0.,0.));
#573=DIRECTION('center_axis',(-0.956142381904893,0.292902279822535,0.));
#574=DIRECTION('ref_axis',(-0.292902279822535,-0.956142381904893,0.));
#575=DIRECTION('',(0.292902279822535,0.956142381904893,0.));
#576=DIRECTION('',(-0.292902279822535,-0.956142381904893,0.));
#577=DIRECTION('',(0.,0.,1.));
#578=DIRECTION('center_axis',(0.,0.,1.));
#579=DIRECTION('ref_axis',(0.984855570945661,0.173376770004798,0.));
#580=DIRECTION('center_axis',(0.,0.,1.));
#581=DIRECTION('ref_axis',(0.984855570945661,0.173376770004798,0.));
#582=DIRECTION('center_axis',(0.,0.,1.));
#583=DIRECTION('ref_axis',(0.984855570945661,0.173376770004798,0.));
#584=DIRECTION('',(0.,0.,1.));
#585=DIRECTION('center_axis',(0.956142381904893,0.292902279822535,0.));
#586=DIRECTION('ref_axis',(-0.292902279822535,0.956142381904893,0.));
#587=DIRECTION('',(-0.292902279822535,0.956142381904893,0.));
#588=DIRECTION('',(-0.292902279822535,0.956142381904893,0.));
#589=DIRECTION('center_axis',(0.,0.,1.));
#590=DIRECTION('ref_axis',(1.,0.,0.));
#591=DIRECTION('center_axis',(0.,0.,1.));
#592=DIRECTION('ref_axis',(1.,0.,0.));
#593=CARTESIAN_POINT('',(0.,0.,0.));
#594=CARTESIAN_POINT('Origin',(34.,30.,63.));
#595=CARTESIAN_POINT('',(34.,30.,59.456832294801));
#596=CARTESIAN_POINT('',(34.,30.,63.));
#597=CARTESIAN_POINT('',(34.,30.,31.5));
#598=CARTESIAN_POINT('',(34.,0.,59.456832294801));
#599=CARTESIAN_POINT('',(34.,30.,59.456832294801));
#600=CARTESIAN_POINT('',(34.,0.,63.));
#601=CARTESIAN_POINT('',(34.,0.,59.456832294801));
#602=CARTESIAN_POINT('',(34.,30.,63.));
#603=CARTESIAN_POINT('Origin',(26.,30.,63.));
#604=CARTESIAN_POINT('',(26.,30.,63.));
#605=CARTESIAN_POINT('',(13.,30.,63.));
#606=CARTESIAN_POINT('',(26.,0.,63.));
#607=CARTESIAN_POINT('',(30.,0.,63.));
#608=CARTESIAN_POINT('',(26.,30.,63.));
#609=CARTESIAN_POINT('Origin',(26.,30.,59.456832294801));
#610=CARTESIAN_POINT('',(26.,30.,59.456832294801));
#611=CARTESIAN_POINT('',(26.,30.,29.7284161474005));
#612=CARTESIAN_POINT('',(26.,0.,59.456832294801));
#613=CARTESIAN_POINT('',(26.,0.,63.));
#614=CARTESIAN_POINT('',(26.,30.,59.456832294801));
#615=CARTESIAN_POINT('Origin',(0.,30.,0.));
#616=CARTESIAN_POINT('',(0.,30.,45.));
#617=CARTESIAN_POINT('',(60.,30.,45.));
#618=CARTESIAN_POINT('Origin',(30.,30.,45.));
#619=CARTESIAN_POINT('',(60.,30.,90.));
#620=CARTESIAN_POINT('',(60.,30.,0.));
#621=CARTESIAN_POINT('',(0.,30.,90.));
#622=CARTESIAN_POINT('',(30.,30.,90.));
#623=CARTESIAN_POINT('',(0.,30.,0.));
#624=CARTESIAN_POINT('Origin',(30.,30.,45.));
#625=CARTESIAN_POINT('',(0.,0.,45.));
#626=CARTESIAN_POINT('Origin',(30.,0.,45.));
#627=CARTESIAN_POINT('',(0.,30.,45.));
#628=CARTESIAN_POINT('Origin',(30.,30.,45.));
#629=CARTESIAN_POINT('Origin',(30.,30.,45.));
#630=CARTESIAN_POINT('Origin',(30.,30.,45.));
#631=CARTESIAN_POINT('Origin',(30.,0.,45.));
#632=CARTESIAN_POINT('Origin',(30.,0.,45.));
#633=CARTESIAN_POINT('Origin',(0.,30.,0.));
#634=CARTESIAN_POINT('',(0.,30.,0.));
#635=CARTESIAN_POINT('',(0.,30.,0.));
#636=CARTESIAN_POINT('',(60.,30.,0.));
#637=CARTESIAN_POINT('',(15.,30.,0.));
#638=CARTESIAN_POINT('',(60.,30.,0.));
#639=CARTESIAN_POINT('Origin',(0.,30.,0.));
#640=CARTESIAN_POINT('Origin',(0.,45.,0.));
#641=CARTESIAN_POINT('',(0.,45.,90.));
#642=CARTESIAN_POINT('',(0.,30.,90.));
#643=CARTESIAN_POINT('',(0.,45.,75.));
#644=CARTESIAN_POINT('',(0.,45.,90.));
#645=CARTESIAN_POINT('',(0.,45.,15.));
#646=CARTESIAN_POINT('',(0.,45.,15.));
#647=CARTESIAN_POINT('',(0.,45.,0.));
#648=CARTESIAN_POINT('',(0.,45.,0.));
#649=CARTESIAN_POINT('',(0.,30.,0.));
#650=CARTESIAN_POINT('Origin',(60.,0.,90.));
#651=CARTESIAN_POINT('',(60.,45.,90.));
#652=CARTESIAN_POINT('',(60.,30.,90.));
#653=CARTESIAN_POINT('',(50.9985657969398,74.3840414785736,90.));
#654=CARTESIAN_POINT('',(60.,45.,90.));
#655=CARTESIAN_POINT('',(9.00143420306018,74.3840414785736,90.));
#656=CARTESIAN_POINT('Origin',(30.,65.,90.));
#657=CARTESIAN_POINT('',(0.,45.,90.));
#658=CARTESIAN_POINT('',(22.,65.,90.));
#659=CARTESIAN_POINT('Origin',(30.,65.,90.));
#660=CARTESIAN_POINT('Origin',(0.,45.,15.));
#661=CARTESIAN_POINT('',(60.,45.,75.));
#662=CARTESIAN_POINT('',(15.,45.,75.));
#663=CARTESIAN_POINT('',(60.,45.,15.));
#664=CARTESIAN_POINT('',(60.,45.,15.));
#665=CARTESIAN_POINT('',(15.,45.,15.));
#666=CARTESIAN_POINT('Origin',(30.,59.,75.));
#667=CARTESIAN_POINT('',(9.00143420306018,74.3840414785736,75.));
#668=CARTESIAN_POINT('',(0.,45.,75.));
#669=CARTESIAN_POINT('',(50.9985657969398,74.3840414785736,75.));
#670=CARTESIAN_POINT('Origin',(30.,65.,75.));
#671=CARTESIAN_POINT('',(60.,45.,75.));
#672=CARTESIAN_POINT('',(22.,65.,75.));
#673=CARTESIAN_POINT('Origin',(30.,65.,75.));
#674=CARTESIAN_POINT('Origin',(30.,65.,90.));
#675=CARTESIAN_POINT('',(22.,65.,90.));
#676=CARTESIAN_POINT('Origin',(9.00143420306019,74.3840414785736,90.));
#677=CARTESIAN_POINT('',(9.00143420306018,74.3840414785736,90.));
#678=CARTESIAN_POINT('Origin',(30.,65.,90.));
#679=CARTESIAN_POINT('',(50.9985657969398,74.3840414785736,90.));
#680=CARTESIAN_POINT('Origin',(60.,45.,90.));
#681=CARTESIAN_POINT('',(60.,45.,90.));
#682=CARTESIAN_POINT('Origin',(60.,30.,0.));
#683=CARTESIAN_POINT('',(60.,45.,0.));
#684=CARTESIAN_POINT('',(60.,30.,0.));
#685=CARTESIAN_POINT('',(60.,45.,0.));
#686=CARTESIAN_POINT('Origin',(30.,65.,0.));
#687=CARTESIAN_POINT('',(22.,65.,15.));
#688=CARTESIAN_POINT('Origin',(30.,65.,15.));
#689=CARTESIAN_POINT('',(22.,65.,0.));
#690=CARTESIAN_POINT('',(22.,65.,0.));
#691=CARTESIAN_POINT('Origin',(30.,65.,0.));
#692=CARTESIAN_POINT('Origin',(9.00143420306019,74.3840414785736,0.));
#693=CARTESIAN_POINT('',(9.00143420306018,74.3840414785736,0.));
#694=CARTESIAN_POINT('',(0.,45.,0.));
#695=CARTESIAN_POINT('',(9.00143420306018,74.3840414785736,15.));
#696=CARTESIAN_POINT('',(0.,45.,15.));
#697=CARTESIAN_POINT('',(9.00143420306018,74.3840414785736,0.));
#698=CARTESIAN_POINT('Origin',(30.,65.,0.));
#699=CARTESIAN_POINT('',(50.9985657969398,74.3840414785736,0.));
#700=CARTESIAN_POINT('Origin',(30.,65.,0.));
#701=CARTESIAN_POINT('',(50.9985657969398,74.3840414785736,15.));
#702=CARTESIAN_POINT('Origin',(30.,65.,15.));
#703=CARTESIAN_POINT('',(50.9985657969398,74.3840414785736,0.));
#704=CARTESIAN_POINT('Origin',(60.,45.,0.));
#705=CARTESIAN_POINT('',(60.,45.,0.));
#706=CARTESIAN_POINT('',(60.,45.,15.));
#707=CARTESIAN_POINT('Origin',(30.,59.,15.));
#708=CARTESIAN_POINT('Origin',(30.,59.,0.));
#709=UNCERTAINTY_MEASURE_WITH_UNIT(LENGTH_MEASURE(0.01),#713,
'DISTANCE_ACCURACY_VALUE',
'Maximum model space distance between geometric entities at asserted c
onnectivities');
#710=UNCERTAINTY_MEASURE_WITH_UNIT(LENGTH_MEASURE(0.01),#713,
'DISTANCE_ACCURACY_VALUE',
'Maximum model space distance between geometric entities at asserted c
onnectivities');
#711=(
GEOMETRIC_REPRESENTATION_CONTEXT(3)
GLOBAL_UNCERTAINTY_ASSIGNED_CONTEXT((#709))
GLOBAL_UNIT_ASSIGNED_CONTEXT((#713,#715,#716))
REPRESENTATION_CONTEXT('','3D')
);
#712=(
GEOMETRIC_REPRESENTATION_CONTEXT(3)
GLOBAL_UNCERTAINTY_ASSIGNED_CONTEXT((#710))
GLOBAL_UNIT_ASSIGNED_CONTEXT((#713,#715,#716))
REPRESENTATION_CONTEXT('','3D')
);
#713=(
LENGTH_UNIT()
NAMED_UNIT(*)
SI_UNIT(.MILLI.,.METRE.)
);
#714=(
LENGTH_UNIT()
NAMED_UNIT(*)
SI_UNIT($,.METRE.)
);
#715=(
NAMED_UNIT(*)
PLANE_ANGLE_UNIT()
SI_UNIT($,.RADIAN.)
);
#716=(
NAMED_UNIT(*)
SI_UNIT($,.STERADIAN.)
SOLID_ANGLE_UNIT()
);
#717=SHAPE_DEFINITION_REPRESENTATION(#718,#719);
#718=PRODUCT_DEFINITION_SHAPE('',$,#721);
#719=SHAPE_REPRESENTATION('',(#436),#711);
#720=PRODUCT_DEFINITION_CONTEXT('part definition',#725,'design');
#721=PRODUCT_DEFINITION('2026-08-01-22-42-24-581','driving yoke v4',#722,
#720);
#722=PRODUCT_DEFINITION_FORMATION('',$,#727);
#723=PRODUCT_RELATED_PRODUCT_CATEGORY('driving yoke v4',
'driving yoke v4',(#727));
#724=APPLICATION_PROTOCOL_DEFINITION('international standard',
'automotive_design',2009,#725);
#725=APPLICATION_CONTEXT(
'Core Data for Automotive Mechanical Design Process');
#726=PRODUCT_CONTEXT('part definition',#725,'mechanical');
#727=PRODUCT('2026-08-01-22-42-24-581','driving yoke v4',$,(#726));
#728=PRESENTATION_STYLE_ASSIGNMENT((#730));
#729=PRESENTATION_STYLE_ASSIGNMENT((#731));
#730=SURFACE_STYLE_USAGE(.BOTH.,#732);
#731=SURFACE_STYLE_USAGE(.BOTH.,#733);
#732=SURFACE_SIDE_STYLE('',(#734));
#733=SURFACE_SIDE_STYLE('',(#735));
#734=SURFACE_STYLE_FILL_AREA(#736);
#735=SURFACE_STYLE_FILL_AREA(#737);
#736=FILL_AREA_STYLE('Steel - Satin',(#738));
#737=FILL_AREA_STYLE('Paint - Enamel Glossy (Blue)',(#739));
#738=FILL_AREA_STYLE_COLOUR('Steel - Satin',#740);
#739=FILL_AREA_STYLE_COLOUR('Paint - Enamel Glossy (Blue)',#741);
#740=COLOUR_RGB('Steel - Satin',0.627450980392157,0.627450980392157,0.627450980392157);
#741=COLOUR_RGB('Paint - Enamel Glossy (Blue)',0.188235294117647,0.231372549019608,
0.588235294117647);
ENDSEC;
END-ISO-10303-21;
